<svg width="100" height="100" viewBox="0 0 100 100" fill="none" xmlns="http://www.w3.org/2000/svg">
<path d="M87.0816 49.1339C86.6976 41.4579 84.1296 33.9599 80.1016 27.4439C76.0176 20.8359 70.6576 15.0379 62.9016 13.0599C59.2016 12.1179 55.3336 11.9159 51.5316 12.0279C47.2656 12.1539 42.9536 12.5919 38.8236 13.7019C32.0996 15.5079 26.0036 19.3279 21.3516 24.4979C10.0516 37.0559 9.03748 55.838 18.0635 70L19.5635 72L21.0635 73.5L25.0635 77L29.0635 79C29.0635 79 32.0896 80.0019 32.9576 80.3159C36.3696 81.5459 39.8836 82.5819 43.4016 83.4039C51.3536 85.2619 59.8876 85.7559 67.5436 82.4699C80.4196 76.9439 87.7616 62.7899 87.0816 49.1339Z" fill="#429AD4"/>
<path d="M66.478 23.3984C68.498 25.0764 70.59 26.7884 72.03 29.0164C73.6 31.4464 74.786 34.1684 76.104 36.7384C76.692 37.8844 78.418 36.8744 77.83 35.7284C77.138 34.3804 76.448 33.0304 75.756 31.6824C75.082 30.3684 74.442 29.0264 73.618 27.7984C72.086 25.5104 69.99 23.7284 67.89 21.9844C66.91 21.1684 65.488 22.5744 66.478 23.3984Z" fill="#231F20"/>
<path d="M24.094 77.3035C25.794 76.3415 27.518 75.4275 29.274 74.5695C30.106 74.1635 31.122 73.4236 32.078 73.7016C33.008 73.9736 33.884 74.6016 34.756 75.0216C38.046 76.6056 41.528 77.7255 45.124 78.3575C46.382 78.5795 46.924 76.6515 45.656 76.4295C41.564 75.7095 37.72 74.3435 34.046 72.4135C33.296 72.0195 32.498 71.6215 31.63 71.6115C30.69 71.5995 29.844 72.0835 29.02 72.4775C27.006 73.4395 25.03 74.4775 23.088 75.5755C21.964 76.2095 22.972 77.9395 24.094 77.3035Z" fill="#231F20"/>
<path d="M79.5521 15.4159C79.7421 14.6299 79.9701 13.8539 80.2401 13.0919C80.3721 12.7159 80.4961 12.3179 80.6741 11.9599C80.4341 12.4419 80.7301 11.8359 80.7721 11.7419C80.8561 11.5579 80.9401 11.3739 81.0281 11.1919C81.7321 9.73389 82.5881 8.35789 83.5741 7.07388C83.8681 6.69188 83.8961 5.97189 83.7761 5.53189C83.6481 5.06789 83.2901 4.56589 82.8561 4.33589C82.3921 4.08989 81.8301 3.96788 81.3141 4.13388C80.7841 4.30588 80.4541 4.61588 80.1181 5.05388C78.0161 7.78989 76.5061 10.9979 75.6921 14.3499C75.4461 15.3639 76.0141 16.5659 77.0881 16.8099C78.1221 17.0479 79.2881 16.5039 79.5521 15.4159Z" fill="#FF9600"/>
<path d="M85.5682 18.4739C85.5822 18.4279 85.5982 18.3839 85.6182 18.3419C85.5502 18.5019 85.4842 18.6599 85.4162 18.8199C85.4742 18.6919 85.5442 18.5739 85.6282 18.4619C85.5242 18.5959 85.4202 18.7319 85.3162 18.8659C85.4502 18.6979 85.6042 18.5539 85.7742 18.4219C85.6402 18.5259 85.5042 18.6299 85.3702 18.7339C85.9622 18.2879 86.6542 17.9599 87.3002 17.5999C88.0402 17.1879 88.7802 16.7759 89.5222 16.3659C90.4382 15.8579 90.8162 14.5239 90.2402 13.6299C89.6422 12.7039 88.4822 12.3679 87.5042 12.9119C86.4842 13.4779 85.4642 14.0459 84.4442 14.6119C83.9002 14.9139 83.4042 15.2239 82.9162 15.6139C82.3362 16.0799 81.9502 16.7119 81.7122 17.4099C81.5502 17.8819 81.6682 18.5299 81.9142 18.9519C82.1562 19.3659 82.6322 19.7619 83.1102 19.8719C84.2202 20.1239 85.2042 19.5359 85.5682 18.4739Z" fill="#FF9600"/>
<path d="M84.4198 25.9338C85.2738 26.0918 86.1038 26.3398 86.9078 26.6718C86.7478 26.6038 86.5898 26.5378 86.4298 26.4698C87.3838 26.8738 88.2798 27.3938 89.1038 28.0218C88.9698 27.9178 88.8338 27.8138 88.6998 27.7098C88.9898 27.9338 89.2698 28.1698 89.5398 28.4198C90.3098 29.1278 91.6178 29.2378 92.3678 28.4198C93.0758 27.6478 93.1898 26.3478 92.3678 25.5918C90.4498 23.8278 88.0558 22.5538 85.4838 22.0778C84.9458 21.9778 84.4298 21.9958 83.9418 22.2798C83.5278 22.5218 83.1319 22.9978 83.0219 23.4758C82.7979 24.4538 83.3178 25.7298 84.4198 25.9338Z" fill="#FF9600"/>
<path d="M26.5199 92.5139C28.6839 91.2319 30.9199 90.0799 33.2219 89.0679C33.6499 88.8799 34.0219 88.3039 34.1419 87.8719C34.2739 87.3939 34.2139 86.7559 33.9399 86.3299C33.6639 85.9019 33.2539 85.5279 32.7439 85.4099C32.1859 85.2839 31.7219 85.3819 31.2019 85.6119C28.8999 86.6259 26.6619 87.7759 24.4999 89.0579C23.5999 89.5919 23.1939 90.8819 23.7819 91.7939C24.3679 92.7019 25.5579 93.0859 26.5199 92.5139Z" fill="#99C93C"/>
<path d="M36.9381 87.7259C36.7521 89.7619 36.9161 91.8179 37.3461 93.8139C37.5661 94.8379 38.8201 95.5299 39.8061 95.2099C40.8861 94.8599 41.4381 93.8479 41.2021 92.7499C41.0961 92.2599 41.0101 91.7659 40.9441 91.2679C40.9681 91.4459 40.9921 91.6219 41.0161 91.7999C40.8421 90.4479 40.8161 89.0839 40.9401 87.7259C40.9841 87.2439 40.6861 86.6419 40.3541 86.3119C40.0081 85.9659 39.4381 85.7039 38.9401 85.7259C38.4221 85.7499 37.8861 85.9199 37.5261 86.3119C37.1461 86.7219 36.9881 87.1699 36.9381 87.7259Z" fill="#99C93C"/>
<path d="M43.8122 91.4056C45.5042 92.6456 47.3102 93.7196 49.2062 94.6136C49.7022 94.8476 50.2002 94.9656 50.7482 94.8156C51.2122 94.6876 51.7142 94.3296 51.9442 93.8956C52.1902 93.4316 52.3122 92.8696 52.1462 92.3536C51.9942 91.8836 51.6922 91.3776 51.2262 91.1576C49.3282 90.2656 47.5222 89.1916 45.8322 87.9496C45.4382 87.6616 44.7402 87.6236 44.2902 87.7476C43.8262 87.8756 43.3242 88.2336 43.0942 88.6676C42.8482 89.1316 42.7262 89.6936 42.8922 90.2096C43.0622 90.7336 43.3702 91.0796 43.8122 91.4056Z" fill="#99C93C"/>
<path d="M64.3049 32.4449C63.677 31.9303 62.6908 31.8567 61.6711 32.2524H61.6695C60.597 32.6682 37.1005 42.4851 35.9083 42.9811C35.6915 43.0539 26.8083 46.6614 27.0034 48.1826C27.1775 49.5541 29.1923 49.8509 29.3782 49.9165L36.502 52.8062C36.996 54.3954 39.8467 59.5023 40.2494 60.7549C40.5005 61.5357 40.9099 62.5617 41.6274 62.7729C42.2569 63.0075 42.8831 62.7931 43.2883 62.4856L47.7823 59.5088L54.9066 63.7873L55.5003 64.3652C55.9993 64.5788 56.2315 64.9432 56.6877 64.9432C57.0402 64.9432 57.552 65.071 57.8751 64.9432C58.976 64.5062 59.6104 63.3242 59.6564 63.2093L64.8859 35.035C65.2208 33.5623 64.7553 32.8131 64.3049 32.4449ZM44.2201 53.3842C43.0037 55.8131 41.5864 59.5088 41.5864 59.5088L39.0748 51.4175L58.33 37.6622C58.33 37.6622 47.8584 46.1195 44.2201 53.3842Z" fill="white"/>
</svg>
