<svg xmlns="http://www.w3.org/2000/svg" x="0px" y="0px" width="100" height="100" viewBox="0 0 50 50">
<path fill="#99c93c" d="M24.941,7.757c0.256-0.455,0.946-1.296,1.57-1.166c0.429,0.089,0.722,0.832,0.865,1.173 c0.3,0.714,1.395,1.092,1.828,0.239c0.158-0.312,0.554-1.322,1.043-1.256c0.323,0.043,0.548,0.796,0.738,1.047 c0.411,0.545,1.033,0.65,1.571,0.202c0.36-0.3,0.635-0.661,0.95-1.004c0.163-0.177,0.45-0.537,0.723-0.512 c0.026,0.002-0.012-0.07,0.099,0.089c0.063,0.09,0.104,0.199,0.147,0.299c0.155,0.358,0.273,0.728,0.463,1.071 c0.622,1.127,2.35,0.119,1.727-1.009c-0.568-1.028-0.763-2.257-2.168-2.427c-1.597-0.194-2.306,1.205-3.354,2.08 c0.524,0.067,1.047,0.135,1.571,0.202c-0.318-0.421-0.492-0.927-0.848-1.323c-0.414-0.46-0.993-0.726-1.617-0.715 c-1.373,0.022-2.205,1.135-2.77,2.247c0.609,0.08,1.218,0.159,1.828,0.239c-0.497-1.181-1.216-2.495-2.642-2.626 c-1.427-0.13-2.786,0.96-3.449,2.141C22.583,7.871,24.31,8.881,24.941,7.757L24.941,7.757z"></path><path fill="#fd2923" d="M47.307,19.257c-0.102-1.209-0.18-2.483-0.509-3.657c-0.547-1.954-2.095-3.113-3.959-3.726 c-2.217-0.729-4.654-0.912-6.959-1.182c-2.716-0.318-5.442-0.542-8.171-0.708c-2.691-0.164-5.386-0.271-8.081-0.356 c-2.498-0.079-5.039-0.275-7.537-0.134c-2.064,0.116-4.193,0.65-5.59,2.283c-1.253,1.465-1.7,3.383-1.859,5.261 c-0.085,1.002-0.445,9.335-0.421,12.063c0.012,1.344,0.056,2.688,0.131,4.03c0.063,1.112,0.138,2.264,0.526,3.318 c1.516,4.12,6.529,3.976,10.154,3.952c5.515-0.037,11.031-0.073,16.546-0.109c2.737-0.018,5.474-0.037,8.211-0.055 c1.141-0.007,2.4,0.1,3.465-0.392c0.866-0.4,1.462-1.173,1.849-2.025c0.454-0.999,0.714-2.084,0.977-3.146 c0.31-1.255,0.568-2.523,0.773-3.8c0.412-2.559,0.624-5.149,0.619-7.742C47.471,21.838,47.415,20.545,47.307,19.257z"></path><path fill="#fff" d="M32.542,21.521c-1.129-1.026-2.259-2.051-3.388-3.077c-1.938-1.76-4.029-4.242-6.884-4.178 c-0.85,0.019-1.447,0.674-1.5,1.5c-0.384,5.936-0.701,11.875-0.951,17.818c-0.043,1.025,0.981,1.647,1.879,1.439 c0.298,0.021,0.601-0.019,0.867-0.14c2.481-1.129,4.762-2.615,6.931-4.259c1.106-0.839,2.19-1.707,3.261-2.589 c1.048-0.863,2.591-1.796,2.449-3.354C35.083,23.333,33.456,22.351,32.542,21.521z"></path><path fill="#231f20" d="M7.69,17.244c0.823-2.03,2.444-3.682,4.418-4.613c0.244-0.115,0.307-0.466,0.179-0.684 c-0.146-0.25-0.439-0.295-0.684-0.179c-2.222,1.047-3.958,2.942-4.877,5.21c-0.102,0.25,0.11,0.549,0.349,0.615 C7.361,17.672,7.588,17.495,7.69,17.244L7.69,17.244z"></path><path fill="#231f20" d="M39.772,38.673c2.31-0.847,4.105-2.924,4.516-5.365c0.045-0.266-0.07-0.538-0.349-0.615 c-0.24-0.066-0.57,0.081-0.615,0.349c-0.351,2.085-1.819,3.934-3.818,4.666c-0.253,0.093-0.425,0.339-0.349,0.615 C39.224,38.568,39.517,38.766,39.772,38.673L39.772,38.673z"></path><path fill="#429ad4" d="M38.988,45.78c0.222-0.491,0.499-0.954,0.828-1.382c-0.052,0.067-0.104,0.135-0.156,0.202 c0.198-0.255,0.414-0.496,0.645-0.722c0.182-0.178,0.293-0.454,0.293-0.707c0-0.245-0.109-0.538-0.293-0.707 c-0.191-0.175-0.441-0.305-0.707-0.293c-0.267,0.012-0.512,0.103-0.707,0.293c-0.674,0.657-1.242,1.447-1.629,2.306 c-0.073,0.115-0.113,0.239-0.119,0.372c-0.03,0.133-0.024,0.266,0.018,0.399c0.064,0.232,0.243,0.483,0.46,0.598 c0.232,0.123,0.513,0.184,0.771,0.101C38.623,46.164,38.883,46.013,38.988,45.78L38.988,45.78z"></path><path fill="#429ad4" d="M42.495,43.166c0.458,1.079,0.998,2.12,1.616,3.116c0.276,0.444,0.906,0.657,1.368,0.359 c0.445-0.287,0.654-0.893,0.359-1.368c-0.618-0.996-1.158-2.037-1.616-3.116c-0.091-0.214-0.386-0.401-0.598-0.46 c-0.239-0.066-0.558-0.036-0.771,0.101c-0.214,0.138-0.401,0.343-0.46,0.598c-0.012,0.089-0.024,0.177-0.036,0.266 C42.359,42.842,42.404,43.01,42.495,43.166L42.495,43.166z"></path><path fill="#429ad4" d="M45.968,41.837c0.298,0.043,0.596,0.085,0.894,0.128c0.133,0.042,0.266,0.048,0.399,0.018 c0.133-0.006,0.257-0.046,0.372-0.119c0.117-0.063,0.21-0.149,0.281-0.258c0.088-0.097,0.148-0.21,0.179-0.34 c0.012-0.089,0.024-0.177,0.036-0.266c-0.001-0.181-0.046-0.349-0.137-0.505c-0.052-0.067-0.104-0.135-0.156-0.202 c-0.125-0.124-0.272-0.21-0.441-0.257c-0.298-0.043-0.596-0.085-0.894-0.128c-0.133-0.042-0.266-0.048-0.399-0.018 c-0.133,0.006-0.257,0.046-0.372,0.119c-0.117,0.063-0.21,0.149-0.281,0.258c-0.088,0.097-0.148,0.21-0.179,0.34 c-0.012,0.089-0.024,0.177-0.036,0.266c0.001,0.181,0.046,0.349,0.137,0.505c0.052,0.067,0.104,0.135,0.156,0.202 C45.652,41.703,45.799,41.789,45.968,41.837L45.968,41.837z"></path>
</svg>