<svg width="86" height="86" viewBox="0 0 86 86" fill="none" xmlns="http://www.w3.org/2000/svg">
<path d="M45.5179 46.672C56.0399 60.626 67.7939 73.602 80.6999 85.386C82.5979 87.118 85.4339 84.298 83.5279 82.558C70.8839 71.012 59.2799 58.326 48.9699 44.654C48.3199 43.792 47.2439 43.346 46.2339 43.936C45.3859 44.432 44.8639 45.804 45.5179 46.672Z" fill="#454360"/>
<path d="M63.9299 11.8019C61.4059 9.28985 58.5099 7.24585 55.3879 5.68385C54.9079 5.33385 54.4119 4.99985 53.8839 4.68985C51.6519 3.37785 49.2859 2.57785 46.8599 2.15985C46.6239 1.98985 46.3639 1.83785 46.0479 1.73185C31.9199 -3.00815 16.8319 3.23985 8.1799 14.8619C-0.182103 26.0939 -2.9661 42.4958 3.7799 55.1618C4.6879 56.8658 5.8019 58.4879 7.0979 59.9399C10.4479 64.1579 15.2259 67.2439 20.5879 68.2599C26.1179 69.3079 32.0599 69.0359 37.6559 68.7019C42.5459 68.4119 47.4839 67.7239 52.0399 65.8539C62.0419 61.7479 67.6879 51.5958 70.7859 41.6898C74.1619 30.8939 72.0559 19.8919 63.9299 11.8019Z" fill="#FF4C60"/>
<path d="M83.1619 29.876C82.1879 29.412 81.0039 29.606 80.4259 30.594C79.9159 31.466 80.1639 32.864 81.1439 33.33C81.6559 33.574 82.0979 33.956 81.8619 34.57C81.5799 35.3 80.4059 35.376 79.8179 35.752C78.5999 36.534 78.1039 37.924 78.5779 39.292C78.8839 40.172 79.7779 40.858 79.7199 41.834C79.7179 41.862 79.7019 41.902 79.6819 41.942C79.6199 41.956 79.4699 42.064 79.5779 42.044C79.0519 42.146 78.4559 42.394 77.9759 42.618C76.8599 43.138 76.0679 44.17 76.0179 45.428C75.9939 46.046 76.1739 46.622 76.4319 47.172C76.6199 47.574 76.9579 47.96 77.0959 48.378C77.0939 48.43 77.0839 48.488 77.0379 48.542C76.9279 48.668 76.8139 48.796 76.6839 48.904C76.2739 49.24 75.7419 49.466 75.2719 49.7C72.9679 50.85 74.9919 54.3 77.2899 53.154C78.5899 52.506 79.8859 51.702 80.5759 50.366C81.3399 48.886 81.1199 47.422 80.3519 46.024C80.7059 45.9 81.0979 45.732 81.3419 45.618C82.7319 44.968 83.5619 43.6 83.7039 42.098C83.7679 41.432 83.6839 40.756 83.4859 40.118C83.4259 39.922 83.1919 39.248 82.9259 38.714C83.5959 38.416 84.2079 38.03 84.6939 37.466C86.7499 35.074 86.0579 31.252 83.1619 29.876ZM77.0959 48.34C77.0899 48.274 77.0779 48.26 77.0959 48.34Z" fill="#99C93C"/>
<path d="M75.4758 55.9619C75.2258 55.7139 74.9318 55.5419 74.5938 55.4479C74.5618 55.4419 74.5318 55.4379 74.4998 55.4319C74.2338 55.3479 73.9678 55.3359 73.7018 55.3959C73.4358 55.4079 73.1878 55.4879 72.9578 55.6339C72.7238 55.7599 72.5378 55.9319 72.3958 56.1499C72.2198 56.3439 72.0998 56.5699 72.0378 56.8299C72.0138 57.0079 71.9898 57.1839 71.9658 57.3619C71.9678 57.7219 72.0578 58.0599 72.2398 58.3719C72.3438 58.5079 72.4478 58.6419 72.5518 58.7759C72.8018 59.0239 73.0958 59.1959 73.4338 59.2899C73.4658 59.2959 73.4958 59.2999 73.5278 59.3059C73.7938 59.3899 74.0598 59.4019 74.3258 59.3419C74.5918 59.3299 74.8398 59.2499 75.0698 59.1039C75.3038 58.9779 75.4898 58.8059 75.6318 58.5879C75.8078 58.3939 75.9278 58.1679 75.9898 57.9079C76.0138 57.7299 76.0378 57.5539 76.0618 57.3759C76.0598 57.0159 75.9698 56.6779 75.7878 56.3659C75.6838 56.2299 75.5798 56.0959 75.4758 55.9619Z" fill="#99C93C"/>
<path d="M30.9358 4.32799C25.2658 5.80799 20.4518 9.31199 16.3558 13.402C11.9978 17.75 8.25782 22.598 7.04982 28.766C5.85582 34.864 6.58182 41.388 8.03182 47.382C9.38982 52.994 12.4238 57.688 17.3038 60.85C27.3818 67.378 41.2138 65.246 50.8818 58.994C60.6358 52.686 66.7558 41.786 66.5638 30.102C66.5098 26.826 66.0098 23.416 64.8298 20.346C63.5898 17.118 61.1918 15.198 58.4118 13.308C52.7098 9.43199 46.7198 5.59999 39.6798 4.97999C38.3978 4.86799 38.4058 6.86799 39.6798 6.97999C45.4438 7.48799 50.5438 10.472 55.2718 13.6C57.5298 15.094 60.2298 16.562 61.8198 18.818C63.4418 21.114 64.0478 24.304 64.3658 27.052C65.6138 37.812 61.0398 48.514 52.6378 55.276C44.3238 61.968 31.9118 65.16 21.7758 60.954C16.9518 58.952 12.8918 55.182 10.9998 50.27C9.93982 47.52 9.40182 44.556 8.98182 41.648C8.57182 38.808 8.36782 35.926 8.52382 33.058C8.69982 29.84 9.37782 26.604 10.8298 23.71C12.2558 20.866 14.3298 18.424 16.4998 16.122C20.6458 11.724 25.5178 7.80999 31.4658 6.25799C32.7118 5.92999 32.1838 4.00199 30.9358 4.32799Z" fill="#231F20"/>
<path d="M19.3958 20.6501C13.7158 26.3501 11.4638 35.0381 13.7058 42.7741C14.1418 44.2801 15.8398 45.3721 17.3958 44.8701C18.9258 44.3741 19.9598 42.7941 19.4918 41.1801C19.2638 40.3921 19.0838 39.5961 18.9518 38.7881C18.8718 38.3001 18.9938 39.2201 18.9458 38.7281C18.9278 38.5361 18.9078 38.3461 18.8918 38.1541C18.8578 37.7221 18.8378 37.2901 18.8338 36.8581C18.8258 36.0401 18.8738 35.2221 18.9618 34.4081C19.0158 33.9161 18.8898 34.8361 18.9718 34.3461C19.0038 34.1561 19.0358 33.9661 19.0698 33.7761C19.1498 33.3501 19.2438 32.9261 19.3518 32.5061C19.5438 31.7561 19.7918 31.0301 20.0518 30.3041C20.2318 29.8041 20.0058 30.3761 20.1358 30.0861C20.2138 29.9101 20.2938 29.7361 20.3778 29.5621C20.5438 29.2141 20.7198 28.8721 20.9058 28.5361C21.3018 27.8201 21.7458 27.1341 22.2238 26.4701C22.3298 26.3241 22.4818 26.1481 22.2818 26.3921C22.4338 26.2061 22.5878 26.0221 22.7458 25.8401C23.0318 25.5141 23.3298 25.2001 23.6358 24.8941C24.7798 23.7461 24.7838 21.7981 23.6358 20.6521C22.4898 19.5021 20.5438 19.5001 19.3958 20.6501Z" fill="white"/>
<path d="M9.83799 79.776C10.842 78.626 11.936 77.554 13.11 76.578C13.252 76.46 13.396 76.342 13.542 76.226C13.606 76.174 13.672 76.124 13.736 76.072C13.93 75.918 13.388 76.336 13.674 76.12C13.97 75.896 14.27 75.676 14.574 75.464C15.216 75.014 15.878 74.594 16.556 74.198C17.46 73.67 17.858 72.37 17.274 71.462C16.686 70.552 15.504 70.18 14.538 70.744C11.724 72.388 9.15399 74.492 7.00999 76.946C6.32199 77.734 6.17799 79.01 7.00999 79.774C7.76399 80.468 9.10199 80.618 9.83799 79.776Z" fill="#FF9600"/>
<path d="M23.6719 73.2079C22.2419 76.3519 21.4539 79.7079 21.4419 83.1719C21.4379 84.2179 22.3639 85.2199 23.4419 85.1719C24.5279 85.1239 25.4379 84.2939 25.4419 83.1719C25.4439 82.4019 25.4819 81.6339 25.5659 80.8679C25.5779 80.7579 25.6319 80.2559 25.5759 80.7439C25.5959 80.5799 25.6239 80.4179 25.6499 80.2539C25.7119 79.8739 25.7839 79.4959 25.8659 79.1199C26.0179 78.4219 26.2059 77.7319 26.4279 77.0519C26.5459 76.6859 26.6759 76.3239 26.8139 75.9639C26.8719 75.8139 26.9259 75.6499 26.9979 75.5039C26.7819 75.9459 27.0899 75.3059 27.1259 75.2259C27.5579 74.2759 27.4299 73.0299 26.4079 72.4899C25.5299 72.0259 24.1339 72.1899 23.6719 73.2079Z" fill="#FF9600"/>
<path d="M35.384 74.522C35.946 76.982 36.96 79.372 38.342 81.482C38.914 82.356 40.138 82.806 41.078 82.2C41.95 81.638 42.408 80.4 41.796 79.464C41.148 78.474 40.59 77.434 40.126 76.348C40.194 76.508 40.26 76.666 40.328 76.826C39.868 75.736 39.506 74.612 39.242 73.46C39.01 72.438 37.778 71.74 36.782 72.064C35.712 72.408 35.134 73.428 35.384 74.522Z" fill="#FF9600"/>
</svg>
