<svg width="53" height="38" viewBox="0 0 53 38" fill="none" xmlns="http://www.w3.org/2000/svg">
<path d="M4.5918 4.80811H4.61377V21.2217C4.61377 23.0234 4.90674 24.1294 5.49268 24.5396C5.96143 24.8765 6.8623 25.0449 8.19531 25.0449V29C6.11523 29 4.45996 28.6631 3.22949 27.9893C1.51562 27.0518 0.658691 25.3745 0.658691 22.9575V4.80811H0.680664V4.50049C0.680664 4.25146 0.76123 4.04639 0.922363 3.88525C1.09814 3.70947 1.30322 3.62158 1.5376 3.62158H3.75684C4.03516 3.62158 4.26221 3.74609 4.43799 3.99512C4.54053 4.15625 4.5918 4.31738 4.5918 4.47852V4.80811Z" fill="#E5E7E4"/>
<path d="M14.4575 29H7.31641V25.0449H14.4575V29Z" fill="#E5E7E4"/>
<path d="M42.9341 22.6499C42.9341 24.2466 42.6411 25.6382 42.0552 26.8247C40.8394 28.5386 39.3379 29.3955 37.5508 29.3955C35.6758 29.3955 33.8521 28.502 32.0796 26.7148C30.4976 28.502 28.6226 29.3955 26.4546 29.3955C24.2866 29.3955 22.4995 28.4653 21.0933 26.605C20.0825 27.7476 18.603 28.4727 16.6548 28.7803C15.7319 28.9268 14.7578 29 13.7324 29V25.0449H15.1606C16.5229 25.0449 17.4312 24.8765 17.8853 24.5396C18.6323 23.9976 19.0059 23.0234 19.0059 21.6172L18.9839 16.6733C18.9839 16.4243 19.0645 16.2192 19.2256 16.0581C19.4014 15.8823 19.6064 15.7944 19.8408 15.7944H21.9941C22.2725 15.7944 22.4995 15.9043 22.6753 16.124C22.8071 16.3145 22.873 16.4536 22.873 16.5415V22.4521C22.873 23.3896 23.2173 24.1587 23.9058 24.7593C24.5503 25.3306 25.3413 25.6162 26.2788 25.6162C28.0806 25.6162 28.9814 24.7959 28.9814 23.1553V16.6733C28.9814 16.4243 29.062 16.2192 29.2231 16.0581C29.3989 15.8823 29.604 15.7944 29.8384 15.7944H32.0356C32.314 15.7944 32.541 15.9189 32.7168 16.168C32.79 16.2852 32.834 16.4023 32.8486 16.5195H32.8706V22.4082C32.8706 23.3457 33.2002 24.1147 33.8594 24.7153C34.5332 25.3159 35.3389 25.6162 36.2764 25.6162C38.1074 25.6162 39.0229 24.7959 39.0229 23.1553V16.5415C39.0522 16.3511 39.1328 16.1899 39.2646 16.0581C39.4404 15.8823 39.6455 15.7944 39.8799 15.7944H42.0991C42.3774 15.7944 42.6045 15.9189 42.7803 16.168C42.8535 16.2998 42.9048 16.4243 42.9341 16.5415V22.6499Z" fill="#E5E7E4"/>
<path d="M49.0645 29.1538H49.0205V16.6953C49.0205 16.4463 49.1011 16.2412 49.2622 16.0801C49.438 15.9043 49.6431 15.8164 49.8774 15.8164H52.1626C52.4409 15.8164 52.668 15.9409 52.8438 16.1899C52.9463 16.3511 52.9976 16.5122 52.9976 16.6733V29.3296H52.9756C52.9756 30.8677 52.082 32.728 50.2949 34.9106C48.3027 36.7563 45.981 37.6792 43.3296 37.6792H42.6045C42.165 37.6792 41.8721 37.4741 41.7256 37.064C41.6963 36.9614 41.6816 36.8662 41.6816 36.7783V34.647C41.6816 34.3979 41.7622 34.1929 41.9233 34.0317C42.0845 33.8706 42.2676 33.7681 42.4727 33.7241H42.6924C44.5674 33.7241 46.1201 33.1821 47.3506 32.0981C48.4932 30.8823 49.0645 29.9009 49.0645 29.1538Z" fill="#E5E7E4"/>
<path d="M49.9312 1.59961L43.0098 5.29102L42.3945 4.2583L49.3159 0.391113L49.9312 1.59961Z" fill="#E5E7E4"/>
</svg>
