<svg width="80" height="84" viewBox="0 0 80 84" fill="none" xmlns="http://www.w3.org/2000/svg">
<path d="M79.49 38.486C79.468 38.14 79.386 37.834 79.282 37.548C78.8 33.614 77.308 29.914 75.74 26.304C74.124 22.586 72.296 18.97 69.708 15.822C64.614 9.62799 57.258 5.74399 49.81 3.10599C48.514 2.64599 47.188 2.21599 45.85 1.82799C45.596 1.66399 45.318 1.51799 44.986 1.41799C33.088 -2.12801 20.382 3.78399 12.438 12.656C4.686 21.32 0.418003 33.166 1.85 44.796C1.896 45.164 1.99 45.518 2.12 45.852C2.712 49.49 4.468 53.142 6.016 56.426C7.748 60.098 10.102 63.444 13.05 66.242C13.972 67.118 14.962 67.918 15.98 68.68C18.374 70.902 21.014 72.746 23.832 74.18C26.804 76.064 30.33 77.24 33.774 77.974C41.264 79.57 49.806 79.322 56.786 75.916C63.356 72.712 69.178 66.816 73.222 60.806C77.622 54.266 80.012 46.382 79.49 38.486Z" fill="#94D82D"/>
<path d="M57.9246 11.5411C58.0446 11.1191 58.1766 10.7011 58.3246 10.2871C58.3986 10.0811 58.4766 9.87506 58.5586 9.67106C58.5786 9.62106 58.7046 9.31506 58.5966 9.57106C58.4786 9.85306 58.6446 9.46506 58.6706 9.40706C59.0306 8.60706 59.4486 7.83306 59.9166 7.09106C60.1386 6.74106 60.3706 6.39706 60.6146 6.06306C60.6846 5.96706 60.7486 5.85506 60.8326 5.76906C60.7386 5.86706 60.6366 6.01706 60.7886 5.82706C60.9266 5.65706 61.0646 5.48506 61.2066 5.31906C61.7926 4.63306 62.4286 3.99106 63.1046 3.39506C63.8926 2.70106 63.8666 1.26506 63.1046 0.567064C62.2646 -0.204937 61.1166 -0.172936 60.2766 0.567064C57.3106 3.18106 55.1466 6.67906 54.0686 10.4771C53.7826 11.4831 54.4186 12.6991 55.4646 12.9371C56.5286 13.1811 57.6186 12.6191 57.9246 11.5411Z" fill="#DF4BB1"/>
<path d="M61.7226 16.8501C61.5906 17.0221 61.5326 17.0941 61.7006 16.8801C61.7706 16.7921 61.8426 16.7041 61.9126 16.6161C62.0406 16.4581 62.1726 16.3021 62.3046 16.1481C62.5846 15.8221 62.8726 15.5041 63.1686 15.1941C63.7766 14.5581 64.4206 13.9521 65.0926 13.3841C65.2486 13.2521 65.4046 13.1241 65.5626 12.9961C65.6506 12.9261 65.7406 12.8561 65.8286 12.7861C66.0366 12.6201 65.4346 13.0801 65.8006 12.8101C66.1466 12.5561 66.4926 12.3041 66.8506 12.0641C67.5826 11.5721 68.3386 11.1221 69.1186 10.7101C70.0446 10.2201 70.4046 8.8561 69.8366 7.9741C69.2306 7.0321 68.0906 6.7321 67.1006 7.2561C63.6186 9.1021 60.6626 11.7141 58.2686 14.8301C57.9746 15.2121 57.9466 15.9321 58.0666 16.3721C58.1946 16.8361 58.5526 17.3381 58.9866 17.5681C59.4506 17.8141 60.0126 17.9361 60.5286 17.7701C61.0586 17.5981 61.3886 17.2881 61.7226 16.8501Z" fill="#DF4BB1"/>
<path d="M66.412 22.7408C66.686 22.4668 66.976 22.2108 67.282 21.9728C67.148 22.0768 67.012 22.1808 66.878 22.2848C67.476 21.8288 68.128 21.4508 68.822 21.1568C68.662 21.2248 68.504 21.2908 68.344 21.3588C68.786 21.1748 69.24 21.0288 69.706 20.9188C70.184 20.8048 70.656 20.4188 70.902 19.9988C71.152 19.5708 71.26 18.9388 71.104 18.4568C70.76 17.3948 69.736 16.8008 68.644 17.0608C66.744 17.5108 64.962 18.5288 63.586 19.9108C63.224 20.2748 63 20.8108 63 21.3248C63 21.8148 63.218 22.4008 63.586 22.7388C63.968 23.0888 64.468 23.3488 65 23.3248C65.528 23.3028 66.03 23.1228 66.412 22.7408Z" fill="#DF4BB1"/>
<path d="M0.702003 64.208C5.094 71.674 11.732 77.778 19.588 81.442C20.566 81.898 21.744 81.716 22.324 80.724C22.83 79.858 22.59 78.446 21.606 77.988C14.334 74.594 8.228 69.11 4.156 62.188C2.852 59.972 -0.607997 61.982 0.702003 64.208Z" fill="#FF9600"/>
<path d="M26.24 83.106C26.304 83.17 26.368 83.234 26.432 83.298C26.614 83.494 26.828 83.63 27.076 83.712C27.314 83.838 27.572 83.894 27.846 83.884C28.122 83.894 28.378 83.836 28.616 83.712C28.864 83.632 29.078 83.494 29.26 83.298C29.364 83.164 29.468 83.028 29.572 82.894C29.752 82.582 29.844 82.246 29.846 81.884C29.822 81.706 29.798 81.53 29.774 81.352C29.678 81.014 29.508 80.72 29.26 80.47C29.196 80.406 29.132 80.342 29.068 80.278C28.886 80.082 28.672 79.946 28.424 79.864C28.186 79.738 27.928 79.682 27.654 79.692C27.378 79.682 27.122 79.74 26.884 79.864C26.636 79.944 26.422 80.082 26.24 80.278C26.136 80.412 26.032 80.548 25.928 80.682C25.748 80.994 25.656 81.33 25.654 81.692C25.678 81.87 25.702 82.046 25.726 82.224C25.82 82.562 25.992 82.856 26.24 83.106Z" fill="#FF9600"/>
<path d="M7.714 37.33C8.242 31.87 10.628 26.668 14.382 22.676C15.264 21.738 13.852 20.322 12.968 21.262C8.83 25.664 6.294 31.322 5.714 37.33C5.59 38.61 7.592 38.6 7.714 37.33Z" fill="#231F20"/>
<path d="M72.88 36.742C73.342 41.54 72.67 46.334 70.91 50.822C70.44 52.02 72.374 52.54 72.838 51.354C74.652 46.724 75.356 41.692 74.88 36.742C74.758 35.472 72.756 35.46 72.88 36.742Z" fill="#231F20"/>
<path d="M69.37 54.258C68.758 55.646 68.036 56.98 67.208 58.25C66.922 58.69 67.106 59.374 67.566 59.618C68.064 59.882 68.628 59.728 68.934 59.26C69.762 57.99 70.484 56.654 71.096 55.268C71.208 55.014 71.274 54.778 71.196 54.498C71.132 54.266 70.952 54.014 70.736 53.9C70.306 53.67 69.596 53.746 69.37 54.258Z" fill="#231F20"/>
<path d="M37.018 41.18C37.472 46.666 37.422 52.178 36.866 57.656C36.708 59.222 38.36 60.724 39.866 60.656C41.628 60.578 42.696 59.334 42.866 57.656C43.422 52.178 43.472 46.666 43.018 41.18C42.888 39.62 41.73 38.104 40.018 38.18C38.504 38.248 36.88 39.506 37.018 41.18Z" fill="white"/>
<path d="M36.346 25.302C36.588 26.262 36.778 27.234 36.912 28.216C36.876 27.95 36.84 27.684 36.804 27.418C36.896 28.114 36.962 28.814 37 29.516C37.042 30.31 37.306 31.064 37.878 31.638C38.398 32.158 39.252 32.55 40 32.516C40.776 32.482 41.58 32.226 42.122 31.638C42.644 31.07 43.044 30.312 43 29.516C42.896 27.564 42.612 25.604 42.132 23.708C41.95 22.986 41.39 22.288 40.754 21.916C40.11 21.54 39.164 21.38 38.442 21.614C37.716 21.848 37.016 22.298 36.65 22.992C36.266 23.712 36.142 24.496 36.346 25.302Z" fill="white"/>
</svg>
