<svg width="83" height="83" viewBox="0 0 83 83" fill="none" xmlns="http://www.w3.org/2000/svg">
<path d="M70.218 4.56C68.17 3.964 66.006 3.742 63.898 3.458C61.61 3.15 59.318 2.882 57.022 2.648C52.54 2.192 48.046 1.854 43.554 1.516C39.01 1.174 34.458 0.838002 29.9 0.896002C22.974 0.984002 12.464 1.282 10.844 9.852C10.022 14.198 9.702 18.708 9.386 23.114C9.056 27.712 8.902 32.322 8.92 36.932C8.94 42.036 9.166 47.194 8.98 52.312C7.168 52.306 5.356 52.248 3.544 52.11C2.404 52.022 1.626 53.1 1.544 54.11C1.076 59.832 0.907998 65.63 1.288 71.364C1.46 73.954 1.954 76.498 3.68 78.53C5.242 80.368 7.626 81.464 9.966 81.874C12.788 82.37 15.642 82.098 18.478 81.928C21.306 81.76 24.136 81.59 26.964 81.422C32.89 81.07 55.418 81.08 57.78 81.186C59.544 81.266 61.316 81.272 63.076 81.122C64.784 80.978 66.634 80.834 68.194 80.072C71.376 78.516 71.382 74.694 71.498 71.632C71.64 67.89 71.484 64.146 71.352 60.406C71.084 52.914 71 45.416 71.114 37.92C71.234 30.026 71.594 22.14 72.138 14.264C73.178 14.278 74.218 14.29 75.258 14.304C76.3 14.318 77.31 13.376 77.258 12.304C77.06 8.286 73.87 5.624 70.218 4.56Z" fill="#429AD4"/>
<path d="M30.168 35.42C30.024 35.382 29.882 35.386 29.74 35.366C29.33 35.142 28.868 35.004 28.356 35.018C26.56 35.066 24.764 35.112 22.968 35.16C22.188 35.18 21.406 35.202 20.626 35.222C19.262 35.258 17.846 35.266 16.798 36.302C15.222 37.864 15.554 40.132 15.624 42.15C15.682 43.852 15.762 45.556 15.88 47.256C15.982 48.726 16.38 50.048 17.77 50.822C18.75 51.368 19.942 51.404 21.038 51.43C22.676 51.468 24.308 51.256 25.946 51.238C26.342 51.234 26.74 51.24 27.136 51.264C27.294 51.274 27.45 51.292 27.608 51.304C27.616 51.306 27.616 51.306 27.624 51.308C29.122 51.65 30.66 51.73 31.858 50.562C32.818 49.626 32.916 48.398 33.048 47.148C33.142 46.248 33.214 45.346 33.258 44.442C33.304 43.538 33.326 42.632 33.322 41.728C33.318 40.658 33.392 39.42 33.116 38.382C32.724 36.904 31.64 35.814 30.168 35.42Z" fill="white"/>
<path d="M63.3 59.324C61.78 57.812 59.526 57.946 57.548 57.856C55.59 57.766 53.616 57.6 51.656 57.592C50.252 57.586 48.854 57.988 47.886 59.05C47.06 59.956 46.656 61.234 46.836 62.434C46.702 63.978 46.59 65.522 46.556 67.072C46.516 68.902 46.296 71.034 47.298 72.656C48.658 74.86 51.416 74.672 53.678 74.778C55.472 74.862 57.266 74.91 59.062 74.922C60.192 74.93 61.418 75.016 62.402 74.35C63.73 73.45 64.078 72.156 64.228 70.65C64.41 68.836 64.522 67.014 64.58 65.192C64.644 63.168 64.87 60.886 63.3 59.324ZM58.618 62.832C58.618 62.846 58.618 62.86 58.618 62.874C58.59 62.802 58.594 62.788 58.618 62.832Z" fill="white"/>
<path d="M8.214 52.868C8.236 60.38 10.23 68.174 7.488 75.442C7.32 75.888 7.612 76.32 7.948 76.572C7.958 76.578 7.966 76.586 7.976 76.592C8.296 76.832 8.934 76.75 9.188 76.436C9.198 76.424 9.206 76.412 9.216 76.402C9.634 75.884 9.594 74.87 8.774 74.73C8.74 74.724 8.706 74.718 8.67 74.712C7.412 74.5 6.87 76.426 8.138 76.64C8.172 76.646 8.206 76.652 8.242 76.658C8.094 76.1 7.948 75.544 7.8 74.986C7.79 74.998 7.782 75.01 7.772 75.02C8.176 74.968 8.58 74.916 8.984 74.864C8.974 74.858 8.966 74.85 8.956 74.844C9.11 75.22 9.262 75.596 9.416 75.974C12.228 68.52 10.238 60.568 10.214 52.868C10.21 51.582 8.21 51.578 8.214 52.868Z" fill="#231F20"/>
<path d="M55.876 14.154C61.132 14.328 66.368 14.602 71.628 14.622C72.916 14.626 72.916 12.626 71.628 12.622C66.368 12.602 61.132 12.328 55.876 12.154C54.588 12.112 54.59 14.112 55.876 14.154Z" fill="#231F20"/>
<path d="M16.566 27.508C29.034 28.014 41.542 28.18 54.02 28.15C57.56 28.142 61.102 28.114 64.638 27.958C65.92 27.902 65.926 25.9 64.638 25.958C50.65 26.578 36.566 26.062 22.576 25.69C20.572 25.636 18.568 25.59 16.566 25.508C15.28 25.456 15.282 27.456 16.566 27.508Z" fill="#231F20"/>
<path d="M16.382 21.352C28.928 21.864 41.506 22.126 54.062 22.132C57.588 22.134 61.116 22.116 64.638 21.96C65.92 21.904 65.926 19.902 64.638 19.96C50.582 20.582 36.422 19.98 22.368 19.554C20.372 19.494 18.378 19.436 16.382 19.354C15.096 19.298 15.098 21.298 16.382 21.352Z" fill="#231F20"/>
<path d="M38.618 38.728C47.284 38.528 55.952 38.33 64.618 38.13C65.902 38.1 65.908 36.1 64.618 36.13C55.952 36.33 47.284 36.528 38.618 36.728C37.332 36.758 37.328 38.758 38.618 38.728Z" fill="#231F20"/>
<path d="M39.554 45.378C47.728 45.512 55.902 45.368 64.064 44.94C65.344 44.874 65.352 42.872 64.064 42.94C55.9 43.366 47.726 43.512 39.554 43.378C38.268 43.358 38.268 45.358 39.554 45.378Z" fill="#231F20"/>
<path d="M40.128 52.094C48.298 51.984 56.468 51.874 64.638 51.764C65.924 51.746 65.928 49.746 64.638 49.764C56.468 49.874 48.298 49.984 40.128 50.094C38.842 50.112 38.838 52.112 40.128 52.094Z" fill="#231F20"/>
<path d="M17.904 60.016C25.404 60.952 32.964 61.234 40.514 60.862C41.796 60.798 41.802 58.798 40.514 58.862C32.966 59.234 25.404 58.95 17.904 58.016C16.63 57.858 16.642 59.86 17.904 60.016Z" fill="#231F20"/>
<path d="M17.732 66.668C21.342 67.156 25.084 67.028 28.718 67.146C33.076 67.286 37.552 67.268 41.87 67.944C43.13 68.142 43.672 66.214 42.402 66.016C38.096 65.34 33.664 65.308 29.316 65.166C27.01 65.09 24.704 65.028 22.398 64.948C21.122 64.904 19.208 64.868 18.262 64.74C17.006 64.57 16.462 66.496 17.732 66.668Z" fill="#231F20"/>
<path d="M17.924 73.396C25.89 72.882 33.876 72.78 41.852 73.094C43.14 73.144 43.136 71.144 41.852 71.094C33.876 70.78 25.89 70.882 17.924 71.396C16.646 71.48 16.638 73.48 17.924 73.396Z" fill="#231F20"/>
<path d="M78.392 45.1655C78.44 45.2395 78.454 45.3335 78.514 45.3995C78.656 45.6175 78.842 45.7895 79.076 45.9155C79.236 45.9835 79.394 46.0495 79.554 46.1175C79.908 46.2135 80.262 46.2135 80.618 46.1175C80.778 46.0495 80.936 45.9835 81.096 45.9155C81.396 45.7375 81.636 45.4995 81.814 45.1975C81.89 45.0355 81.964 44.8735 82.022 44.7055C82.024 44.7015 82.024 44.6955 82.026 44.6915C82.026 44.6875 82.028 44.6855 82.028 44.6815C82.052 44.5035 82.076 44.3275 82.1 44.1495C82.1 44.1435 82.102 44.1355 82.1 44.1295C82.082 43.6495 82.016 43.4915 81.814 43.0675C81.81 43.0575 81.804 43.0475 81.798 43.0395C81.7 42.8955 81.594 42.7555 81.478 42.6255C81.474 42.6215 81.472 42.6175 81.468 42.6155C81.178 42.3535 80.918 42.1755 80.534 42.0735C80.268 41.9895 80.002 41.9775 79.736 42.0375C79.47 42.0495 79.222 42.1295 78.992 42.2755C78.758 42.4015 78.572 42.5735 78.43 42.7915C78.254 42.9855 78.134 43.2115 78.072 43.4715C78.048 43.6495 78.024 43.8255 78 44.0035C78.002 44.3655 78.092 44.7015 78.274 45.0135C78.31 45.0595 78.352 45.1115 78.392 45.1655ZM78.146 44.4915C78.13 44.3715 78.114 44.2535 78.098 44.1335C78.106 44.0735 78.114 44.0135 78.122 43.9555C78.086 44.1335 78.118 44.3135 78.146 44.4915ZM78.132 43.8875C78.144 43.8035 78.154 43.7175 78.166 43.6335C78.23 43.4815 78.294 43.3295 78.358 43.1775C78.218 43.3975 78.148 43.6355 78.132 43.8875Z" fill="#FF9600"/>
<path d="M76.392 51.1655C76.44 51.2395 76.454 51.3335 76.514 51.3995C76.656 51.6175 76.842 51.7895 77.076 51.9155C77.236 51.9835 77.394 52.0495 77.554 52.1175C77.908 52.2135 78.262 52.2135 78.618 52.1175C78.778 52.0495 78.936 51.9835 79.096 51.9155C79.396 51.7375 79.636 51.4995 79.814 51.1975C79.89 51.0355 79.964 50.8735 80.022 50.7055C80.024 50.7015 80.024 50.6955 80.026 50.6915C80.026 50.6875 80.028 50.6855 80.028 50.6815C80.052 50.5035 80.076 50.3275 80.1 50.1495C80.1 50.1435 80.102 50.1355 80.1 50.1295C80.082 49.6495 80.016 49.4915 79.814 49.0675C79.81 49.0575 79.804 49.0475 79.798 49.0395C79.7 48.8955 79.594 48.7555 79.478 48.6255C79.474 48.6215 79.472 48.6175 79.468 48.6155C79.178 48.3535 78.918 48.1755 78.534 48.0735C78.268 47.9895 78.002 47.9775 77.736 48.0375C77.47 48.0495 77.222 48.1295 76.992 48.2755C76.758 48.4015 76.572 48.5735 76.43 48.7915C76.254 48.9855 76.134 49.2115 76.072 49.4715C76.048 49.6495 76.024 49.8255 76 50.0035C76.002 50.3655 76.092 50.7015 76.274 51.0135C76.31 51.0595 76.352 51.1115 76.392 51.1655ZM76.146 50.4915C76.13 50.3715 76.114 50.2535 76.098 50.1335C76.106 50.0735 76.114 50.0135 76.122 49.9555C76.086 50.1335 76.118 50.3135 76.146 50.4915ZM76.132 49.8875C76.144 49.8035 76.154 49.7175 76.166 49.6335C76.23 49.4815 76.294 49.3295 76.358 49.1775C76.218 49.3975 76.148 49.6355 76.132 49.8875Z" fill="#FF9600"/>
<path d="M74.392 57.1655C74.44 57.2395 74.454 57.3335 74.514 57.3995C74.656 57.6175 74.842 57.7895 75.076 57.9155C75.236 57.9835 75.394 58.0495 75.554 58.1175C75.908 58.2135 76.262 58.2135 76.618 58.1175C76.778 58.0495 76.936 57.9835 77.096 57.9155C77.396 57.7375 77.636 57.4995 77.814 57.1975C77.89 57.0355 77.964 56.8735 78.022 56.7055C78.024 56.7015 78.024 56.6955 78.026 56.6915C78.026 56.6875 78.028 56.6855 78.028 56.6815C78.052 56.5035 78.076 56.3275 78.1 56.1495C78.1 56.1435 78.102 56.1355 78.1 56.1295C78.082 55.6495 78.016 55.4915 77.814 55.0675C77.81 55.0575 77.804 55.0475 77.798 55.0395C77.7 54.8955 77.594 54.7555 77.478 54.6255C77.474 54.6215 77.472 54.6175 77.468 54.6155C77.178 54.3535 76.918 54.1755 76.534 54.0735C76.268 53.9895 76.002 53.9775 75.736 54.0375C75.47 54.0495 75.222 54.1295 74.992 54.2755C74.758 54.4015 74.572 54.5735 74.43 54.7915C74.254 54.9855 74.134 55.2115 74.072 55.4715C74.048 55.6495 74.024 55.8255 74 56.0035C74.002 56.3655 74.092 56.7015 74.274 57.0135C74.31 57.0595 74.352 57.1115 74.392 57.1655ZM74.146 56.4915C74.13 56.3715 74.114 56.2535 74.098 56.1335C74.106 56.0735 74.114 56.0135 74.122 55.9555C74.086 56.1335 74.118 56.3135 74.146 56.4915ZM74.132 55.8875C74.144 55.8035 74.154 55.7175 74.166 55.6335C74.23 55.4815 74.294 55.3295 74.358 55.1775C74.218 55.3975 74.148 55.6355 74.132 55.8875Z" fill="#FF9600"/>
<path d="M0.994268 19.7295C1.98627 20.4275 2.97827 21.1275 3.97027 21.8255C4.20027 21.9715 4.44827 22.0515 4.71427 22.0635C4.98027 22.1235 5.24627 22.1115 5.51227 22.0275C5.97627 21.8995 6.47827 21.5415 6.70827 21.1075C6.95427 20.6435 7.07627 20.0815 6.91027 19.5655C6.84227 19.4055 6.77627 19.2475 6.70827 19.0875C6.53027 18.7875 6.29227 18.5475 5.99027 18.3695C4.99627 17.6735 4.00627 16.9735 3.01427 16.2755C2.78427 16.1295 2.53627 16.0495 2.27027 16.0375C2.00427 15.9775 1.73827 15.9895 1.47227 16.0735C1.00827 16.2015 0.506268 16.5595 0.278268 16.9935C0.0322679 17.4575 -0.0897323 18.0195 0.0762677 18.5355C0.144268 18.6955 0.210268 18.8535 0.278268 19.0135C0.454268 19.3115 0.694268 19.5515 0.994268 19.7295Z" fill="#DF4BB1"/>
<path d="M3.586 12.4151C4.032 12.8291 4.48 13.2451 4.926 13.6591C5.108 13.8551 5.322 13.9911 5.57 14.0731C5.808 14.1991 6.064 14.2551 6.34 14.2451C6.616 14.2551 6.872 14.1991 7.11 14.0731C7.358 13.9931 7.572 13.8551 7.754 13.6591C7.858 13.5251 7.962 13.3891 8.066 13.2551C8.246 12.9431 8.338 12.6071 8.34 12.2451C8.316 12.0691 8.292 11.8911 8.268 11.7131C8.174 11.3751 8.002 11.0811 7.754 10.8311C7.308 10.4171 6.86 10.0011 6.414 9.58713C6.232 9.39113 6.018 9.25313 5.77 9.17313C5.532 9.04713 5.274 8.99113 5 9.00113C4.724 8.99113 4.468 9.04713 4.228 9.17313C3.98 9.25313 3.766 9.39113 3.584 9.58713C3.48 9.72113 3.376 9.85713 3.272 9.99113C3.092 10.3031 3 10.6391 3 11.0011C3.024 11.1791 3.048 11.3551 3.072 11.5331C3.166 11.8711 3.338 12.1651 3.586 12.4151Z" fill="#DF4BB1"/>
<path d="M6.26679 3.01065C6.80679 3.84265 7.33079 4.68465 7.83679 5.53865C8.09479 5.97265 8.54479 6.32265 9.03279 6.45865C9.29679 6.54065 9.56279 6.55265 9.82879 6.49265C10.0948 6.48065 10.3428 6.40265 10.5728 6.25665C11.0008 5.98065 11.3768 5.57065 11.4928 5.06065C11.6128 4.53665 11.5708 3.99065 11.2908 3.51865C10.7848 2.66665 10.2608 1.82465 9.72079 0.99265C9.43879 0.55865 9.03279 0.21265 8.52479 0.0726501C8.26079 -0.0113499 7.99479 -0.0213497 7.72879 0.0366503C7.46279 0.0486503 7.21479 0.12865 6.98479 0.27465C6.55679 0.55065 6.18079 0.96065 6.06479 1.47065C5.94879 1.98065 5.97279 2.55865 6.26679 3.01065Z" fill="#DF4BB1"/>
</svg>
