<svg width="84" height="84" viewBox="0 0 84 84" fill="none" xmlns="http://www.w3.org/2000/svg">
<path d="M69.218 39.09C69.254 39.068 69.29 39.044 69.326 39.022C69.56 38.896 69.746 38.724 69.888 38.506C70.064 38.312 70.184 38.086 70.246 37.826C70.33 37.56 70.342 37.294 70.282 37.028C70.27 36.762 70.19 36.514 70.044 36.284C69.94 36.15 69.836 36.014 69.732 35.88C69.482 35.632 69.188 35.46 68.85 35.366C68.672 35.342 68.496 35.318 68.318 35.294C67.956 35.296 67.62 35.386 67.308 35.568C67.272 35.59 67.236 35.614 67.2 35.636C66.966 35.762 66.78 35.934 66.638 36.152C66.462 36.346 66.342 36.572 66.28 36.832C66.196 37.098 66.184 37.364 66.244 37.63C66.256 37.896 66.336 38.144 66.482 38.374C66.586 38.508 66.69 38.644 66.794 38.778C67.044 39.026 67.338 39.198 67.676 39.292C67.854 39.316 68.03 39.34 68.208 39.364C68.57 39.362 68.906 39.272 69.218 39.09Z" fill="#454360"/>
<path d="M4.666 30.566C5.33 31.742 6.316 32.658 7.366 33.48C8.312 34.22 9.298 34.93 10.054 35.874C10.354 36.248 11.012 36.46 11.468 36.46C11.958 36.46 12.544 36.242 12.882 35.874C13.232 35.492 13.492 34.992 13.468 34.46C13.444 34.282 13.42 34.106 13.396 33.928C13.3 33.59 13.13 33.296 12.882 33.046C11.56 31.4 9.552 30.486 8.254 28.82C8.358 28.954 8.462 29.09 8.566 29.224C8.402 29.008 8.252 28.782 8.118 28.546C7.604 27.634 6.28 27.25 5.382 27.828C4.462 28.424 4.116 29.592 4.666 30.566Z" fill="#99C93C"/>
<path d="M2.676 42.506C2.858 42.472 3.04 42.438 3.222 42.408C3.34 42.388 3.902 42.25 3.398 42.38C3.696 42.304 4.038 42.312 4.346 42.29C5.032 42.244 5.72 42.236 6.406 42.268C6.722 42.282 7.04 42.306 7.356 42.336C7.412 42.342 8.022 42.416 7.72 42.374C7.418 42.334 8.026 42.424 8.082 42.434C8.76 42.55 9.43 42.706 10.09 42.896C11.096 43.184 12.312 42.544 12.55 41.5C12.792 40.434 12.23 39.348 11.154 39.04C8.04 38.146 4.788 38.046 1.614 38.648C0.584 38.844 -0.0959996 40.138 0.218 41.108C0.572 42.208 1.572 42.714 2.676 42.506Z" fill="#99C93C"/>
<path d="M10.564 45.732C9.16 46.902 7.96 48.336 7.012 49.898C6.746 50.338 6.674 50.948 6.81 51.44C6.938 51.904 7.296 52.406 7.73 52.636C8.194 52.882 8.756 53.004 9.272 52.838C9.774 52.676 10.19 52.376 10.468 51.918C10.76 51.438 11.076 50.976 11.418 50.53C11.314 50.664 11.21 50.8 11.106 50.934C11.782 50.062 12.548 49.268 13.394 48.562C13.766 48.252 13.98 47.614 13.98 47.148C13.98 46.658 13.762 46.072 13.394 45.734C13.012 45.384 12.512 45.124 11.98 45.148C11.802 45.172 11.626 45.196 11.448 45.22C11.108 45.312 10.814 45.484 10.564 45.732Z" fill="#99C93C"/>
<path d="M67.166 81.738C68.4 82.396 69.54 82.87 70.984 83.198C72.28 83.492 74.106 83.476 75.27 83.214C75.63 83.132 75.986 83.034 76.338 82.922C76.444 82.888 77.278 82.566 76.958 82.708C77.336 82.542 77.704 82.344 78.058 82.132C78.162 82.07 78.992 81.52 78.742 81.71C81.266 79.8 82.08 77.16 82.072 74.26C82.068 73.032 81.936 71.774 81.724 70.538C81.212 69.392 80.584 68.294 79.902 67.262C77.778 64.054 75.382 61.004 73.04 57.954C68.17 51.61 63.06 45.458 57.78 39.452C60.086 37.73 62.374 35.988 64.622 34.192C68.334 31.228 72.018 28.176 75.42 24.856C78.506 21.846 81.29 18.364 82.524 14.166C82.93 12.784 83.132 11.29 83.112 9.80999C83.344 8.51599 83.318 7.19199 82.738 6.06999C82.488 4.72399 81.882 3.49399 80.664 2.62399C77.896 0.643994 73.442 2.55599 70.754 3.83399C67.11 5.56599 63.95 8.30799 60.732 10.704C57.456 13.144 54.178 15.578 50.948 18.078C48.076 20.302 45.274 22.612 42.536 25C38.51 20.45 34.374 16.002 30.02 11.76C26.066 7.90599 21.822 4.12199 16.712 1.88199C12.506 0.0379943 7.018 -0.574006 3.796 3.39799C0.0400002 8.03399 1.9 14.186 5.222 18.446C5.246 18.476 5.276 18.48 5.3 18.506C10.234 27.744 18.438 34.44 27.044 40.566C19.898 47.022 13.496 54.208 8.632 62.648C7.348 64.876 6.264 67.252 6.616 69.884C6.844 71.586 7.576 73.09 8.66 74.34C9.148 75.464 9.842 76.456 10.87 77.138C14.33 79.432 18.334 75.774 20.888 73.682C24.432 70.782 27.742 67.584 31.168 64.544C34.742 61.37 38.35 58.234 41.99 55.136C42.466 54.732 42.948 54.336 43.43 53.94C47.034 58.968 50.702 63.952 54.652 68.716C57.166 71.746 59.794 74.682 62.584 77.46C64.05 78.918 65.568 80.38 67.166 81.738Z" fill="#454360"/>
<path d="M27.984 39.724C32.798 35.262 37.612 30.8 42.426 26.338C43.372 25.462 41.956 24.05 41.012 24.924C36.198 29.386 31.384 33.848 26.57 38.31C25.624 39.186 27.04 40.598 27.984 39.724Z" fill="#231F20"/>
<path d="M45.464 54.562C49.51 50.226 54.512 46.864 58.254 42.232C58.596 41.808 58.66 41.232 58.254 40.818C57.906 40.464 57.178 40.398 56.84 40.818C53.098 45.45 48.096 48.81 44.05 53.148C43.172 54.088 44.584 55.506 45.464 54.562Z" fill="#231F20"/>
<path d="M9.388 9.612C9.85 9.662 9.322 9.666 9.246 9.59C9.302 9.646 9.596 9.65 9.68 9.668C9.968 9.724 10.254 9.792 10.536 9.87C10.82 9.946 11.1 10.032 11.378 10.128C11.518 10.176 11.654 10.23 11.792 10.278C12.254 10.444 11.69 10.286 11.688 10.226C11.692 10.32 13.11 10.928 13.274 11.02C13.82 11.33 14.35 11.67 14.862 12.032C14.988 12.12 15.112 12.21 15.236 12.302C15.292 12.342 15.706 12.652 15.398 12.42C15.092 12.19 15.5 12.504 15.554 12.548C15.676 12.646 15.796 12.746 15.916 12.846C16.394 13.248 16.86 13.664 17.318 14.088C18.262 14.968 19.168 15.888 20.074 16.806C21.176 17.926 23.226 17.994 24.316 16.806C25.422 15.6 25.492 13.758 24.316 12.564C22.248 10.462 20.146 8.402 17.708 6.722C15.208 4.998 12.402 3.936 9.388 3.608C7.822 3.438 6.32 5.11 6.388 6.608C6.468 8.384 7.71 9.43 9.388 9.612Z" fill="white"/>
</svg>
