<svg width="92" height="90" viewBox="0 0 92 90" fill="none" xmlns="http://www.w3.org/2000/svg">
<path d="M10.206 7.184C8.52799 8.016 6.84799 8.844 5.16999 9.68C3.72599 10.4 2.34999 11.306 2.02399 13.004C1.79199 14.22 2.21999 15.42 2.99399 16.342C1.81999 17.058 0.825986 18.1 0.769986 19.558C0.703986 21.322 1.69999 22.518 3.05999 23.308C1.64599 24.516 0.493986 25.976 0.483986 27.684C0.461986 31.63 5.69399 31.608 8.41199 31.056C9.47199 30.842 10.08 29.586 9.80799 28.596C9.50599 27.494 8.40999 26.984 7.34799 27.2C6.54399 27.364 5.70199 27.406 4.88599 27.286C4.86999 27.284 4.85799 27.278 4.84399 27.276C6.03399 26.178 7.17799 25.182 8.59799 24.338C10.402 23.264 9.49199 20.778 7.58799 20.61C6.86799 20.548 6.07599 20.4 5.42399 20.084C5.41999 20.082 5.21999 19.944 5.03199 19.808C5.60799 19.502 6.67399 18.94 6.79799 18.886C7.66199 18.506 8.54999 18.186 9.44599 17.888C10.386 17.576 11.03 16.702 10.878 15.694C10.746 14.814 9.91199 13.834 8.91399 13.96C8.75599 13.98 8.57199 14.01 8.38399 14.04C8.38399 14.038 8.38399 14.034 8.38199 14.032C8.37199 14.034 8.35799 14.04 8.34599 14.044C7.64999 14.152 6.81999 14.258 6.26999 13.958C6.21599 13.928 6.12599 13.824 6.04999 13.738C6.05199 13.738 6.05199 13.736 6.05399 13.736C6.33399 13.726 6.92999 13.264 7.18999 13.136C7.72999 12.868 8.26799 12.6 8.80799 12.334C9.94599 11.77 11.086 11.206 12.224 10.64C14.53 9.494 12.506 6.042 10.206 7.184ZM4.49399 27.652C4.53399 27.806 4.41799 27.808 4.49399 27.652ZM4.70799 19.544C4.77399 19.52 4.78999 19.562 4.78799 19.62C4.73999 19.582 4.69999 19.546 4.70799 19.544Z" fill="#454360"/>
<path d="M75.252 15.452C74.984 13.596 74.046 11.912 72.108 11.444C71.07 11.192 69.93 11.282 68.874 11.274C67.438 11.26 66 11.254 64.562 11.252C61.686 11.25 58.81 11.268 55.936 11.306C44.674 11.456 33.416 11.918 22.18 12.692C20.12 12.834 17.78 12.83 16.104 14.216C14.368 15.652 13.852 18.05 13.566 20.172C13.212 22.794 13.276 25.454 13.26 28.094C13.244 30.876 13.226 33.66 13.21 36.442C13.172 42.85 13.132 49.256 13.094 55.664C12.742 59.662 12.39 63.658 12.046 67.656C11.806 70.442 11.568 73.23 11.332 76.016C11.144 78.232 10.788 80.526 11.17 82.74C11.518 84.752 12.656 86.414 14.548 87.252C16.62 88.168 19.11 88.222 21.332 88.46C26.872 89.054 32.438 89.402 38.01 89.51C43.502 89.616 49 89.486 54.482 89.12C57.3 88.932 60.116 88.682 62.924 88.37C64.172 88.232 65.418 88.08 66.664 87.916C67.694 87.78 68.982 87.814 69.818 87.106C70.584 86.454 70.864 85.296 71.194 84.392C71.66 83.114 72.072 81.816 72.43 80.504C73.108 78.01 73.578 75.468 73.868 72.9C74.486 67.424 74.394 61.86 74.516 56.358C74.764 45.134 75.012 33.908 75.26 22.684C75.31 20.308 75.592 17.81 75.252 15.452Z" fill="#FF4C60"/>
<path d="M20.314 84.812C36.014 85.238 51.72 85.5 67.426 85.596C71.288 85.62 71.292 79.62 67.426 79.596C51.72 79.5 36.016 79.24 20.314 78.812C16.452 78.706 16.454 84.706 20.314 84.812Z" fill="white"/>
<path d="M20.754 16.336C19.486 37.018 18.044 57.688 16.428 78.344C16.328 79.628 18.328 79.62 18.428 78.344C20.044 57.688 21.486 37.016 22.754 16.336C22.832 15.052 20.832 15.056 20.754 16.336Z" fill="#231F20"/>
<path d="M37.472 56.686C37.826 54.048 39.25 51.642 40.992 49.666C42.64 47.796 44.776 46.416 47.362 46.724C49.768 47.012 51.922 48.522 53.264 50.5C53.97 51.542 54.5 52.682 54.88 53.88C55.076 54.5 55.236 55.13 55.366 55.766C55.42 56.032 55.468 56.298 55.512 56.566C55.542 56.744 55.568 56.924 55.592 57.104C55.552 57.584 55.736 57.576 56.144 57.08C56.554 57.312 56.964 57.546 57.374 57.778C57.366 57.752 57.36 57.724 57.352 57.698C57.018 56.456 55.088 56.984 55.424 58.23C55.432 58.256 55.438 58.284 55.446 58.31C55.58 58.81 56.164 59.182 56.676 59.008C58.232 58.482 57.536 56.422 57.296 55.234C56.978 53.672 56.47 52.142 55.732 50.726C54.296 47.974 51.842 45.748 48.794 44.966C45.694 44.172 42.73 45.186 40.446 47.346C38.048 49.612 35.99 52.85 35.546 56.152C35.376 57.412 37.302 57.958 37.472 56.686Z" fill="#231F20"/>
<path d="M36.408 57.588C42.766 58.35 49.156 58.822 55.558 59.004C56.846 59.04 56.844 57.04 55.558 57.004C49.156 56.822 42.768 56.348 36.408 55.588C35.132 55.434 35.144 57.436 36.408 57.588Z" fill="#231F20"/>
<path d="M42.076 37.834C42.67 40.282 44.852 42.14 47.332 42.456C49.886 42.78 52.48 41.406 53.812 39.234C55.336 36.748 54.928 33.638 52.724 31.718C51.712 30.838 50.452 30.04 49.152 29.678C47.864 29.32 46.514 29.528 45.352 30.172C42.48 31.764 41.392 35.382 42.212 38.44C42.544 39.682 44.474 39.154 44.14 37.908C43.612 35.94 44.102 33.694 45.698 32.348C46.334 31.812 47.15 31.456 47.992 31.494C49.024 31.542 50.022 32.188 50.844 32.766C51.584 33.284 52.29 33.992 52.58 34.868C52.882 35.786 52.77 36.808 52.376 37.682C51.64 39.316 49.924 40.486 48.122 40.508C46.204 40.53 44.456 39.158 44.006 37.302C43.702 36.052 41.772 36.582 42.076 37.834Z" fill="#231F20"/>
<path d="M79.802 12.246C81.278 11.154 82.854 10.206 84.512 9.41202C84.942 9.20602 85.308 8.66202 85.432 8.21602C85.564 7.73802 85.504 7.10002 85.23 6.67402C84.954 6.24602 84.544 5.87202 84.034 5.75402C83.486 5.63202 83 5.71602 82.494 5.95802C80.838 6.75002 79.26 7.69802 77.784 8.79202C77.35 9.11202 77.014 9.44802 76.864 9.98802C76.732 10.466 76.792 11.104 77.066 11.53C77.342 11.958 77.752 12.332 78.262 12.45C78.754 12.56 79.378 12.56 79.802 12.246Z" fill="#399BDF"/>
<path d="M80.192 19.254C81.742 19.312 83.292 19.414 84.836 19.564C85.578 19.636 86.318 19.718 87.056 19.812C87.168 19.826 87.624 19.886 87.262 19.838C87.446 19.864 87.63 19.89 87.816 19.916C88.246 19.978 88.676 20.044 89.104 20.112C90.132 20.276 91.306 19.848 91.564 18.716C91.782 17.756 91.272 16.432 90.168 16.256C86.864 15.728 83.536 15.38 80.192 15.256C79.146 15.216 78.144 16.204 78.192 17.256C78.242 18.372 79.07 19.212 80.192 19.254Z" fill="#399BDF"/>
<path d="M72.498 8.30401C73.926 6.92401 75.354 5.54401 76.782 4.16401C77.146 3.81201 77.368 3.25401 77.368 2.75001C77.368 2.26001 77.15 1.67401 76.782 1.33601C76.4 0.98601 75.9 0.72601 75.366 0.75001C74.83 0.77401 74.344 0.95801 73.952 1.33601C72.524 2.71601 71.096 4.09601 69.668 5.47601C69.304 5.82801 69.082 6.38601 69.082 6.89001C69.082 7.38001 69.3 7.96601 69.668 8.30401C70.05 8.65401 70.55 8.91401 71.082 8.89001C71.618 8.86601 72.106 8.68201 72.498 8.30401Z" fill="#399BDF"/>
</svg>
