<svg width="76" height="85" viewBox="0 0 76 85" fill="none" xmlns="http://www.w3.org/2000/svg">
<path d="M72.674 35.372C69.216 31.554 65.706 27.782 62.224 23.986C58.796 20.25 55.366 16.514 51.938 12.778C50.25 10.94 48.564 9.102 46.876 7.264C45.376 5.63 43.884 3.438 41.834 2.468C38.064 0.679996 33.892 2.748 31.254 5.51C28.166 8.746 25.43 12.314 22.334 15.554C19.1 18.938 15.718 22.182 12.204 25.276C8.942 28.15 5.006 30.682 2.444 34.244C0.142 37.446 -0.394 41.822 1.452 45.362C2.902 48.142 5.73 49.876 8.744 50.498C8.824 55 8.902 59.504 8.982 64.006C9.056 68.228 8.508 73.14 10.28 77.098C11.894 80.706 15.576 82.534 19.246 83.394C23.576 84.408 28.17 84.524 32.596 84.65C37.67 84.794 42.754 84.666 47.812 84.252C50.47 84.034 53.276 83.694 55.762 82.656C57.58 82.434 59.364 82.004 61.062 81.184C64.668 79.444 66.848 76.278 67.318 72.326C67.572 70.194 67.432 68.028 67.376 65.888C67.314 63.514 67.246 61.142 67.148 58.77C66.998 55.14 66.776 51.514 66.412 47.9C69.138 47.372 72.442 47.328 74.546 45.25C77.718 42.116 75.052 37.998 72.674 35.372Z" fill="#CC5DE8"/>
<path d="M59.824 56.546C59.882 54.36 60.124 52.086 59.922 49.904C59.762 48.178 59.1 46.468 57.358 45.814C56.282 45.41 55.054 45.456 53.92 45.418C52.58 45.372 51.238 45.35 49.896 45.348C48.438 45.346 46.222 45.424 44.438 45.498C42.728 45.57 41.292 46.804 40.966 48.484C40.574 50.514 40.112 53.104 40.036 54.422C39.926 56.328 40.056 58.538 40.702 60.386C41.428 62.466 43.254 63.046 45.268 63.33C47.574 63.654 49.904 63.748 52.228 63.574C53.306 63.492 54.38 63.358 55.446 63.174C56.418 63.006 57.526 62.876 58.384 62.344C60.222 61.206 59.776 58.372 59.824 56.546Z" fill="white"/>
<path d="M58 52.798C55.904 52.798 53.81 52.882 51.722 53.012C51.858 51.346 52.032 49.684 52.146 48.016C52.234 46.732 50.234 46.736 50.146 48.016C50.028 49.73 49.85 51.44 49.71 53.152C47.412 53.342 45.12 53.6 42.838 53.944C42.3 54.024 42.014 54.698 42.14 55.174C42.292 55.748 42.838 55.952 43.37 55.872C45.418 55.564 47.476 55.338 49.54 55.164C49.386 56.932 49.268 58.702 49.09 60.466C49.036 61.004 49.588 61.466 50.09 61.466C50.676 61.466 51.036 61.006 51.09 60.466C51.274 58.65 51.396 56.83 51.554 55.012C53.7 54.874 55.85 54.794 58.002 54.796C59.286 54.798 59.29 52.798 58 52.798Z" fill="#231F20"/>
<path d="M61.668 41.136C56.364 38.752 51.692 34.802 48.222 30.152C44.484 25.142 41.862 19.368 39.244 13.726C38.936 13.062 37.832 13.082 37.518 13.726C34.012 20.896 29.234 27.75 23.724 33.504C21.306 36.028 18.676 38.344 15.75 40.266C14.678 40.97 15.68 42.702 16.76 41.992C25.878 36.006 32.718 26.62 37.948 17.186C38.078 16.952 38.196 16.71 38.324 16.474C40.8 21.8 43.386 27.152 46.986 31.81C50.574 36.45 55.286 40.45 60.656 42.864C61.824 43.386 62.842 41.664 61.668 41.136Z" fill="#231F20"/>
<path d="M19.958 75.994C19.95 71.758 19.71 67.524 19.534 63.294C19.446 61.2 19.364 59.104 19.328 57.008C19.292 54.932 18.918 52.3 20.372 50.614C21.99 48.736 24.7 48.526 27.008 48.636C28.088 48.688 29.322 48.772 30.22 49.446C31.136 50.134 31.516 51.266 31.742 52.342C32.126 54.162 32.126 56.092 32.278 57.942C32.448 60 32.63 62.056 32.814 64.114C33.226 68.742 33.664 73.368 34 78C34.092 79.276 36.094 79.286 36 78C35.664 73.368 35.226 68.742 34.814 64.116C34.606 61.774 34.398 59.432 34.208 57.088C34.04 55.006 34.066 52.786 33.4 50.788C32.66 48.574 31.034 47.178 28.724 46.802C26.264 46.4 23.436 46.476 21.158 47.578C19.126 48.562 17.732 50.35 17.43 52.596C17.124 54.876 17.32 57.28 17.394 59.574C17.568 65.048 17.948 70.518 17.96 75.996C17.962 77.282 19.962 77.284 19.958 75.994Z" fill="#231F20"/>
<path d="M31.188 12.16C31.328 11.088 30.168 10.16 29.188 10.16C27.99 10.16 27.33 11.084 27.188 12.16C27.032 13.352 26.15 14.638 24.892 14.81C24.844 14.816 24.786 14.812 24.732 14.812C24.462 13.262 23.936 11.73 22.7 10.73C21.824 10.02 20.118 9.836 19.558 11.134C18.536 13.51 19.256 16.036 21.012 17.52C21.028 18.336 20.946 19.158 20.65 19.902C20.216 20.99 19.51 21.314 18.412 21.304C18.392 20.714 18.346 20.126 18.25 19.552C17.88 17.346 15.266 16.31 13.56 17.892C12.034 19.306 12.34 21.708 13.53 23.212C13.72 23.452 13.958 23.632 14.182 23.832C13.982 24.808 13.66 25.748 13.124 26.594C12.788 27.126 11.94 28.372 11.224 28.404C10.37 28.44 9.774 26.876 9.472 26.29C8.296 24 4.844 26.02 6.018 28.308C6.92 30.066 8.128 31.782 10.158 32.282C12.176 32.778 14.036 31.646 15.362 30.206C16.622 28.836 17.486 27.13 17.97 25.312C20.216 25.42 22.546 24.506 23.74 22.612C24.464 21.468 24.81 20.132 24.932 18.776C28.464 18.584 30.748 15.518 31.188 12.16Z" fill="#399BDF"/>
<path d="M45.9695 11.7076C47.2935 12.4476 48.5615 13.2816 49.7635 14.2056C49.6295 14.1016 49.4935 13.9976 49.3595 13.8936C50.2075 14.5496 51.0215 15.2496 51.7975 15.9896C52.5555 16.7116 53.8835 16.7996 54.6255 15.9896C55.3435 15.2076 55.4355 13.9316 54.6255 13.1616C52.6315 11.2616 50.3935 9.59764 47.9895 8.25564C47.0755 7.74564 45.7635 8.00564 45.2535 8.97364C44.7535 9.91564 44.9935 11.1636 45.9695 11.7076Z" fill="#399BDF"/>
<path d="M51.2552 3.00772C52.5872 5.54972 53.9172 8.09172 55.2492 10.6337C55.7352 11.5617 57.1072 11.9177 57.9852 11.3517C58.9312 10.7417 59.2232 9.60772 58.7032 8.61572C57.3712 6.07372 56.0412 3.53172 54.7092 0.989718C54.2232 0.0617185 52.8512 -0.294281 51.9732 0.271719C51.0272 0.881719 50.7352 2.01572 51.2552 3.00772Z" fill="#399BDF"/>
<path d="M28.094 64.736C29.38 64.736 29.384 62.736 28.094 62.736C26.808 62.736 26.806 64.736 28.094 64.736Z" fill="#231F20"/>
</svg>
