<svg width="94" height="70" viewBox="0 0 94 70" fill="none" xmlns="http://www.w3.org/2000/svg">
<path d="M84.992 9.174C85.056 4.988 81.876 3.068 77.788 2.168C75.138 1.462 72.136 1.382 69.362 1.276C63.362 1.044 57.356 0.896004 51.35 0.856004C46.822 0.826004 42.296 0.886003 37.772 0.994003C36.952 0.988003 36.132 0.974002 35.314 0.970002C30.28 0.940002 25.252 1.03 20.26 1.562C16.46 1.966 11.118 2.238 9.61 5.472C8.328 8.224 8.012 12.002 9.534 14.706C11.07 17.436 14.422 19.04 18.146 19.608C22.32 20.242 26.636 19.946 30.854 19.852C36.342 19.73 41.828 19.606 47.316 19.484C52.636 19.366 57.958 19.248 63.28 19.126C65.502 19.076 67.758 19.028 69.978 18.82C70.584 18.814 71.19 18.816 71.794 18.8C75.554 18.698 79.634 18.05 82.212 15.776C83.618 14.536 84.49 13.01 84.642 11.452C84.864 10.682 84.98 9.906 84.992 9.174Z" fill="#454360"/>
<path d="M84.992 59.174C85.056 54.988 81.876 53.068 77.788 52.168C75.138 51.462 72.136 51.382 69.362 51.276C63.362 51.044 57.356 50.896 51.35 50.856C46.822 50.826 42.296 50.886 37.772 50.994C36.952 50.988 36.132 50.974 35.314 50.97C30.28 50.94 25.252 51.03 20.26 51.562C16.46 51.966 11.118 52.238 9.61 55.472C8.328 58.224 8.012 62.002 9.534 64.706C11.07 67.436 14.422 69.04 18.146 69.608C22.32 70.242 26.636 69.946 30.854 69.852C36.342 69.73 41.828 69.606 47.316 69.484C52.636 69.366 57.958 69.248 63.28 69.126C65.502 69.076 67.758 69.028 69.978 68.82C70.584 68.814 71.19 68.816 71.794 68.8C75.554 68.698 79.634 68.05 82.212 65.776C83.618 64.536 84.49 63.01 84.642 61.452C84.864 60.682 84.98 59.906 84.992 59.174Z" fill="#454360"/>
<path d="M8.51599 35.674C8.45199 39.86 11.634 41.778 15.72 42.68C18.37 43.386 21.372 43.466 24.146 43.572C30.146 43.804 36.152 43.952 42.158 43.992C46.686 44.022 51.212 43.962 55.736 43.854C56.556 43.86 57.376 43.874 58.194 43.878C63.228 43.908 68.256 43.818 73.248 43.286C77.048 42.882 82.39 42.61 83.898 39.376C85.18 36.624 85.496 32.846 83.974 30.142C82.438 27.412 79.086 25.808 75.362 25.24C71.188 24.606 66.872 24.902 62.654 24.996C57.166 25.118 51.68 25.242 46.192 25.364C40.872 25.482 35.55 25.6 30.228 25.722C28.006 25.772 25.75 25.82 23.53 26.028C22.924 26.034 22.318 26.032 21.714 26.048C17.954 26.15 13.874 26.798 11.296 29.072C9.88999 30.312 9.01799 31.838 8.86599 33.396C8.64399 34.164 8.52799 34.94 8.51599 35.674Z" fill="#454360"/>
<path d="M17.994 36.282C20.982 35.48 23.934 35.392 27.106 35.234C30.46 35.068 33.816 34.944 37.172 34.86C38.74 34.82 40.246 33.508 40.172 31.86C40.1 30.268 38.852 28.818 37.172 28.86C33.684 28.948 30.196 29.076 26.712 29.254C23.258 29.43 19.756 29.596 16.4 30.496C14.836 30.916 13.878 32.632 14.304 34.186C14.736 35.764 16.424 36.704 17.994 36.282Z" fill="white"/>
<path d="M71.4 65.634C73.654 65.616 75.99 65.246 77.952 64.072C79.692 63.032 81.094 61.38 81.59 59.39C81.902 58.142 79.974 57.608 79.662 58.858C78.754 62.496 74.694 63.606 71.4 63.634C70.114 63.644 70.11 65.644 71.4 65.634Z" fill="#231F20"/>
<path d="M12.948 9.62601C13.346 7.91601 14.966 7.01201 16.55 6.59801C18.634 6.05401 20.86 5.94001 22.992 5.67801C23.528 5.61201 23.992 5.26601 23.992 4.67801C23.992 4.18801 23.532 3.61201 22.992 3.67801C21.68 3.84001 20.368 4.00001 19.056 4.16201C17.848 4.31201 16.624 4.45401 15.462 4.83001C13.43 5.48801 11.524 6.92001 11.018 9.09401C10.728 10.346 12.656 10.88 12.948 9.62601Z" fill="#231F20"/>
<path d="M86.14 49.032C86.66 48.554 87.19 48.088 87.732 47.636C88.004 47.41 88.278 47.188 88.556 46.97C88.604 46.932 88.84 46.75 88.6 46.934C88.358 47.12 88.596 46.938 88.644 46.9C88.792 46.786 88.942 46.674 89.092 46.564C90.228 45.724 91.408 44.946 92.624 44.23C93.526 43.698 93.928 42.404 93.342 41.494C92.756 40.586 91.57 40.208 90.606 40.776C87.992 42.316 85.542 44.148 83.312 46.204C82.54 46.916 82.538 48.322 83.312 49.032C84.136 49.79 85.316 49.792 86.14 49.032Z" fill="#FF9600"/>
<path d="M87.77 53.858C88.402 53.958 89.018 54.134 89.606 54.382C89.446 54.314 89.288 54.248 89.128 54.18C89.238 54.228 89.346 54.276 89.454 54.328C89.684 54.474 89.932 54.554 90.198 54.566C90.464 54.626 90.73 54.614 90.996 54.53C91.256 54.468 91.482 54.348 91.676 54.172C91.894 54.03 92.066 53.844 92.192 53.61C92.438 53.146 92.56 52.584 92.394 52.068C92.326 51.908 92.26 51.75 92.192 51.59C92.014 51.29 91.776 51.05 91.474 50.872C90.632 50.47 89.758 50.144 88.834 49.998C88.568 49.914 88.302 49.902 88.036 49.962C87.77 49.974 87.522 50.054 87.292 50.2C87.058 50.326 86.872 50.498 86.73 50.716C86.554 50.91 86.434 51.136 86.372 51.396C86.348 51.574 86.324 51.75 86.3 51.928C86.302 52.29 86.392 52.626 86.574 52.938C86.678 53.072 86.782 53.208 86.886 53.342C87.138 53.592 87.432 53.764 87.77 53.858Z" fill="#FF9600"/>
<path d="M0.644 19.066C0.796 19.426 0.926 19.778 1.152 20.094C1.372 20.404 1.608 20.71 1.878 20.98C2.242 21.344 2.656 21.65 3.062 21.964C4.014 22.702 4.964 23.438 5.916 24.176C6.098 24.372 6.312 24.508 6.56 24.59C6.798 24.716 7.056 24.772 7.33 24.762C7.82 24.762 8.406 24.544 8.744 24.176C9.094 23.794 9.354 23.294 9.33 22.762C9.308 22.272 9.152 21.664 8.744 21.348C7.942 20.726 7.138 20.104 6.336 19.482C5.65 18.95 4.9 18.448 4.36 17.76C4.464 17.894 4.568 18.03 4.672 18.164C4.538 17.984 4.422 17.796 4.328 17.592C4.396 17.752 4.462 17.91 4.53 18.07C4.52 18.046 4.51 18.024 4.5 18C4.438 17.74 4.318 17.514 4.142 17.32C4 17.102 3.814 16.93 3.58 16.804C3.152 16.554 2.52 16.446 2.038 16.602C1.554 16.758 1.088 17.058 0.842 17.522C0.614 17.964 0.442 18.584 0.644 19.066Z" fill="#FF9600"/>
<path d="M4.812 31.026C5.028 30.792 5.262 30.576 5.514 30.38C5.38 30.484 5.244 30.588 5.11 30.692C5.494 30.396 5.914 30.152 6.36 29.962C6.2 30.03 6.042 30.096 5.882 30.164C6 30.114 6.118 30.068 6.238 30.028C6.498 29.966 6.724 29.846 6.918 29.67C7.136 29.528 7.308 29.342 7.434 29.108C7.58 28.878 7.66 28.63 7.672 28.364C7.732 28.098 7.72 27.832 7.636 27.566C7.48 27.082 7.18 26.616 6.716 26.37C6.258 26.128 5.682 25.992 5.174 26.168C4.576 26.374 3.978 26.634 3.448 26.982C3.12 27.198 2.808 27.442 2.508 27.694C2.322 27.85 2.148 28.018 1.984 28.196C1.628 28.584 1.398 29.076 1.398 29.61C1.388 29.886 1.446 30.142 1.57 30.38C1.65 30.628 1.788 30.842 1.984 31.024C2.366 31.374 2.866 31.634 3.398 31.61C3.916 31.588 4.452 31.418 4.812 31.026Z" fill="#FF9600"/>
</svg>
