<svg width="652" height="1548" viewBox="0 0 652 1548" fill="none" xmlns="http://www.w3.org/2000/svg">
<path d="M475.738 700.52C441.02 743.711 388.781 752.57 333.359 753.148L333.32 768.84C352.102 772.531 365.648 788.988 365.66 808.129C365.641 827.359 351.969 843.859 333.078 847.449L330.961 1547.36C409.309 1344.63 460.609 1237.88 651.59 1045.58C545.5 913.172 517.469 841.719 475.738 700.52Z" fill="#424E5E"/>
<path d="M176.828 700.52C135.09 841.719 107.059 913.172 0.96875 1045.58C191.949 1237.88 243.262 1344.63 321.609 1547.36L319.488 847.66C299.988 844.641 285.59 827.871 285.559 808.129C285.57 788.48 299.852 771.73 319.25 768.609L319.199 753.148C263.789 752.57 211.551 743.711 176.828 700.52Z" fill="#424E5E"/>
<path d="M59.3594 475.719C49.6407 475.859 41.879 483.852 42.0196 493.57C42.0196 567.078 71.2305 637.59 123.199 689.57C175.18 741.551 245.699 770.762 319.199 770.762C392.711 770.762 463.231 741.551 515.199 689.57C567.18 637.59 596.391 567.078 596.391 493.57C596.481 487.219 593.141 481.32 587.66 478.109C582.172 474.91 575.391 474.91 569.898 478.109C564.422 481.32 561.078 487.219 561.172 493.57C561.172 557.75 535.68 619.289 490.301 664.672C444.922 710.051 383.379 735.539 319.199 735.539C255.02 735.539 193.488 710.051 148.109 664.672C102.719 619.289 77.2383 557.75 77.2383 493.57C77.3008 488.809 75.4415 484.23 72.0704 480.871C68.711 477.5 64.1211 475.641 59.3594 475.719Z" fill="#424E5E"/>
<path d="M244.922 0.449307C345.84 1.57821 437.609 31.7501 536.789 70.8087C538.988 71.6798 540.828 73.2892 541.98 75.3595C606.84 190.371 630.949 334.09 546.129 440.121L527.77 434.359L519.398 312.762L500.398 334.449C497.23 338.09 491.969 339.051 487.719 336.75L197.109 179.09L109.078 276.41L99.1718 439.352C98.8593 444.461 94.8515 448.57 89.7383 449C84.6406 449.422 80 446.031 78.8515 441.039C49.8711 314.922 30.8398 235 40.0781 172.719C49.6211 108.481 88.6015 64.0509 168.691 6.41024C170.078 5.41024 171.699 4.76962 173.398 4.55087C197.871 1.46884 221.641 0.191494 244.922 0.449307Z" fill="#424E5E"/>
</svg>
