<svg width="1473" height="1617" viewBox="0 0 1473 1617" fill="none" xmlns="http://www.w3.org/2000/svg">
<path d="M1428.65 596.359H43.7109V509.41H1428.65V596.359Z" fill="#424E5E"/>
<path d="M384.75 381.328C348.738 381.328 319.539 352.141 319.539 316.121V66.1211C319.539 30.1094 348.738 0.910156 384.75 0.910156C420.77 0.910156 449.969 30.1094 449.969 66.1211V316.121C449.969 352.141 420.77 381.328 384.75 381.328Z" fill="#424E5E"/>
<path d="M985.43 238.039V151.09H486.93V238.039H985.43Z" fill="#424E5E"/>
<path d="M1322.73 151.09H1189.78V238.039H1322.73C1357.16 238.039 1385.18 266.059 1385.18 300.488V1466.79C1385.18 1501.22 1357.16 1529.23 1322.73 1529.23H149.629C115.199 1529.23 87.1797 1501.22 87.1797 1466.79V300.488C87.1797 266.059 115.199 238.039 149.629 238.039H282.578V151.09H149.629C67.25 151.09 0.230469 218.109 0.230469 300.488V1466.79C0.230469 1549.17 67.25 1616.19 149.629 1616.19H1322.73C1405.11 1616.19 1472.13 1549.17 1472.13 1466.79V300.488C1472.13 218.109 1405.11 151.09 1322.73 151.09Z" fill="#424E5E"/>
<path d="M1087.61 381.328C1051.59 381.328 1022.39 352.141 1022.39 316.121V66.1211C1022.39 30.1094 1051.59 0.910156 1087.61 0.910156C1123.62 0.910156 1152.82 30.1094 1152.82 66.1211V316.121C1152.82 352.141 1123.62 381.328 1087.61 381.328Z" fill="#424E5E"/>
<path d="M371.078 1369.29H255.738C250.078 1369.29 245.488 1364.7 245.488 1359.04V1243.7C245.488 1238.04 250.078 1233.45 255.738 1233.45H371.078C376.738 1233.45 381.328 1238.04 381.328 1243.7V1359.04C381.328 1364.7 376.738 1369.29 371.078 1369.29Z" fill="#424E5E"/>
<path d="M652.93 1369.29H537.578C531.922 1369.29 527.328 1364.7 527.328 1359.04V1243.7C527.328 1238.04 531.922 1233.45 537.578 1233.45H652.93C658.59 1233.45 663.18 1238.04 663.18 1243.7V1359.04C663.18 1364.7 658.59 1369.29 652.93 1369.29Z" fill="#424E5E"/>
<path d="M934.77 1369.29H819.43C813.77 1369.29 809.18 1364.7 809.18 1359.04V1243.7C809.18 1238.04 813.77 1233.45 819.43 1233.45H934.77C940.441 1233.45 945.031 1238.04 945.031 1243.7V1359.04C945.031 1364.7 940.441 1369.29 934.77 1369.29Z" fill="#424E5E"/>
<path d="M1216.62 1369.29H1101.28C1095.62 1369.29 1091.03 1364.7 1091.03 1359.04V1243.7C1091.03 1238.04 1095.62 1233.45 1101.28 1233.45H1216.62C1222.28 1233.45 1226.87 1238.04 1226.87 1243.7V1359.04C1226.87 1364.7 1222.28 1369.29 1216.62 1369.29Z" fill="#424E5E"/>
<path d="M371.078 1128.07H255.738C250.078 1128.07 245.488 1123.48 245.488 1117.82V1002.48C245.488 996.809 250.078 992.219 255.738 992.219H371.078C376.738 992.219 381.328 996.809 381.328 1002.48V1117.82C381.328 1123.48 376.738 1128.07 371.078 1128.07Z" fill="#424E5E"/>
<path d="M652.93 1128.07H537.578C531.922 1128.07 527.328 1123.48 527.328 1117.82V1002.48C527.328 996.809 531.922 992.219 537.578 992.219H652.93C658.59 992.219 663.18 996.809 663.18 1002.48V1117.82C663.18 1123.48 658.59 1128.07 652.93 1128.07Z" fill="#424E5E"/>
<path d="M934.77 1128.07H819.43C813.77 1128.07 809.18 1123.48 809.18 1117.82V1002.48C809.18 996.809 813.77 992.219 819.43 992.219H934.77C940.441 992.219 945.031 996.809 945.031 1002.48V1117.82C945.031 1123.48 940.441 1128.07 934.77 1128.07Z" fill="#424E5E"/>
<path d="M1216.62 1128.07H1101.28C1095.62 1128.07 1091.03 1123.48 1091.03 1117.82V1002.48C1091.03 996.809 1095.62 992.219 1101.28 992.219H1216.62C1222.28 992.219 1226.87 996.809 1226.87 1002.48V1117.82C1226.87 1123.48 1222.28 1128.07 1216.62 1128.07Z" fill="#424E5E"/>
<path d="M652.93 886.852H537.578C531.922 886.852 527.328 882.262 527.328 876.602V761.262C527.328 755.59 531.922 751 537.578 751H652.93C658.59 751 663.18 755.59 663.18 761.262V876.602C663.18 882.262 658.59 886.852 652.93 886.852Z" fill="#424E5E"/>
<path d="M934.77 886.852H819.43C813.77 886.852 809.18 882.262 809.18 876.602V761.262C809.18 755.59 813.77 751 819.43 751H934.77C940.441 751 945.031 755.59 945.031 761.262V876.602C945.031 882.262 940.441 886.852 934.77 886.852Z" fill="#424E5E"/>
<path d="M1216.62 886.852H1101.28C1095.62 886.852 1091.03 882.262 1091.03 876.602V761.262C1091.03 755.59 1095.62 751 1101.28 751H1216.62C1222.28 751 1226.87 755.59 1226.87 761.262V876.602C1226.87 882.262 1222.28 886.852 1216.62 886.852Z" fill="#424E5E"/>
</svg>
