<svg width="82" height="91" viewBox="0 0 82 91" fill="none" xmlns="http://www.w3.org/2000/svg">
<path d="M58.2459 4.95021C56.6879 3.76421 55.0619 2.67021 53.3699 1.68421C51.8639 0.806214 50.2099 -0.293786 48.4299 0.480214C44.1119 2.35621 46.3779 7.94021 46.4759 11.3882C46.6099 16.1522 45.1499 20.9142 42.5399 24.9182C41.7479 25.7462 40.9879 26.6042 40.1599 27.3942C38.6799 28.8042 37.0739 30.5522 35.2739 31.5402C32.3739 33.1302 32.1559 29.0022 31.9159 27.1782C31.6519 25.1542 31.6159 22.8702 30.8119 20.9722C29.5839 18.0762 26.8599 17.5722 24.4839 18.7442C23.7299 18.9662 23.0279 19.4482 22.4799 20.0482C21.1219 21.5322 20.2039 23.5242 19.2699 25.2862C18.1979 27.3082 17.2219 29.3782 16.3439 31.4902C12.9479 39.6642 11.1739 48.7182 12.6779 57.5302C13.9519 65.0102 17.6339 72.3302 23.4599 77.2882C30.1959 83.0202 39.1279 84.6142 47.7499 83.9322C51.9599 83.5982 56.1539 82.7162 59.9699 80.8542C63.8479 78.9622 66.9479 75.9862 69.4239 72.4862C74.4699 65.3522 77.2679 56.6062 77.8839 47.9282C79.0599 31.2782 71.4839 15.0342 58.2459 4.95021Z" fill="#FF0700"/>
<path d="M20.7779 33.8742C17.5599 41.0262 16.6039 48.7922 18.0439 56.5082C18.3419 58.1022 20.2659 59.0062 21.7339 58.6042C23.4059 58.1442 24.1279 56.5122 23.8299 54.9142C22.7339 49.0402 23.4799 42.4182 25.9599 36.9042C26.6239 35.4282 26.3859 33.6782 24.8839 32.8002C23.5999 32.0462 21.4459 32.3882 20.7779 33.8742Z" fill="white"/>
<path d="M54.426 77.5062C59.638 75.8422 64.102 72.1302 66.628 67.2682C67.22 66.1282 65.496 65.1142 64.902 66.2582C62.612 70.6622 58.63 74.0662 53.894 75.5762C52.672 75.9682 53.194 77.9002 54.426 77.5062Z" fill="#231F20"/>
<path d="M71.486 83.3584C75.302 79.2724 78.588 74.6904 81.202 69.7484C81.706 68.7944 81.444 67.5744 80.484 67.0124C79.58 66.4844 78.254 66.7724 77.748 67.7304C75.252 72.4504 72.262 76.6724 68.658 80.5324C67.922 81.3224 67.876 82.5784 68.658 83.3604C69.404 84.1044 70.746 84.1504 71.486 83.3584Z" fill="#DF4BB1"/>
<path d="M74.818 89.9356C76.774 87.7456 78.73 85.5536 80.686 83.3636C81.382 82.5836 81.512 81.2936 80.686 80.5356C79.924 79.8376 78.602 79.7016 77.858 80.5356C75.902 82.7256 73.946 84.9176 71.99 87.1076C71.294 87.8876 71.164 89.1776 71.99 89.9356C72.75 90.6356 74.074 90.7696 74.818 89.9356Z" fill="#DF4BB1"/>
<path d="M7.95788 44.1084C8.16188 40.1324 9.32788 36.0284 11.2839 32.4784C11.7879 31.5624 11.5379 30.2544 10.5659 29.7424C9.62788 29.2464 8.36788 29.4804 7.82988 30.4604C5.51388 34.6624 4.20388 39.3184 3.95788 44.1084C3.90388 45.1544 4.91588 46.1544 5.95788 46.1084C7.08788 46.0584 7.89988 45.2304 7.95788 44.1084Z" fill="#99C93C"/>
<path d="M4.60402 32.9715C4.75002 32.3255 4.93402 31.6895 5.16202 31.0675C5.34202 30.5795 5.51203 30.1975 5.85003 29.5595C6.15803 28.9755 6.49803 28.4095 6.86203 27.8595C7.03603 27.5975 7.21602 27.3375 7.40002 27.0835C7.50202 26.9415 7.60802 26.7995 7.71402 26.6595C7.94802 26.3495 7.42802 27.0075 7.85602 26.4795C9.56002 24.3715 11.508 22.4935 13.482 20.6435C14.27 19.9055 14.228 18.5615 13.482 17.8155C12.696 17.0295 11.444 17.0755 10.654 17.8155C6.45802 21.7475 2.06602 26.0995 0.748025 31.9095C0.516025 32.9275 1.05802 34.1215 2.14402 34.3695C3.16202 34.5995 4.35602 34.0615 4.60402 32.9715Z" fill="#99C93C"/>
</svg>
