<svg width="337" height="558" viewBox="0 0 337 558" fill="none" xmlns="http://www.w3.org/2000/svg">
<path d="M191.078 190.899C177.602 192.571 152.879 185.5 147.32 183.77C138.352 180.969 127.641 180.2 117.211 180.45C112.82 180.551 110.238 185.422 112.629 189.102L158.648 260.172L160.641 263.231C160.691 263.321 160.731 263.41 160.77 263.489L163.879 268.219L164.328 267.602L165.551 265.95L215.059 197.282C217.941 193.282 214.629 187.782 209.75 188.45C202.059 189.512 195.219 190.391 191.078 190.899Z" fill="#424E5E"/>
<path d="M266.41 447.578L266.398 447.469C265.949 441.66 261.398 437.012 255.602 436.441L185.219 429.48C176.398 428.602 169.59 421.34 169.281 412.48L165.441 301.852H164.328L160.48 412.781C160.172 421.551 153.488 428.77 144.77 429.75L80.9687 436.91C75.1797 437.559 70.6289 442.18 70.1094 447.98C69.4883 455 69.9687 462.109 71.6094 469.129C76.6406 490.691 91.6719 509.051 113.93 520.828C120.199 524.148 126.891 526.84 133.871 528.898H201.129C218.828 523.68 234.48 514.34 246.289 501.602C260.73 486.012 267.879 466.828 266.41 447.578Z" fill="#424E5E"/>
<path d="M78.6094 46.8398C61.5313 65.2695 53.1016 88.0703 54.8516 111.059C55.711 122.328 59.2696 133.57 65.4297 144.441L65.4883 144.559L151.82 277.852C153.16 279.91 155.91 280.5 157.981 279.16C160.039 277.828 160.629 275.07 159.289 273.012L73.1094 139.941C67.6407 130.25 64.4805 120.309 63.7305 110.379C62.1602 89.8984 69.7696 69.4805 85.1407 52.8906C94.5118 42.7812 106.16 34.6797 119.289 28.9102H100.34C92.2813 33.9805 84.9688 39.9805 78.6094 46.8398Z" fill="#424E5E"/>
<path d="M226 32.4219C249.68 44.9609 265.672 64.5 271.039 87.4414C275.871 108.148 271.32 129.559 258.211 147.73L165.43 276.398L71.0117 405.129C56.3789 425.422 51.3086 449.398 56.7383 472.648C62.0703 495.449 76.7188 515.141 98.3516 528.898H117.141C114.871 527.879 112.629 526.801 110.449 525.641C86.7617 513.102 70.7695 493.559 65.4102 470.621C60.5703 449.922 65.1289 428.512 78.2109 410.371L172.629 281.641L265.43 152.941C280.07 132.641 285.141 108.66 279.699 85.4219C274.34 62.4688 259.539 42.6719 237.691 28.9102H218.699C221.18 30 223.621 31.1602 226 32.4219Z" fill="#424E5E"/>
<path d="M257.84 511.231C274.91 492.801 283.352 469.989 281.59 447C280.73 435.731 277.172 424.5 271.019 413.621L270.84 413.309L175.801 294.328C174.269 292.41 171.469 292.09 169.551 293.629C167.629 295.16 167.309 297.961 168.852 299.879L263.441 418.309C268.84 427.949 271.969 437.828 272.719 447.68C274.281 468.172 266.68 488.59 251.309 505.172C242.07 515.141 230.621 523.149 217.719 528.899H236.519C244.41 523.879 251.59 517.969 257.84 511.231Z" fill="#424E5E"/>
<path d="M327.121 547.43C326.93 547.762 326.461 548.309 325.57 548.309H10.8711C9.98048 548.309 9.51954 547.762 9.32032 547.43C9.1211 547.102 8.85938 546.441 9.28126 545.648L13.9688 536.891C15.1289 534.699 17.3984 533.352 19.8711 533.352H316.57C319.051 533.352 321.309 534.699 322.48 536.891L327.172 545.648C327.59 546.441 327.32 547.102 327.121 547.43ZM65.6289 33.3594H270.809C280.988 33.3594 289.238 41.6094 289.238 51.7891V506.02C289.238 516.191 280.988 524.449 270.809 524.449H65.6289C55.4492 524.449 47.1992 516.191 47.1992 506.02V51.7891C47.1992 41.6094 55.4492 33.3594 65.6289 33.3594ZM13.9688 20.9219L9.28126 12.1602C8.85938 11.3711 9.1211 10.6992 9.32032 10.3711C9.51954 10.0391 9.98048 9.48828 10.8711 9.48828H325.57C326.461 9.48828 326.93 10.0391 327.121 10.3711C327.32 10.6992 327.59 11.3711 327.172 12.1602L322.48 20.9219C321.309 23.1016 319.051 24.4609 316.57 24.4609H19.8711C17.3984 24.4609 15.1289 23.1016 13.9688 20.9219ZM330.328 532.68C327.609 527.609 322.328 524.449 316.57 524.449C306.398 524.449 298.141 516.191 298.141 506.02V51.7891C298.141 41.6094 306.398 33.3594 316.57 33.3594C322.328 33.3594 327.609 30.1914 330.328 25.1211L335.02 16.3594C336.809 13 336.711 9.03906 334.738 5.76953C332.75 2.46094 329.012 0.589844 325.148 0.589844H11.2891C7.4297 0.589844 3.69141 2.46094 1.69923 5.76953C-0.269525 9.03906 -0.371088 13 1.42969 16.3594L6.1211 25.1211C8.82813 30.1914 14.1211 33.3594 19.8711 33.3594C30.0508 33.3594 38.3008 41.6094 38.3008 51.7891V506.02C38.3008 516.191 30.0508 524.449 19.8711 524.449C14.1211 524.449 8.82813 527.609 6.1211 532.68L1.60157 541.121C-0.269524 544.621 -0.289056 548.922 1.83985 552.27C3.82032 555.371 7.17188 557.211 10.8711 557.211H325.148C329.02 557.211 332.75 555.352 334.738 552.039C336.711 548.77 336.809 544.809 335.02 541.449L330.328 532.68Z" fill="#424E5E"/>
</svg>
