<svg width="1764" height="1764" viewBox="0 0 1764 1764" fill="none" xmlns="http://www.w3.org/2000/svg">
<path d="M271.379 0H1492.58C1642.92 0 1763.96 121.039 1763.96 271.379V1492.58C1763.96 1642.92 1642.92 1763.96 1492.58 1763.96H271.379C121.039 1763.96 0 1642.92 0 1492.58V271.379C0 121.039 121.039 0 271.379 0Z" fill="white"/>
<path d="M350.422 114.16H1413.55C1544.43 114.16 1649.8 219.531 1649.8 350.41V1413.54C1649.8 1544.43 1544.43 1649.8 1413.55 1649.8H350.422C219.531 1649.8 114.16 1544.43 114.16 1413.54V350.41C114.16 219.531 219.531 114.16 350.422 114.16Z" fill="#1F2937"/>
<path d="M451.43 260.07H1312.53C1418.54 260.07 1503.89 345.422 1503.89 451.43V1312.53C1503.89 1418.54 1418.54 1503.89 1312.53 1503.89H451.43C345.422 1503.89 260.07 1418.54 260.07 1312.53V451.43C260.07 345.422 345.422 260.07 451.43 260.07Z" fill="white"/>
<path d="M1078.71 521.199C1061.52 521.199 1044.34 527.789 1031.16 540.961C1004.82 567.301 1004.82 609.719 1031.16 636.059L1078.71 683.621L1031.16 731.172C1004.82 757.512 1004.82 799.93 1031.16 826.27C1057.51 852.609 1099.92 852.609 1126.27 826.27L1173.82 778.719L1221.37 826.27C1247.71 852.609 1290.13 852.609 1316.47 826.27C1342.82 799.93 1342.82 757.512 1316.47 731.172L1268.92 683.621L1316.47 636.059C1342.82 609.719 1342.82 567.301 1316.47 540.961C1290.13 514.621 1247.71 514.621 1221.37 540.961L1173.82 588.512L1126.27 540.961C1113.1 527.789 1095.9 521.199 1078.71 521.199Z" fill="#1F2937"/>
<path d="M491.742 521.199C474.551 521.199 457.371 527.789 444.191 540.961C417.852 567.301 417.852 609.719 444.191 636.059L491.742 683.621L444.191 731.172C417.852 757.512 417.852 799.93 444.191 826.27C470.539 852.609 512.949 852.609 539.301 826.27L586.852 778.719L634.402 826.27C660.742 852.609 703.16 852.609 729.5 826.27C755.852 799.93 755.852 757.512 729.5 731.172L681.949 683.621L729.5 636.059C755.852 609.719 755.852 567.301 729.5 540.961C703.16 514.621 660.742 514.621 634.402 540.961L586.852 588.512L539.301 540.961C526.129 527.789 508.93 521.199 491.742 521.199Z" fill="#1F2937"/>
<path d="M683.992 1160.27H1076.92V1281.82H683.992V1160.27Z" fill="#1F2937"/>
<path d="M469.152 1160.27H635.93V1281.82H469.152V1160.27Z" fill="#1F2937"/>
<path d="M1128.03 1160.27H1294.81V1281.82H1128.03V1160.27Z" fill="#1F2937"/>
</svg>
