<svg width="765" height="759" viewBox="0 0 765 759" fill="none" xmlns="http://www.w3.org/2000/svg">
<path d="M644.527 575.73H701.348C736.23 575.73 764.5 604.008 764.5 638.887V695.707C764.5 730.59 736.23 758.867 701.348 758.867H644.527C609.648 758.867 581.367 730.59 581.367 695.707V638.887C581.367 604.008 609.648 575.73 644.527 575.73Z" fill="#E5E7E4"/>
<path d="M353.84 575.73H410.66C445.539 575.73 473.82 604.008 473.82 638.887V695.707C473.82 730.59 445.539 758.867 410.66 758.867H353.84C318.957 758.867 290.68 730.59 290.68 695.707V638.887C290.68 604.008 318.957 575.73 353.84 575.73Z" fill="#E5E7E4"/>
<path d="M63.1484 575.73H119.969C154.848 575.73 183.129 604.008 183.129 638.887V695.707C183.129 730.59 154.848 758.867 119.969 758.867H63.1484C28.2695 758.867 0 730.59 0 695.707V638.887C0 604.008 28.2695 575.73 63.1484 575.73Z" fill="#E5E7E4"/>
<path d="M644.527 287.867H701.348C736.23 287.867 764.5 316.137 764.5 351.02V407.848C764.5 442.73 736.23 471 701.348 471H644.527C609.648 471 581.367 442.73 581.367 407.848V351.02C581.367 316.137 609.648 287.867 644.527 287.867Z" fill="#E5E7E4"/>
<path d="M353.84 287.867H410.66C445.539 287.867 473.82 316.137 473.82 351.02V407.848C473.82 442.73 445.539 471 410.66 471H353.84C318.957 471 290.68 442.73 290.68 407.848V351.02C290.68 316.137 318.957 287.867 353.84 287.867Z" fill="#E5E7E4"/>
<path d="M63.1484 287.867H119.969C154.848 287.867 183.129 316.137 183.129 351.02V407.848C183.129 442.73 154.848 471 119.969 471H63.1484C28.2695 471 0 442.73 0 407.848V351.02C0 316.137 28.2695 287.867 63.1484 287.867Z" fill="#E5E7E4"/>
<path d="M644.527 0H701.348C736.23 0 764.5 28.2773 764.5 63.1602V119.98C764.5 154.859 736.23 183.137 701.348 183.137H644.527C609.648 183.137 581.367 154.859 581.367 119.98V63.1602C581.367 28.2773 609.648 0 644.527 0Z" fill="#E5E7E4"/>
<path d="M353.84 0H410.66C445.539 0 473.82 28.2773 473.82 63.1602V119.98C473.82 154.859 445.539 183.137 410.66 183.137H353.84C318.957 183.137 290.68 154.859 290.68 119.98V63.1602C290.68 28.2773 318.957 0 353.84 0Z" fill="#E5E7E4"/>
<path d="M63.1484 0H119.969C154.848 0 183.129 28.2773 183.129 63.1602V119.98C183.129 154.859 154.848 183.137 119.969 183.137H63.1484C28.2695 183.137 0 154.859 0 119.98V63.1602C0 28.2773 28.2695 0 63.1484 0Z" fill="#E5E7E4"/>
</svg>
