<?xml version="1.0" encoding="UTF-8"?>
<svg xmlns="http://www.w3.org/2000/svg" xmlns:xlink="http://www.w3.org/1999/xlink" width="2401" height="2401" viewBox="0 0 2401 2401">
<path fill-rule="evenodd" fill="rgb(100%, 100%, 100%)" fill-opacity="1" d="M 0.285156 0.738281 L 2400.289062 0.738281 L 2400.289062 2400.742188 L 0.285156 2400.742188 L 0.285156 0.738281 "/>
<path fill-rule="evenodd" fill="rgb(85.15625%, 92.96875%, 94.921875%)" fill-opacity="1" d="M 702.484375 720.269531 C 784.152344 697.769531 899.152344 684.429688 991.234375 679.441406 C 1083.320312 674.429688 1152.480469 677.769531 1206.648438 700.269531 C 1260.820312 722.769531 1299.988281 764.429688 1319.988281 811.929688 C 1339.988281 859.441406 1340.820312 912.769531 1322.488281 961.519531 C 1304.148438 1010.269531 1266.648438 1054.441406 1230.820312 1092.769531 C 1194.980469 1131.101562 1160.820312 1163.601562 1152.480469 1201.101562 C 1144.148438 1238.601562 1161.648438 1281.101562 1208.320312 1304.851562 C 1254.988281 1328.601562 1330.820312 1333.601562 1406.648438 1327.351562 C 1482.488281 1321.101562 1558.320312 1303.601562 1618.320312 1303.601562 C 1678.320312 1303.601562 1722.488281 1321.101562 1752.898438 1345.691406 C 1783.320312 1370.269531 1799.988281 1401.9375 1808.320312 1430.6875 C 1816.648438 1459.4375 1816.648438 1485.269531 1807.070312 1512.351562 C 1797.488281 1539.4375 1778.320312 1567.769531 1721.648438 1602.769531 C 1664.988281 1637.769531 1570.820312 1679.4375 1485.398438 1702.769531 C 1399.980469 1726.101562 1323.320312 1731.105469 1246.648438 1713.605469 C 1169.980469 1696.105469 1093.320312 1656.101562 1024.148438 1624.019531 C 954.984375 1591.9375 893.316406 1567.769531 847.066406 1567.769531 C 800.816406 1567.769531 769.984375 1591.9375 762.484375 1617.769531 C 754.984375 1643.605469 770.816406 1671.101562 762.902344 1689.4375 C 754.984375 1707.769531 723.316406 1716.9375 667.902344 1710.6875 C 612.484375 1704.4375 533.316406 1682.769531 463.734375 1649.019531 C 394.148438 1615.269531 334.148438 1569.4375 291.648438 1519.4375 C 249.148438 1469.4375 224.148438 1415.269531 217.066406 1361.101562 C 192.476562 1173.078125 341.609375 1241.101562 465.5625 1073.398438 C 595.792969 897.199219 477.21875 782.328125 702.484375 720.269531 Z M 1659.148438 703.601562 C 1757.179688 703.601562 1836.648438 783.070312 1836.648438 881.101562 C 1836.648438 979.128906 1757.179688 1058.601562 1659.148438 1058.601562 C 1561.121094 1058.601562 1481.648438 979.128906 1481.648438 881.101562 C 1481.648438 783.070312 1561.121094 703.601562 1659.148438 703.601562 "/>
<path fill-rule="evenodd" fill="rgb(100%, 100%, 100%)" fill-opacity="1" d="M 521.558594 1433.285156 L 521.558594 1610.25 C 521.558594 1617.476562 518.597656 1624.058594 513.824219 1628.835938 L 513.8125 1628.847656 C 509.039062 1633.621094 502.453125 1636.585938 495.226562 1636.585938 L 350.257812 1636.710938 C 350.070312 1636.726562 349.882812 1636.710938 349.695312 1636.667969 C 349.410156 1636.613281 349.265625 1636.601562 348.972656 1636.585938 C 341.734375 1636.585938 335.148438 1633.617188 330.375 1628.847656 C 325.605469 1624.066406 322.636719 1617.480469 322.636719 1610.25 L 322.636719 1433.285156 C 322.636719 1432.253906 323.476562 1431.410156 324.511719 1431.410156 L 519.683594 1431.410156 C 520.71875 1431.410156 521.558594 1432.253906 521.558594 1433.285156 Z M 1938.261719 1490.804688 L 2125.300781 1490.804688 C 2126.328125 1490.804688 2127.171875 1491.644531 2127.171875 1492.679688 L 2127.171875 1515.351562 C 2127.171875 1516.386719 2126.328125 1517.226562 2125.300781 1517.226562 L 1938.261719 1517.226562 C 1937.230469 1517.226562 1936.390625 1516.386719 1936.390625 1515.351562 L 1936.390625 1492.679688 C 1936.390625 1491.644531 1937.230469 1490.804688 1938.261719 1490.804688 Z M 1976.589844 1460.539062 C 1981.121094 1467.160156 1984.539062 1474.546875 1987.730469 1483.328125 C 1987.839844 1483.5625 1987.898438 1483.824219 1987.898438 1484.101562 C 1987.898438 1485.136719 1987.058594 1485.976562 1986.019531 1485.976562 L 1982.808594 1485.976562 C 1982.289062 1485.972656 1981.761719 1485.75 1981.390625 1485.320312 C 1968.660156 1470.417969 1961.941406 1465.175781 1949.058594 1455.113281 C 1946.269531 1452.9375 1943.171875 1450.519531 1940.429688 1448.339844 C 1939.558594 1447.652344 1938.648438 1447.683594 1937.949219 1448.085938 C 1937.628906 1448.269531 1937.339844 1448.523438 1937.121094 1448.8125 C 1936.890625 1449.101562 1936.71875 1449.441406 1936.609375 1449.796875 C 1936.398438 1450.554688 1936.578125 1451.429688 1937.398438 1452.109375 L 1939.609375 1453.808594 C 1951.628906 1463.03125 1962.511719 1471.386719 1972.769531 1482.785156 C 1973.109375 1483.125 1973.308594 1483.589844 1973.308594 1484.101562 C 1973.308594 1485.136719 1972.46875 1485.976562 1971.441406 1485.976562 L 1951.089844 1485.976562 C 1950.71875 1485.972656 1950.351562 1485.863281 1950.019531 1485.640625 L 1942.980469 1480.910156 C 1937.058594 1476.992188 1929.671875 1472.09375 1925.289062 1467.539062 C 1913.511719 1455.3125 1910.191406 1445.164062 1905.679688 1431.363281 L 1904.03125 1426.347656 C 1903.921875 1426.082031 1903.871094 1425.785156 1903.898438 1425.480469 C 1903.980469 1424.449219 1904.890625 1423.679688 1905.921875 1423.765625 C 1915.390625 1424.554688 1924.660156 1426.316406 1933.511719 1429.304688 C 1942.390625 1432.300781 1950.820312 1436.539062 1958.589844 1442.277344 C 1966.308594 1447.980469 1972.011719 1453.855469 1976.589844 1460.539062 Z M 2018.921875 1434.597656 C 2020.089844 1437.988281 2021.179688 1441.175781 2021.75 1444.203125 C 2021.988281 1445.160156 2021.441406 1446.144531 2020.488281 1446.441406 C 2019.511719 1446.75 2018.460938 1446.199219 2018.148438 1445.210938 C 2006.859375 1409.382812 1996.980469 1393 1978.421875 1362.238281 L 1975.71875 1357.761719 C 1975.140625 1356.789062 1974.25 1356.480469 1973.441406 1356.609375 C 1973.101562 1356.660156 1972.761719 1356.800781 1972.441406 1356.988281 C 1972.148438 1357.160156 1971.890625 1357.371094 1971.691406 1357.621094 L 1971.628906 1357.699219 C 1971.140625 1358.359375 1971 1359.28125 1971.578125 1360.25 L 1974.75 1365.5 C 1992.789062 1395.421875 2002.429688 1411.402344 2013.558594 1446.714844 C 2013.828125 1447.585938 2013.421875 1448.550781 2012.578125 1448.957031 C 2008.808594 1450.761719 2007.75 1454.449219 2007.890625 1458.472656 C 2008.050781 1462.890625 2009.601562 1467.769531 2010.789062 1471.332031 C 2010.941406 1471.726562 2010.960938 1472.171875 2010.808594 1472.597656 C 2010.488281 1473.574219 2009.429688 1474.105469 2008.449219 1473.777344 C 2006.230469 1473.03125 2002.820312 1471.859375 1999.488281 1470.488281 C 1996.070312 1469.078125 1992.730469 1467.441406 1990.828125 1465.804688 C 1987.070312 1462.578125 1988.859375 1458.625 1991.019531 1453.871094 C 1991.960938 1451.800781 1992.988281 1449.539062 1993.519531 1447.246094 C 1995.941406 1436.757812 1985.460938 1433.804688 1978.210938 1431.757812 C 1975.769531 1431.074219 1973.648438 1430.472656 1972.191406 1429.691406 C 1969.851562 1428.429688 1967.539062 1426.082031 1965.859375 1423.523438 C 1964.128906 1420.898438 1963 1417.964844 1963.039062 1415.617188 C 1963.109375 1411.460938 1967.390625 1408.765625 1971.871094 1405.941406 C 1975.019531 1403.960938 1978.289062 1401.902344 1979.609375 1399.578125 C 1981.070312 1397 1980.179688 1394.871094 1978.429688 1393.179688 C 1976.320312 1391.140625 1973.03125 1389.601562 1970.539062 1388.558594 C 1968.871094 1387.859375 1967.46875 1387.320312 1966.289062 1386.859375 C 1959.820312 1384.339844 1959.070312 1384.039062 1958.191406 1378.03125 C 1957.109375 1370.660156 1955.160156 1364.160156 1953.320312 1358.039062 C 1951.578125 1352.238281 1949.929688 1346.78125 1949.179688 1341.078125 C 1948.929688 1339.230469 1948.53125 1333.550781 1948.78125 1329.101562 C 1948.949219 1326.070312 1949.5 1323.429688 1950.710938 1322.308594 C 1950.851562 1322.171875 1951.019531 1322.050781 1951.210938 1321.960938 C 1951.621094 1321.75 1952.078125 1321.699219 1952.519531 1321.730469 L 1952.570312 1321.730469 C 1952.910156 1321.75 1953.300781 1321.828125 1953.53125 1321.890625 L 1953.628906 1321.910156 C 1958.210938 1323.101562 1964.46875 1328.828125 1967.949219 1332.019531 L 1968.398438 1332.441406 C 1979.101562 1342.21875 1985.050781 1344 1990.050781 1345.488281 C 1993.128906 1346.410156 1995.890625 1347.230469 1999.128906 1349.519531 C 2004.308594 1353.179688 2004.039062 1358.730469 2003.71875 1365.210938 C 2003.5 1369.691406 2003.261719 1374.660156 2005.039062 1379.429688 C 2006.878906 1384.351562 2009.53125 1384.621094 2011.699219 1383.808594 C 2013.101562 1383.289062 2014.460938 1382.339844 2015.371094 1381.699219 C 2015.859375 1381.371094 2016.261719 1381.089844 2016.621094 1380.910156 L 2016.941406 1380.769531 C 2019.441406 1379.910156 2020.988281 1381.421875 2021.941406 1384.039062 L 2022.019531 1384.21875 C 2023.308594 1387.960938 2023.359375 1394.488281 2023.378906 1396.71875 L 2023.390625 1397.230469 C 2023.390625 1397.75 2023.179688 1398.28125 2022.75 1398.648438 C 2022.289062 1399.058594 2021.828125 1399.511719 2021.390625 1399.980469 C 2020.921875 1400.480469 2020.480469 1401 2020.078125 1401.523438 C 2011.410156 1412.707031 2015.488281 1424.59375 2018.921875 1434.597656 Z M 2127.820312 1448.085938 C 2127.109375 1447.679688 2126.160156 1447.667969 2125.238281 1448.398438 C 2122.550781 1450.53125 2119.53125 1452.882812 2116.78125 1455.03125 C 2103.871094 1465.117188 2097.121094 1470.386719 2084.421875 1485.226562 C 2084.078125 1485.683594 2083.539062 1485.976562 2082.921875 1485.976562 L 2079.71875 1485.976562 C 2079.511719 1485.972656 2079.289062 1485.9375 2079.078125 1485.859375 C 2078.109375 1485.507812 2077.609375 1484.433594 2077.960938 1483.464844 C 2078.75 1481.289062 2079.550781 1479.152344 2080.371094 1477.121094 C 2081.210938 1475.042969 2082.121094 1472.96875 2083.109375 1470.910156 C 2083.550781 1470.0625 2083.921875 1469.40625 2084.300781 1468.515625 C 2091.28125 1455.121094 2101.699219 1444.949219 2114 1437.679688 C 2127.660156 1429.605469 2143.648438 1425.113281 2159.820312 1423.765625 C 2160.070312 1423.75 2160.320312 1423.777344 2160.570312 1423.859375 C 2161.550781 1424.1875 2162.078125 1425.25 2161.75 1426.226562 C 2161.058594 1428.285156 2160.339844 1430.558594 2159.660156 1432.714844 C 2156.839844 1441.601562 2154.640625 1448.570312 2148.261719 1457.914062 C 2140.648438 1469.046875 2134.140625 1473.367188 2123.949219 1480.125 L 2115.839844 1485.558594 C 2115.511719 1485.820312 2115.101562 1485.976562 2114.660156 1485.976562 L 2094.300781 1485.976562 C 2093.851562 1485.976562 2093.410156 1485.816406 2093.050781 1485.492188 C 2092.28125 1484.804688 2092.21875 1483.617188 2092.910156 1482.851562 C 2103.191406 1471.417969 2114.089844 1463.046875 2126.128906 1453.808594 L 2128.25 1452.179688 C 2129.148438 1451.484375 2129.359375 1450.570312 2129.140625 1449.78125 C 2129.039062 1449.429688 2128.871094 1449.09375 2128.640625 1448.804688 C 2128.421875 1448.515625 2128.128906 1448.265625 2127.820312 1448.085938 Z M 2053.761719 1485.976562 L 2036.351562 1485.964844 C 2035.320312 1485.851562 2034.578125 1484.925781 2034.691406 1483.898438 C 2035.710938 1474.703125 2036.898438 1466.71875 2038.539062 1458.800781 C 2040.171875 1450.910156 2042.261719 1443.105469 2045.078125 1434.253906 C 2051.441406 1414.34375 2058.550781 1400.121094 2067.53125 1387.121094 C 2076.5 1374.128906 2087.289062 1362.441406 2101.050781 1347.519531 C 2101.820312 1346.691406 2101.871094 1345.75 2101.519531 1345.011719 C 2101.371094 1344.691406 2101.140625 1344.390625 2100.878906 1344.148438 C 2100.609375 1343.910156 2100.300781 1343.710938 2099.96875 1343.578125 C 2099.199219 1343.289062 2098.269531 1343.410156 2097.5 1344.238281 L 2069.011719 1376.941406 C 2057.058594 1392.480469 2048.320312 1409.628906 2042.039062 1427.707031 C 2035.75 1445.800781 2031.921875 1464.855469 2029.800781 1484.191406 C 2029.75 1485.183594 2028.929688 1485.976562 2027.921875 1485.976562 L 2022.789062 1485.976562 C 2022.03125 1485.972656 2021.320312 1485.503906 2021.039062 1484.753906 L 2014.910156 1468.378906 C 2011.5 1457.558594 2012.300781 1454.136719 2015.140625 1453.242188 C 2016.488281 1452.816406 2017.960938 1453.175781 2019.609375 1453.578125 C 2021.75 1454.101562 2024.351562 1454.734375 2025.871094 1452.796875 C 2028.941406 1448.878906 2025.621094 1439.160156 2022.898438 1431.214844 C 2021.730469 1427.773438 2020.648438 1424.636719 2020.191406 1422.203125 C 2019.46875 1418.339844 2019.648438 1413.949219 2020.921875 1410.0625 C 2022.058594 1406.527344 2024.109375 1403.375 2027.160156 1401.339844 C 2028.179688 1400.671875 2029.359375 1400.320312 2030.78125 1399.910156 C 2033.039062 1399.25 2036.03125 1398.371094 2039.261719 1395.539062 C 2045 1390.5 2044.5 1384.351562 2043.941406 1377.46875 C 2043.558594 1372.78125 2043.160156 1367.769531 2044.441406 1362.378906 C 2049.691406 1340.328125 2067.761719 1333.160156 2085.550781 1326.121094 C 2092.25 1323.46875 2098.921875 1320.820312 2104.671875 1317.449219 C 2105.589844 1316.910156 2107.089844 1315.929688 2108.839844 1314.789062 C 2114.269531 1311.261719 2122 1306.230469 2124.988281 1306.371094 L 2125.25 1306.390625 C 2126.101562 1306.539062 2126.75 1307.191406 2127.230469 1308 C 2127.699219 1308.78125 2128.109375 1309.828125 2128.21875 1310.148438 C 2130.03125 1315.511719 2129.96875 1323.078125 2128.921875 1330.890625 C 2127.578125 1340.789062 2124.640625 1351.171875 2121.929688 1357.75 C 2117.121094 1369.421875 2109.789062 1375.199219 2104.28125 1379.539062 C 2100.5 1382.511719 2097.699219 1384.71875 2097.699219 1387.449219 C 2097.699219 1390.410156 2100.949219 1391.25 2104.25 1392.089844 C 2107.160156 1392.839844 2110.109375 1393.601562 2112.058594 1395.648438 C 2112.328125 1395.941406 2112.578125 1396.261719 2112.800781 1396.609375 C 2114.808594 1399.75 2113.898438 1404.503906 2111.429688 1409.382812 C 2109.140625 1413.898438 2105.5 1418.652344 2101.730469 1422.234375 C 2100.109375 1423.769531 2098.441406 1425.109375 2096.828125 1426.136719 C 2094.261719 1427.777344 2090.839844 1428.984375 2087.199219 1430.265625 C 2079.171875 1433.097656 2069.910156 1436.359375 2068.949219 1445.089844 C 2068.339844 1450.625 2071.679688 1452.898438 2074.679688 1454.933594 C 2079.058594 1457.90625 2082.898438 1460.519531 2078.960938 1468.371094 C 2078.871094 1468.558594 2078.738281 1468.734375 2078.570312 1468.890625 L 2072.371094 1474.761719 C 2072.25 1474.90625 2072.101562 1475.035156 2071.929688 1475.140625 L 2054.75 1485.699219 C 2054.460938 1485.875 2054.121094 1485.976562 2053.761719 1485.976562 Z M 2021.75 1563.832031 C 2017.070312 1557.738281 2010.75 1549.523438 2002.121094 1550.675781 C 1995.210938 1551.601562 1991.5 1557.769531 1988.179688 1563.289062 C 1985.46875 1567.792969 1982.980469 1571.929688 1978.988281 1573.394531 C 1975.421875 1574.710938 1972.421875 1574.164062 1969.820312 1572.613281 C 1967.398438 1571.175781 1965.421875 1568.894531 1963.640625 1566.488281 C 1962.539062 1565.007812 1960.878906 1563.246094 1959.210938 1561.597656 C 1957.488281 1559.902344 1955.820312 1558.378906 1954.671875 1557.339844 C 1954.339844 1557.0625 1954.109375 1556.664062 1954.03125 1556.203125 L 1948.878906 1524.386719 C 1948.839844 1524.238281 1948.820312 1524.085938 1948.820312 1523.929688 C 1948.820312 1522.894531 1949.660156 1522.054688 1950.699219 1522.054688 L 2112.941406 1522.054688 L 2113.210938 1522.078125 C 2114.230469 1522.222656 2114.941406 1523.171875 2114.800781 1524.191406 L 2110.03125 1556.996094 C 2109.96875 1557.34375 2109.828125 1557.679688 2109.578125 1557.964844 C 2109.019531 1558.601562 2108.398438 1559.277344 2107.878906 1559.9375 C 2106.71875 1561.3125 2105.671875 1562.703125 2104.648438 1564.0625 C 2100.808594 1569.160156 2097.25 1573.882812 2091.53125 1574.0625 C 2084.558594 1574.285156 2081.640625 1569.261719 2078.308594 1563.535156 C 2076.058594 1559.675781 2073.601562 1555.449219 2069.519531 1552.785156 C 2058.671875 1545.707031 2049.761719 1557.085938 2044.019531 1564.421875 C 2041.988281 1567.015625 2040.308594 1569.164062 2038.828125 1570.179688 C 2037.21875 1571.289062 2035.171875 1571.84375 2033.148438 1571.84375 C 2031.128906 1571.84375 2029.078125 1571.289062 2027.46875 1570.179688 C 2025.691406 1568.953125 2023.871094 1566.585938 2021.75 1563.832031 Z M 2034.449219 1548.71875 C 2034.078125 1547.800781 2033.210938 1547.078125 2031.839844 1547.078125 C 2030.480469 1547.078125 2029.609375 1547.800781 2029.238281 1548.71875 C 2029.089844 1549.101562 2029.011719 1549.53125 2029.011719 1549.972656 C 2029.011719 1550.410156 2029.089844 1550.839844 2029.238281 1551.226562 C 2029.609375 1552.144531 2030.46875 1552.863281 2031.839844 1552.863281 C 2033.210938 1552.863281 2034.078125 1552.144531 2034.449219 1551.226562 C 2034.601562 1550.847656 2034.679688 1550.414062 2034.679688 1549.972656 C 2034.679688 1549.53125 2034.601562 1549.101562 2034.449219 1548.71875 Z M 1973.980469 1551.6875 C 1973.609375 1550.769531 1972.738281 1550.046875 1971.378906 1550.046875 C 1970.011719 1550.046875 1969.140625 1550.769531 1968.769531 1551.6875 C 1968.621094 1552.070312 1968.539062 1552.5 1968.539062 1552.941406 C 1968.539062 1553.378906 1968.621094 1553.808594 1968.769531 1554.191406 C 1969.140625 1555.113281 1970.011719 1555.832031 1971.378906 1555.832031 C 1972.738281 1555.832031 1973.609375 1555.113281 1973.980469 1554.191406 C 1974.128906 1553.8125 1974.210938 1553.382812 1974.210938 1552.941406 C 1974.210938 1552.5 1974.128906 1552.070312 1973.980469 1551.6875 Z M 2087.28125 1551.226562 C 2087.648438 1552.144531 2088.519531 1552.863281 2089.878906 1552.863281 C 2091.25 1552.863281 2092.121094 1552.144531 2092.488281 1551.226562 C 2092.640625 1550.847656 2092.71875 1550.414062 2092.71875 1549.972656 C 2092.71875 1549.53125 2092.640625 1549.101562 2092.488281 1548.71875 C 2092.121094 1547.800781 2091.25 1547.078125 2089.878906 1547.078125 C 2088.519531 1547.078125 2087.648438 1547.800781 2087.28125 1548.71875 C 2087.128906 1549.101562 2087.050781 1549.53125 2087.050781 1549.972656 C 2087.050781 1550.410156 2087.128906 1550.839844 2087.28125 1551.226562 Z M 1966.820312 1635.136719 L 1956.039062 1568.609375 C 1955.949219 1568 1956.148438 1567.355469 1956.648438 1566.917969 C 1957.421875 1566.234375 1958.601562 1566.308594 1959.289062 1567.078125 C 1960.039062 1567.9375 1960.738281 1568.78125 1961.429688 1569.628906 C 1964.660156 1573.582031 1967.929688 1577.589844 1974.660156 1577.800781 C 1983.660156 1578.085938 1988.019531 1570.886719 1991.800781 1564.648438 C 1995.738281 1558.144531 1999.148438 1552.519531 2006.328125 1554.734375 C 2011.378906 1556.289062 2014.550781 1560.546875 2017.839844 1564.945312 C 2021.71875 1570.152344 2025.78125 1575.59375 2033.148438 1575.59375 C 2040.519531 1575.59375 2044.578125 1570.152344 2048.46875 1564.945312 C 2051.75 1560.550781 2054.929688 1556.289062 2059.96875 1554.734375 C 2067.140625 1552.519531 2070.671875 1558.304688 2074.691406 1564.867188 C 2077.648438 1569.699219 2080.910156 1575.035156 2086.019531 1576.914062 C 2089.53125 1578.203125 2092.738281 1578.136719 2095.628906 1577.105469 C 2099.011719 1575.898438 2102.019531 1573.363281 2104.589844 1570.113281 C 2104.988281 1569.613281 2105.640625 1569.328125 2106.320312 1569.425781 C 2107.339844 1569.570312 2108.058594 1570.519531 2107.910156 1571.542969 L 2098.691406 1634.992188 C 2098.609375 1635.957031 2097.800781 1636.71875 2096.820312 1636.71875 L 1968.660156 1636.71875 C 1967.761719 1636.714844 1966.96875 1636.058594 1966.820312 1635.136719 Z M 2004.601562 1576.21875 C 2004.238281 1575.300781 2003.371094 1574.578125 2002 1574.578125 C 2000.628906 1574.578125 1999.769531 1575.300781 1999.398438 1576.21875 C 1999.25 1576.601562 1999.171875 1577.03125 1999.171875 1577.472656 C 1999.171875 1577.910156 1999.25 1578.34375 1999.398438 1578.726562 C 1999.769531 1579.644531 2000.628906 1580.363281 2002 1580.363281 C 2003.371094 1580.363281 2004.238281 1579.644531 2004.601562 1578.726562 C 2004.761719 1578.347656 2004.828125 1577.914062 2004.828125 1577.472656 C 2004.828125 1577.03125 2004.761719 1576.601562 2004.601562 1576.21875 Z M 2057.28125 1578.484375 C 2057.648438 1579.402344 2058.511719 1580.121094 2059.878906 1580.121094 C 2061.25 1580.121094 2062.121094 1579.402344 2062.488281 1578.484375 C 2062.640625 1578.105469 2062.71875 1577.675781 2062.71875 1577.230469 C 2062.71875 1576.789062 2062.640625 1576.359375 2062.488281 1575.976562 C 2062.121094 1575.058594 2061.25 1574.339844 2059.878906 1574.339844 C 2058.519531 1574.339844 2057.648438 1575.058594 2057.28125 1575.976562 C 2057.128906 1576.359375 2057.050781 1576.789062 2057.050781 1577.230469 C 2057.050781 1577.671875 2057.128906 1578.101562 2057.28125 1578.484375 Z M 1670.96875 1600.140625 C 1680.609375 1591.476562 1693.328125 1586.214844 1707.128906 1586.214844 L 1803.96875 1586.214844 C 1817.769531 1586.214844 1830.488281 1591.476562 1840.128906 1600.140625 C 1849.769531 1608.804688 1856.328125 1620.882812 1857.808594 1634.511719 L 1857.839844 1634.84375 C 1857.839844 1635.878906 1857 1636.71875 1855.96875 1636.71875 L 1654.941406 1636.703125 C 1653.910156 1636.59375 1653.160156 1635.671875 1653.269531 1634.644531 C 1654.730469 1620.960938 1661.308594 1608.835938 1670.96875 1600.140625 Z M 1072.320312 1509.679688 L 1260.679688 1509.679688 C 1261.710938 1509.6875 1262.550781 1510.527344 1262.550781 1511.554688 C 1262.53125 1515.691406 1262.488281 1519.96875 1262.460938 1524.332031 C 1262.289062 1541.851562 1262.121094 1560.832031 1263.75 1576.644531 C 1265.171875 1590.441406 1268.128906 1601.585938 1273.910156 1610.746094 C 1279.640625 1619.839844 1288.230469 1627.0625 1300.929688 1633.101562 C 1301.628906 1633.375 1302.121094 1634.050781 1302.121094 1634.84375 C 1302.121094 1635.878906 1301.28125 1636.71875 1300.238281 1636.71875 L 1032.761719 1636.71875 C 1032.058594 1636.714844 1031.390625 1636.316406 1031.070312 1635.640625 C 1030.628906 1634.707031 1031.03125 1633.589844 1031.960938 1633.152344 C 1044.730469 1627.105469 1053.339844 1619.863281 1059.089844 1610.746094 C 1064.871094 1601.585938 1067.828125 1590.441406 1069.25 1576.644531 C 1070.878906 1560.832031 1070.710938 1541.851562 1070.550781 1524.332031 C 1070.511719 1520.027344 1070.46875 1515.808594 1070.460938 1511.722656 L 1070.449219 1511.554688 C 1070.449219 1510.519531 1071.289062 1509.679688 1072.320312 1509.679688 Z M 628.289062 1425.296875 L 1704.710938 1425.296875 C 1705.75 1425.296875 1706.589844 1426.136719 1706.589844 1427.171875 L 1706.589844 1466.015625 C 1706.589844 1475.992188 1702.5 1485.074219 1695.921875 1491.660156 L 1695.898438 1491.675781 C 1689.320312 1498.261719 1680.230469 1502.351562 1670.25 1502.351562 L 662.75 1502.351562 C 652.765625 1502.351562 643.683594 1498.257812 637.097656 1491.675781 C 630.507812 1485.082031 626.414062 1476 626.414062 1466.015625 L 626.414062 1427.171875 C 626.414062 1426.136719 627.253906 1425.296875 628.289062 1425.296875 Z M 1704.710938 1417.96875 L 628.289062 1417.96875 C 627.253906 1417.96875 626.414062 1417.128906 626.414062 1416.09375 L 626.414062 906.019531 C 626.414062 896.03125 630.507812 886.949219 637.089844 880.359375 C 643.683594 873.769531 652.765625 869.679688 662.75 869.679688 L 1670.25 869.679688 C 1680.230469 869.679688 1689.308594 873.769531 1695.898438 880.351562 L 1695.910156 880.359375 C 1702.5 886.949219 1706.589844 896.039062 1706.589844 906.019531 L 1706.589844 1416.09375 C 1706.589844 1417.128906 1705.75 1417.96875 1704.710938 1417.96875 "/>
<path fill-rule="evenodd" fill="rgb(12.939453%, 24.705505%, 41.967773%)" fill-opacity="1" d="M 1950.699219 1523.929688 L 1955.878906 1555.910156 C 1958.25 1558.050781 1962.800781 1562.222656 1965.140625 1565.375 C 1966.160156 1566.742188 1967.21875 1568.054688 1968.339844 1569.148438 C 1969.351562 1570.128906 1970.398438 1570.941406 1971.5 1571.445312 C 1972.539062 1571.914062 1973.679688 1572.160156 1974.828125 1572.195312 C 1976.050781 1572.234375 1977.261719 1572.039062 1978.351562 1571.636719 C 1979.390625 1571.257812 1980.308594 1570.679688 1981.160156 1569.921875 C 1982.128906 1569.039062 1983.039062 1567.933594 1983.929688 1566.613281 C 1984.679688 1565.5 1985.480469 1564.125 1986.289062 1562.726562 C 1987.628906 1560.429688 1989.011719 1558.058594 1990.730469 1555.898438 C 1992.269531 1553.984375 1993.960938 1552.386719 1995.761719 1551.210938 L 1996.039062 1551.042969 C 1997.851562 1549.898438 1999.78125 1549.136719 2001.738281 1548.84375 L 2001.878906 1548.824219 C 2003.921875 1548.539062 2005.96875 1548.75 2007.980469 1549.371094 C 2010 1549.996094 2011.96875 1551.046875 2013.808594 1552.425781 C 2015.480469 1553.679688 2017.039062 1555.203125 2018.5 1556.84375 C 2019.949219 1558.457031 2021.238281 1560.097656 2022.460938 1561.683594 L 2023.140625 1562.582031 C 2025.089844 1565.136719 2026.910156 1567.519531 2028.53125 1568.640625 C 2029.820312 1569.523438 2031.46875 1569.96875 2033.148438 1569.96875 C 2034.828125 1569.96875 2036.480469 1569.527344 2037.769531 1568.640625 C 2039.398438 1567.519531 2041.21875 1565.136719 2043.160156 1562.582031 L 2043.851562 1561.683594 C 2045.070312 1560.097656 2046.359375 1558.457031 2047.800781 1556.84375 C 2049.269531 1555.203125 2050.820312 1553.679688 2052.5 1552.425781 C 2054.339844 1551.046875 2056.300781 1549.996094 2058.320312 1549.371094 C 2060.371094 1548.738281 2062.46875 1548.53125 2064.550781 1548.84375 L 2064.570312 1548.847656 C 2066.628906 1549.152344 2068.640625 1549.976562 2070.539062 1551.21875 C 2072.339844 1552.386719 2074.039062 1553.984375 2075.570312 1555.898438 C 2077.300781 1558.058594 2078.679688 1560.429688 2080.011719 1562.726562 C 2080.828125 1564.125 2081.628906 1565.496094 2082.378906 1566.613281 C 2083.261719 1567.933594 2084.171875 1569.039062 2085.148438 1569.910156 C 2086.011719 1570.679688 2086.941406 1571.261719 2087.960938 1571.636719 C 2089.039062 1572.039062 2090.261719 1572.234375 2091.46875 1572.195312 C 2092.621094 1572.160156 2093.769531 1571.914062 2094.800781 1571.445312 C 2095.898438 1570.9375 2096.960938 1570.128906 2097.960938 1569.148438 C 2099.089844 1568.054688 2100.148438 1566.742188 2101.160156 1565.375 C 2102.46875 1563.613281 2104.53125 1561 2106.449219 1558.726562 C 2107.039062 1558.03125 2107.621094 1557.355469 2108.171875 1556.734375 L 2112.941406 1523.929688 Z M 1066.691406 1598.917969 L 1161.871094 1598.917969 C 1163.949219 1598.917969 1165.628906 1600.597656 1165.628906 1602.667969 C 1165.628906 1604.738281 1163.949219 1606.417969 1161.871094 1606.417969 L 1063.640625 1606.417969 C 1062.550781 1608.675781 1061.300781 1610.871094 1059.878906 1612.988281 C 1053.261719 1622.859375 1043.519531 1629.746094 1032.761719 1634.84375 L 1300.238281 1634.84375 C 1289.480469 1629.746094 1279.738281 1622.859375 1273.121094 1612.988281 C 1265.921875 1602.253906 1263.191406 1589.503906 1261.890625 1576.835938 C 1260.191406 1560.417969 1260.5 1543.109375 1260.609375 1526.539062 C 1236.851562 1527.730469 1213.429688 1528.984375 1191.539062 1530.496094 C 1169.679688 1532.007812 1149.449219 1533.773438 1132.109375 1535.988281 C 1120.070312 1537.523438 1109.371094 1539.285156 1099.589844 1541.203125 C 1089.820312 1543.117188 1081.03125 1545.183594 1072.808594 1547.324219 L 1072.46875 1547.414062 C 1072.410156 1557.308594 1072.109375 1567.222656 1071.109375 1576.835938 C 1070.339844 1584.3125 1069.078125 1591.816406 1066.691406 1598.917969 Z M 1176.210938 1606.417969 C 1174.140625 1606.417969 1172.460938 1604.738281 1172.460938 1602.667969 C 1172.460938 1600.597656 1174.140625 1598.917969 1176.210938 1598.917969 L 1182.570312 1598.917969 C 1184.640625 1598.917969 1186.320312 1600.597656 1186.320312 1602.667969 C 1186.320312 1604.738281 1184.640625 1606.417969 1182.570312 1606.417969 Z M 1197.410156 1606.417969 C 1195.339844 1606.417969 1193.660156 1604.738281 1193.660156 1602.667969 C 1193.660156 1600.597656 1195.339844 1598.917969 1197.410156 1598.917969 L 1204.988281 1598.917969 C 1207.058594 1598.917969 1208.738281 1600.597656 1208.738281 1602.667969 C 1208.738281 1604.738281 1207.058594 1606.417969 1204.988281 1606.417969 Z M 1271.761719 1511.554688 C 1271.738281 1515.945312 1271.71875 1520.339844 1271.699219 1524.730469 C 1271.609375 1541.355469 1271.191406 1558.910156 1272.898438 1575.4375 C 1274.011719 1586.253906 1276.25 1597.59375 1282.410156 1606.765625 C 1293.390625 1623.121094 1316.539062 1630.253906 1334.71875 1634.84375 L 1644 1634.84375 C 1645.308594 1620.046875 1651.789062 1606.203125 1662.371094 1595.621094 C 1674.28125 1583.71875 1690.289062 1577.011719 1707.128906 1577.011719 L 1803.96875 1577.011719 C 1820.808594 1577.011719 1836.828125 1583.71875 1848.730469 1595.621094 C 1859.308594 1606.203125 1865.800781 1620.046875 1867.101562 1634.84375 L 1959.980469 1634.84375 L 1942.011719 1523.929688 L 1933.96875 1523.929688 C 1931.609375 1523.929688 1929.691406 1522.007812 1929.691406 1519.640625 L 1929.691406 1488.390625 C 1929.691406 1486.023438 1931.609375 1484.101562 1933.96875 1484.101562 L 1935.710938 1484.101562 C 1930.230469 1480.410156 1924.359375 1476.246094 1920.460938 1472.191406 C 1917.328125 1468.949219 1914.488281 1465.410156 1911.949219 1461.695312 C 1909.410156 1457.980469 1907.160156 1454.054688 1905.28125 1449.972656 C 1902.660156 1444.304688 1900.761719 1438.390625 1898.921875 1432.4375 C 1898.441406 1430.859375 1897.960938 1429.269531 1897.429688 1427.761719 L 1896.800781 1426.035156 C 1896.289062 1424.664062 1895.730469 1423.246094 1895.820312 1421.75 C 1896.089844 1417.042969 1900.460938 1416.691406 1904.121094 1416.914062 C 1908.910156 1417.210938 1913.820312 1417.855469 1918.550781 1418.675781 C 1923.089844 1419.464844 1927.621094 1420.46875 1932.050781 1421.769531 C 1937.539062 1423.382812 1942.890625 1425.484375 1948.019531 1428.023438 C 1953.109375 1430.542969 1958 1433.507812 1962.570312 1436.882812 C 1966.960938 1440.128906 1971.078125 1443.761719 1974.808594 1447.746094 C 1977.640625 1450.765625 1980.25 1453.996094 1982.589844 1457.410156 C 1983.199219 1455.144531 1984.148438 1452.933594 1985.03125 1450.882812 L 1985.441406 1449.925781 C 1986.019531 1448.554688 1986.648438 1447.066406 1987.011719 1445.621094 L 1987.019531 1445.601562 C 1987.171875 1444.992188 1987.300781 1444.222656 1987.128906 1443.601562 C 1986.960938 1442.992188 1986.46875 1442.425781 1986 1442.011719 C 1985.070312 1441.171875 1983.828125 1440.546875 1982.660156 1440.101562 C 1981.199219 1439.554688 1979.640625 1439.164062 1978.140625 1438.777344 C 1975.011719 1437.96875 1971.878906 1437.136719 1969.019531 1435.597656 C 1966.660156 1434.332031 1964.589844 1432.628906 1962.820312 1430.632812 C 1960.96875 1428.542969 1959.46875 1426.148438 1958.300781 1423.617188 C 1957.128906 1421.066406 1956.28125 1418.328125 1956.328125 1415.492188 C 1956.398438 1411.964844 1957.820312 1408.910156 1960.230469 1406.371094 C 1962.5 1403.980469 1965.550781 1402.050781 1968.261719 1400.308594 L 1968.390625 1400.21875 C 1969.199219 1399.691406 1971.480469 1398.269531 1972.839844 1397.171875 C 1971.410156 1396.199219 1969.429688 1395.371094 1967.960938 1394.738281 L 1965.109375 1393.578125 C 1961.921875 1392.269531 1957.898438 1390.761719 1955.378906 1388.359375 C 1952.578125 1385.691406 1952.089844 1382.640625 1951.558594 1378.988281 L 1951.289062 1377.171875 C 1950.949219 1374.980469 1950.46875 1372.789062 1949.949219 1370.628906 C 1949.308594 1367.988281 1948.589844 1365.371094 1947.789062 1362.78125 L 1946.890625 1359.871094 C 1945.03125 1353.898438 1943.359375 1348.191406 1942.53125 1341.96875 C 1941.941406 1337.539062 1941.699219 1332.789062 1942.109375 1328.339844 C 1942.410156 1325.019531 1943.171875 1321.011719 1945.289062 1318.328125 C 1947.800781 1315.140625 1951.53125 1314.441406 1955.320312 1315.421875 C 1958.390625 1316.21875 1961.421875 1318.058594 1963.980469 1319.910156 C 1967.148438 1322.199219 1970.050781 1324.851562 1972.929688 1327.488281 C 1974.5 1328.929688 1976.078125 1330.378906 1977.730469 1331.738281 C 1979.378906 1333.101562 1981.109375 1334.320312 1982.988281 1335.371094 C 1984.78125 1336.378906 1986.660156 1337.191406 1988.578125 1337.910156 C 1989.660156 1338.308594 1990.738281 1338.679688 1991.820312 1339.050781 C 1995.589844 1340.339844 1999.71875 1341.730469 2003 1344.050781 C 2005.238281 1345.628906 2007.039062 1347.640625 2008.308594 1350.070312 C 2009.53125 1352.398438 2010.171875 1354.949219 2010.421875 1357.558594 C 2010.671875 1360.179688 2010.539062 1362.851562 2010.410156 1365.46875 C 2010.308594 1367.621094 2010.191406 1369.808594 2010.328125 1371.949219 C 2010.421875 1373.398438 2010.660156 1375 2011.101562 1376.429688 C 2012.25 1375.621094 2013.390625 1374.910156 2014.75 1374.429688 C 2017.328125 1373.539062 2020.140625 1373.730469 2022.578125 1374.949219 C 2024.96875 1376.160156 2026.730469 1378.210938 2027.820312 1380.628906 C 2029.03125 1383.308594 2029.5 1386.539062 2029.761719 1389.449219 C 2029.859375 1390.679688 2029.929688 1391.921875 2029.980469 1393.160156 C 2030.449219 1393.011719 2030.910156 1392.851562 2031.359375 1392.660156 C 2032.601562 1392.140625 2033.828125 1391.378906 2034.839844 1390.5 C 2035.601562 1389.820312 2036.328125 1389 2036.769531 1388.078125 C 2037.320312 1386.941406 2037.5 1385.53125 2037.558594 1384.269531 C 2037.648438 1382.320312 2037.480469 1380.300781 2037.300781 1378.359375 L 2037.210938 1377.421875 C 2036.671875 1371.519531 2036.519531 1366.691406 2037.921875 1360.828125 C 2038.960938 1356.460938 2040.691406 1352.148438 2042.898438 1348.238281 C 2045.078125 1344.371094 2047.789062 1340.789062 2050.980469 1337.699219 C 2054.640625 1334.160156 2058.949219 1331.230469 2063.378906 1328.75 C 2067.738281 1326.300781 2072.300781 1324.230469 2076.921875 1322.328125 C 2079.089844 1321.449219 2081.269531 1320.601562 2083.449219 1319.761719 C 2089.601562 1317.371094 2095.570312 1315.019531 2101.269531 1311.671875 C 2103.511719 1310.351562 2105.691406 1308.921875 2107.859375 1307.488281 C 2112.621094 1304.359375 2120.378906 1298.808594 2126.320312 1299.78125 C 2130.699219 1300.488281 2133.230469 1304.058594 2134.570312 1308 C 2136.101562 1312.53125 2136.378906 1318.089844 2136.269531 1322.859375 C 2136.171875 1327.519531 2135.628906 1332.179688 2134.808594 1336.78125 C 2134.050781 1341.050781 2133.039062 1345.289062 2131.839844 1349.460938 C 2130.78125 1353.128906 2129.578125 1356.769531 2128.121094 1360.300781 C 2126.839844 1363.429688 2125.328125 1366.480469 2123.519531 1369.328125 C 2121.871094 1371.910156 2119.980469 1374.28125 2117.871094 1376.480469 C 2115.898438 1378.53125 2113.78125 1380.429688 2111.570312 1382.230469 L 2109.421875 1383.980469 C 2108.929688 1384.378906 2108 1385.101562 2107.050781 1385.878906 C 2108.03125 1386.121094 2109.011719 1386.398438 2109.96875 1386.730469 C 2112.558594 1387.640625 2115.019531 1389.03125 2116.921875 1391.039062 C 2118.808594 1393.03125 2119.988281 1395.449219 2120.410156 1398.261719 L 2120.398438 1398.191406 C 2120.839844 1401.164062 2120.339844 1404.316406 2119.480469 1407.167969 C 2118.480469 1410.464844 2116.921875 1413.667969 2115.109375 1416.585938 C 2113.199219 1419.644531 2110.921875 1422.535156 2108.429688 1425.128906 C 2106.039062 1427.613281 2103.339844 1429.933594 2100.441406 1431.789062 C 2096.648438 1434.203125 2092.851562 1435.550781 2088.621094 1436.910156 C 2087.578125 1437.242188 2086.539062 1437.574219 2085.511719 1437.941406 C 2083.679688 1438.597656 2081.828125 1439.375 2080.160156 1440.367188 C 2078.949219 1441.085938 2077.691406 1442 2076.820312 1443.117188 C 2076.21875 1443.882812 2075.71875 1444.851562 2075.609375 1445.828125 C 2075.550781 1446.375 2075.609375 1446.941406 2075.929688 1447.402344 C 2076.53125 1448.277344 2078.21875 1449.363281 2079.109375 1449.972656 C 2080.980469 1451.253906 2082.820312 1452.542969 2084.269531 1454.320312 C 2084.460938 1454.558594 2084.648438 1454.804688 2084.828125 1455.054688 C 2086.71875 1452.503906 2088.761719 1450.066406 2090.929688 1447.75 C 2094.660156 1443.765625 2098.78125 1440.128906 2103.171875 1436.882812 C 2107.738281 1433.507812 2112.628906 1430.542969 2117.71875 1428.023438 C 2122.851562 1425.484375 2128.199219 1423.382812 2133.691406 1421.769531 C 2138.121094 1420.46875 2142.648438 1419.464844 2147.191406 1418.675781 C 2151.921875 1417.855469 2156.828125 1417.210938 2161.621094 1416.914062 C 2165.28125 1416.691406 2169.648438 1417.042969 2169.921875 1421.75 C 2170.011719 1423.246094 2169.449219 1424.664062 2168.949219 1426.003906 L 2168.328125 1427.710938 C 2167.78125 1429.269531 2167.300781 1430.859375 2166.820312 1432.4375 C 2164.980469 1438.390625 2163.078125 1444.304688 2160.460938 1449.972656 C 2158.578125 1454.054688 2156.328125 1457.980469 2153.789062 1461.695312 C 2151.25 1465.410156 2148.410156 1468.949219 2145.28125 1472.191406 C 2141.371094 1476.257812 2135.488281 1480.425781 2130 1484.121094 C 2132.179688 1484.335938 2133.871094 1486.164062 2133.871094 1488.390625 L 2133.871094 1519.640625 C 2133.871094 1522.007812 2131.949219 1523.929688 2129.589844 1523.929688 L 2121.609375 1523.929688 L 2116.890625 1556.410156 C 2116.980469 1557.109375 2116.878906 1557.828125 2116.589844 1558.476562 L 2105.488281 1634.84375 L 2152.738281 1634.84375 C 2155.800781 1634.84375 2158.28125 1637.324219 2158.28125 1640.382812 C 2158.28125 1643.4375 2155.800781 1645.921875 2152.738281 1645.921875 L 172.738281 1645.921875 C 169.683594 1645.921875 167.199219 1643.4375 167.199219 1640.382812 C 167.199219 1637.324219 169.683594 1634.84375 172.738281 1634.84375 L 323.371094 1634.84375 C 317.007812 1628.226562 313.433594 1619.453125 313.433594 1610.25 L 313.433594 1584.5625 L 282.046875 1584.5625 C 271.679688 1584.5625 262.855469 1578.726562 256.855469 1570.550781 C 250.257812 1561.558594 247.164062 1550.09375 247.164062 1539.023438 L 247.164062 1505.902344 C 247.164062 1494.832031 250.257812 1483.367188 256.855469 1474.371094 C 262.855469 1466.195312 271.679688 1460.359375 282.046875 1460.359375 L 313.433594 1460.359375 L 313.433594 1427.207031 C 313.433594 1424.453125 315.679688 1422.210938 318.433594 1422.210938 L 525.765625 1422.210938 C 528.519531 1422.210938 530.761719 1424.453125 530.761719 1427.207031 L 530.761719 1610.25 C 530.761719 1619.453125 527.1875 1628.226562 520.828125 1634.84375 L 998.28125 1634.84375 C 1016.460938 1630.253906 1039.609375 1623.121094 1050.589844 1606.765625 C 1056.761719 1597.59375 1058.988281 1586.253906 1060.101562 1575.4375 C 1061.808594 1558.910156 1061.390625 1541.355469 1061.308594 1524.730469 C 1061.28125 1520.339844 1061.261719 1515.945312 1061.25 1511.554688 L 662.75 1511.554688 C 650.644531 1511.554688 639.132812 1506.734375 630.582031 1498.183594 C 622.027344 1489.632812 617.210938 1478.121094 617.210938 1466.015625 L 617.210938 906.019531 C 617.210938 893.910156 622.027344 882.398438 630.582031 873.851562 C 639.132812 865.300781 650.644531 860.480469 662.75 860.480469 L 1670.25 860.480469 C 1682.359375 860.480469 1693.871094 865.300781 1702.421875 873.851562 C 1710.96875 882.398438 1715.789062 893.910156 1715.789062 906.019531 L 1715.789062 1466.015625 C 1715.789062 1478.121094 1710.96875 1489.632812 1702.421875 1498.183594 C 1693.871094 1506.734375 1682.359375 1511.554688 1670.25 1511.554688 Z M 1968.660156 1634.84375 L 2096.820312 1634.84375 L 2106.058594 1571.277344 C 2105.160156 1572.414062 2104.199219 1573.511719 2103.179688 1574.507812 C 2101.609375 1576.035156 2099.871094 1577.339844 2097.910156 1578.242188 C 2095.941406 1579.136719 2093.808594 1579.601562 2091.710938 1579.667969 C 2089.511719 1579.738281 2087.320312 1579.386719 2085.378906 1578.671875 C 2083.429688 1577.957031 2081.71875 1576.890625 2080.160156 1575.503906 C 2078.71875 1574.21875 2077.410156 1572.632812 2076.160156 1570.777344 C 2075.230469 1569.390625 2074.390625 1567.945312 2073.539062 1566.476562 C 2072.308594 1564.363281 2071.039062 1562.179688 2069.738281 1560.554688 C 2068.738281 1559.296875 2067.621094 1558.25 2066.441406 1557.480469 C 2065.46875 1556.828125 2064.460938 1556.40625 2063.449219 1556.253906 C 2062.5 1556.113281 2061.511719 1556.214844 2060.519531 1556.519531 C 2059.328125 1556.886719 2058.140625 1557.535156 2056.980469 1558.402344 C 2055.738281 1559.332031 2054.53125 1560.523438 2053.371094 1561.824219 C 2052.179688 1563.152344 2050.96875 1564.691406 2049.800781 1566.226562 L 2049.109375 1567.121094 C 2046.789062 1570.160156 2044.628906 1572.996094 2042.019531 1574.792969 C 2039.429688 1576.578125 2036.269531 1577.46875 2033.148438 1577.46875 C 2030.03125 1577.46875 2026.871094 1576.570312 2024.289062 1574.792969 C 2021.671875 1572.996094 2019.511719 1570.160156 2017.191406 1567.121094 L 2016.511719 1566.226562 C 2015.328125 1564.691406 2014.121094 1563.152344 2012.941406 1561.824219 C 2011.769531 1560.523438 2010.558594 1559.332031 2009.320312 1558.402344 C 2008.171875 1557.535156 2006.96875 1556.886719 2005.78125 1556.519531 C 2004.828125 1556.226562 2003.871094 1556.121094 2002.941406 1556.242188 L 2002.851562 1556.253906 C 2001.921875 1556.394531 2000.980469 1556.765625 2000.070312 1557.332031 L 1999.859375 1557.480469 C 1998.679688 1558.25 1997.570312 1559.296875 1996.558594 1560.554688 C 1995.261719 1562.179688 1993.988281 1564.363281 1992.769531 1566.476562 C 1991.910156 1567.945312 1991.070312 1569.390625 1990.140625 1570.777344 C 1988.890625 1572.632812 1987.578125 1574.21875 1986.140625 1575.503906 C 1984.558594 1576.894531 1982.851562 1577.964844 1980.929688 1578.671875 C 1978.980469 1579.386719 1976.800781 1579.738281 1974.601562 1579.667969 C 1972.488281 1579.601562 1970.359375 1579.140625 1968.398438 1578.242188 C 1966.429688 1577.339844 1964.691406 1576.039062 1963.128906 1574.507812 C 1961.671875 1573.09375 1960.359375 1571.480469 1959.140625 1569.828125 C 1958.789062 1569.363281 1958.359375 1568.851562 1957.890625 1568.316406 Z M 2002 1572.703125 C 2004.628906 1572.703125 2006.769531 1574.839844 2006.769531 1577.472656 C 2006.769531 1580.105469 2004.628906 1582.238281 2002 1582.238281 C 1999.371094 1582.238281 1997.230469 1580.105469 1997.230469 1577.472656 C 1997.230469 1574.839844 1999.371094 1572.703125 2002 1572.703125 Z M 1971.378906 1557.707031 C 1977.648438 1557.707031 1977.648438 1548.171875 1971.378906 1548.171875 C 1965.101562 1548.171875 1965.101562 1557.707031 1971.378906 1557.707031 Z M 2059.878906 1572.464844 C 2062.519531 1572.464844 2064.648438 1574.597656 2064.648438 1577.230469 C 2064.648438 1579.863281 2062.519531 1581.996094 2059.878906 1581.996094 C 2057.25 1581.996094 2055.121094 1579.863281 2055.121094 1577.230469 C 2055.121094 1574.597656 2057.25 1572.464844 2059.878906 1572.464844 Z M 2089.878906 1545.203125 C 2092.519531 1545.203125 2094.648438 1547.339844 2094.648438 1549.972656 C 2094.648438 1552.605469 2092.519531 1554.738281 2089.878906 1554.738281 C 2087.25 1554.738281 2085.121094 1552.605469 2085.121094 1549.972656 C 2085.121094 1547.339844 2087.25 1545.203125 2089.878906 1545.203125 Z M 2031.839844 1545.203125 C 2034.480469 1545.203125 2036.609375 1547.339844 2036.609375 1549.972656 C 2036.609375 1552.605469 2034.480469 1554.738281 2031.839844 1554.738281 C 2029.210938 1554.738281 2027.078125 1552.605469 2027.078125 1549.972656 C 2027.078125 1547.339844 2029.210938 1545.203125 2031.839844 1545.203125 Z M 2232.808594 1550.703125 C 2233.171875 1551.371094 2233.371094 1552.132812 2233.371094 1552.941406 C 2233.371094 1553.746094 2233.171875 1554.507812 2232.808594 1555.175781 C 2233.46875 1553.792969 2233.46875 1552.085938 2232.808594 1550.703125 Z M 2224.390625 1555.175781 C 2224.039062 1554.507812 2223.839844 1553.746094 2223.839844 1552.941406 C 2223.839844 1552.132812 2224.039062 1551.371094 2224.390625 1550.703125 C 2223.730469 1552.085938 2223.730469 1553.792969 2224.390625 1555.175781 Z M 1991.371094 1474.125 C 1992.710938 1477.398438 1993.929688 1480.734375 1995.121094 1484.101562 L 2013.550781 1484.101562 C 2013.308594 1483.492188 2013.058594 1482.882812 2012.820312 1482.269531 C 2006.511719 1480.222656 1999.921875 1478.109375 1993.941406 1475.375 C 1993.089844 1474.984375 1992.230469 1474.570312 1991.371094 1474.125 Z M 1986.019531 1484.101562 C 1983.601562 1477.425781 1980.941406 1470.863281 1977.171875 1464.789062 C 1974.691406 1460.785156 1971.769531 1457.046875 1968.550781 1453.609375 C 1965.171875 1450.003906 1961.449219 1446.714844 1957.480469 1443.78125 C 1953.308594 1440.703125 1948.859375 1438.003906 1944.21875 1435.707031 C 1939.53125 1433.390625 1934.640625 1431.472656 1929.628906 1429.996094 C 1925.519531 1428.789062 1921.308594 1427.859375 1917.089844 1427.128906 C 1913.378906 1426.484375 1909.550781 1425.949219 1905.761719 1425.632812 C 1906.238281 1427.046875 1906.671875 1428.480469 1907.121094 1429.90625 C 1908.839844 1435.484375 1910.609375 1441.066406 1913.058594 1446.378906 C 1914.75 1450.03125 1916.761719 1453.539062 1919.03125 1456.859375 C 1921.300781 1460.179688 1923.839844 1463.347656 1926.628906 1466.242188 C 1931.621094 1471.425781 1940.851562 1477.210938 1946.960938 1481.3125 C 1948.328125 1482.238281 1949.71875 1483.160156 1951.089844 1484.101562 L 1971.441406 1484.101562 C 1971.039062 1483.652344 1970.628906 1483.203125 1970.21875 1482.761719 C 1967.398438 1479.691406 1964.46875 1476.753906 1961.390625 1473.949219 C 1953.511719 1466.773438 1944.78125 1460.175781 1936.351562 1453.660156 C 1936.300781 1453.621094 1936.261719 1453.585938 1936.210938 1453.546875 L 1936.179688 1453.523438 C 1934.398438 1452.007812 1934.171875 1449.316406 1935.660156 1447.515625 C 1937.160156 1445.71875 1939.851562 1445.453125 1941.589844 1446.875 C 1950.21875 1453.535156 1959.109375 1460.273438 1967.160156 1467.609375 C 1970.429688 1470.585938 1973.539062 1473.703125 1976.53125 1476.957031 C 1978.679688 1479.296875 1980.75 1481.691406 1982.808594 1484.101562 Z M 2070.609375 1484.101562 C 2070.621094 1484.097656 2070.621094 1484.09375 2070.621094 1484.085938 C 2070.609375 1484.09375 2070.601562 1484.097656 2070.601562 1484.101562 Z M 2077.289062 1467.535156 L 2078.140625 1465.851562 L 2078.171875 1465.773438 C 2078.570312 1464.652344 2078.761719 1463.402344 2078.621094 1462.214844 C 2078.511719 1461.316406 2078.199219 1460.445312 2077.621094 1459.738281 C 2076.808594 1458.734375 2075.328125 1457.777344 2074.261719 1457.046875 C 2072.269531 1455.683594 2070.269531 1454.296875 2068.878906 1452.28125 C 2067.371094 1450.105469 2066.800781 1447.503906 2067.089844 1444.882812 C 2067.371094 1442.304688 2068.480469 1439.851562 2070.070312 1437.816406 C 2071.628906 1435.839844 2073.640625 1434.265625 2075.789062 1432.988281 C 2077.941406 1431.714844 2080.28125 1430.703125 2082.628906 1429.863281 C 2083.738281 1429.464844 2084.871094 1429.105469 2086 1428.742188 C 2089.46875 1427.628906 2092.730469 1426.539062 2095.828125 1424.5625 C 2098.160156 1423.074219 2100.328125 1421.179688 2102.25 1419.1875 C 2104.328125 1417.023438 2106.238281 1414.605469 2107.820312 1412.054688 C 2109.238281 1409.78125 2110.488281 1407.261719 2111.261719 1404.691406 C 2111.738281 1403.132812 2112.171875 1401.101562 2111.921875 1399.46875 L 2111.910156 1399.449219 C 2111.761719 1398.480469 2111.378906 1397.648438 2110.699219 1396.941406 C 2109.761719 1395.949219 2108.398438 1395.269531 2107.128906 1394.828125 C 2106.011719 1394.429688 2104.828125 1394.160156 2103.671875 1393.878906 C 2100.191406 1393.058594 2095.820312 1391.890625 2095.820312 1387.449219 C 2095.820312 1383.421875 2101.160156 1379.640625 2104.011719 1377.320312 L 2106.148438 1375.578125 C 2108.089844 1374.011719 2109.949219 1372.351562 2111.679688 1370.550781 C 2113.398438 1368.75 2114.949219 1366.820312 2116.289062 1364.71875 C 2117.828125 1362.300781 2119.109375 1359.691406 2120.199219 1357.039062 C 2121.53125 1353.800781 2122.628906 1350.460938 2123.589844 1347.101562 C 2124.710938 1343.210938 2125.660156 1339.261719 2126.371094 1335.28125 C 2127.109375 1331.121094 2127.601562 1326.890625 2127.699219 1322.660156 C 2127.78125 1318.988281 2127.628906 1314.25 2126.441406 1310.75 C 2126.300781 1310.308594 2125.511719 1308.328125 2124.941406 1308.238281 C 2122.628906 1307.859375 2114.558594 1313.351562 2112.558594 1314.660156 C 2110.269531 1316.160156 2107.980469 1317.671875 2105.621094 1319.058594 C 2099.488281 1322.660156 2093.148438 1325.191406 2086.550781 1327.75 C 2084.421875 1328.578125 2082.289062 1329.398438 2080.171875 1330.269531 C 2075.878906 1332.03125 2071.628906 1333.949219 2067.578125 1336.230469 C 2063.800781 1338.339844 2060.070312 1340.839844 2056.949219 1343.859375 C 2054.351562 1346.378906 2052.140625 1349.300781 2050.371094 1352.449219 C 2048.550781 1355.671875 2047.121094 1359.21875 2046.261719 1362.808594 C 2045.101562 1367.699219 2045.300781 1371.710938 2045.75 1376.640625 L 2045.839844 1377.570312 C 2046.050781 1379.921875 2046.230469 1382.300781 2046.128906 1384.660156 C 2046.019531 1387.128906 2045.578125 1389.570312 2044.488281 1391.808594 C 2043.539062 1393.78125 2042.128906 1395.5 2040.488281 1396.949219 C 2038.789062 1398.429688 2036.78125 1399.679688 2034.699219 1400.558594 C 2033.550781 1401.046875 2032.390625 1401.398438 2031.199219 1401.734375 C 2030.148438 1402.03125 2029.121094 1402.304688 2028.230469 1402.882812 L 2028.199219 1402.902344 C 2027.128906 1403.609375 2026.160156 1404.621094 2025.378906 1405.628906 C 2024.421875 1406.863281 2023.628906 1408.25 2023.039062 1409.695312 C 2022.289062 1411.519531 2021.851562 1413.46875 2021.679688 1415.433594 C 2021.5 1417.578125 2021.628906 1419.746094 2022.03125 1421.859375 C 2022.660156 1425.191406 2023.898438 1428.554688 2025.03125 1431.746094 C 2025.808594 1433.964844 2026.601562 1436.1875 2027.25 1438.449219 C 2028.019531 1441.105469 2028.648438 1443.976562 2028.851562 1446.742188 C 2029.019531 1449.136719 2028.878906 1451.980469 2027.339844 1453.945312 C 2025.078125 1456.828125 2021.988281 1456.335938 2018.941406 1455.375 C 2018.289062 1455.171875 2017.511719 1454.90625 2016.828125 1454.832031 C 2016.339844 1454.777344 2015.738281 1454.824219 2015.320312 1455.089844 C 2015.011719 1455.285156 2014.851562 1455.585938 2014.75 1455.929688 C 2014.410156 1457.101562 2014.609375 1458.953125 2014.789062 1460.15625 C 2014.800781 1460.1875 2014.800781 1460.222656 2014.808594 1460.257812 C 2015.199219 1462.796875 2015.929688 1465.375 2016.699219 1467.824219 C 2017.671875 1470.898438 2018.789062 1473.933594 2019.949219 1476.9375 C 2020.871094 1479.335938 2021.828125 1481.722656 2022.789062 1484.101562 L 2027.921875 1484.101562 C 2029.019531 1474.097656 2030.359375 1464.449219 2032.601562 1454.527344 C 2034.289062 1447.015625 2036.359375 1439.546875 2038.699219 1432.214844 C 2040.910156 1425.277344 2043.398438 1418.382812 2046.28125 1411.6875 C 2049.078125 1405.164062 2052.28125 1398.839844 2055.921875 1392.75 C 2059.449219 1386.851562 2063.359375 1381.210938 2067.550781 1375.769531 C 2071.898438 1370.101562 2076.539062 1364.648438 2081.28125 1359.289062 C 2086.148438 1353.78125 2091.140625 1348.378906 2096.128906 1342.980469 C 2097.730469 1341.238281 2100.441406 1341.128906 2102.171875 1342.71875 C 2103.921875 1344.320312 2104.039062 1347.050781 2102.429688 1348.789062 C 2097.480469 1354.148438 2092.53125 1359.511719 2087.699219 1364.96875 C 2083.089844 1370.179688 2078.578125 1375.488281 2074.339844 1381 C 2070.359375 1386.179688 2066.640625 1391.539062 2063.28125 1397.148438 C 2059.828125 1402.917969 2056.808594 1408.898438 2054.160156 1415.074219 C 2051.390625 1421.511719 2048.988281 1428.144531 2046.859375 1434.820312 C 2044.601562 1441.914062 2042.601562 1449.144531 2040.960938 1456.410156 C 2038.859375 1465.703125 2037.589844 1474.753906 2036.550781 1484.101562 L 2053.761719 1484.101562 C 2059.488281 1480.8125 2065.53125 1477.425781 2070.871094 1473.605469 C 2070.890625 1473.582031 2070.921875 1473.566406 2070.949219 1473.542969 C 2072.699219 1472.289062 2074.511719 1470.871094 2075.960938 1469.265625 C 2076.449219 1468.726562 2076.898438 1468.148438 2077.289062 1467.535156 Z M 2085.960938 1469.378906 C 2085.640625 1470.171875 2085.25 1470.9375 2084.808594 1471.671875 C 2082.871094 1475.710938 2081.238281 1479.890625 2079.71875 1484.101562 L 2082.921875 1484.101562 C 2084.988281 1481.691406 2087.058594 1479.296875 2089.210938 1476.957031 C 2092.199219 1473.703125 2095.308594 1470.585938 2098.578125 1467.609375 C 2106.628906 1460.273438 2115.519531 1453.535156 2124.078125 1446.933594 C 2125.890625 1445.453125 2128.578125 1445.71875 2130.078125 1447.515625 C 2131.570312 1449.316406 2131.339844 1452.007812 2129.558594 1453.523438 L 2129.53125 1453.546875 C 2129.480469 1453.585938 2129.441406 1453.621094 2129.390625 1453.660156 C 2120.960938 1460.175781 2112.230469 1466.773438 2104.351562 1473.949219 C 2101.269531 1476.753906 2098.339844 1479.691406 2095.519531 1482.761719 C 2095.109375 1483.203125 2094.699219 1483.652344 2094.300781 1484.101562 L 2114.660156 1484.101562 C 2116.019531 1483.160156 2117.410156 1482.238281 2118.78125 1481.3125 C 2124.890625 1477.210938 2134.121094 1471.425781 2139.109375 1466.242188 C 2141.898438 1463.347656 2144.441406 1460.179688 2146.710938 1456.859375 C 2148.980469 1453.539062 2150.988281 1450.03125 2152.679688 1446.378906 C 2155.128906 1441.066406 2156.898438 1435.484375 2158.621094 1429.90625 C 2159.058594 1428.492188 2159.5 1427.070312 2159.980469 1425.632812 C 2156.191406 1425.949219 2152.359375 1426.484375 2148.648438 1427.128906 C 2144.429688 1427.859375 2140.21875 1428.789062 2136.109375 1429.996094 C 2131.101562 1431.472656 2126.210938 1433.390625 2121.519531 1435.707031 C 2116.878906 1438.003906 2112.429688 1440.703125 2108.261719 1443.78125 C 2104.289062 1446.714844 2100.570312 1450.003906 2097.191406 1453.609375 C 2093.96875 1457.046875 2091.050781 1460.785156 2088.570312 1464.789062 C 2087.640625 1466.285156 2086.78125 1467.820312 2085.960938 1469.378906 Z M 2021.519531 1397.238281 C 2021.480469 1394.890625 2021.410156 1392.53125 2021.210938 1390.191406 C 2021.050781 1388.359375 2020.769531 1385.839844 2020 1384.160156 C 2019.738281 1383.578125 2019.320312 1382.910156 2018.730469 1382.609375 C 2018.359375 1382.421875 2017.941406 1382.398438 2017.550781 1382.539062 C 2016.929688 1382.75 2016.070312 1383.410156 2015.539062 1383.789062 C 2013.300781 1385.421875 2011.03125 1386.769531 2008.160156 1385.761719 C 2005.660156 1384.878906 2004.171875 1382.449219 2003.289062 1380.078125 C 2002.398438 1377.71875 2001.941406 1375.039062 2001.769531 1372.519531 C 2001.601562 1370.039062 2001.71875 1367.539062 2001.839844 1365.058594 C 2001.949219 1362.871094 2002.089844 1360.550781 2001.890625 1358.371094 C 2001.738281 1356.890625 2001.410156 1355.371094 2000.710938 1354.039062 C 2000.078125 1352.820312 1999.179688 1351.851562 1998.058594 1351.050781 C 1995.609375 1349.328125 1991.871094 1348.128906 1989.03125 1347.160156 C 1987.878906 1346.761719 1986.730469 1346.371094 1985.601562 1345.941406 C 1983.25 1345.070312 1980.980469 1344.078125 1978.800781 1342.859375 C 1976.480469 1341.558594 1974.339844 1340.039062 1972.289062 1338.359375 C 1970.519531 1336.910156 1968.828125 1335.359375 1967.140625 1333.808594 C 1964.511719 1331.410156 1961.839844 1328.949219 1958.949219 1326.859375 C 1957.351562 1325.699219 1955.089844 1324.21875 1953.160156 1323.71875 C 1952.941406 1323.660156 1952.269531 1323.519531 1952.019531 1323.640625 C 1951.171875 1324.71875 1950.769531 1327.789062 1950.640625 1329.121094 C 1950.300781 1332.921875 1950.519531 1337.050781 1951.03125 1340.839844 C 1951.789062 1346.558594 1953.378906 1351.851562 1955.078125 1357.328125 L 1955.980469 1360.238281 C 1956.828125 1363.011719 1957.601562 1365.800781 1958.28125 1368.609375 C 1958.859375 1371 1959.378906 1373.421875 1959.769531 1375.878906 L 1960.039062 1377.761719 C 1960.210938 1378.890625 1960.410156 1381.308594 1961.300781 1382.148438 C 1962.648438 1383.441406 1966.601562 1384.910156 1968.371094 1385.640625 L 1971.261719 1386.828125 C 1973.738281 1387.878906 1976.480469 1389.109375 1978.609375 1390.769531 C 1981.730469 1393.210938 1983.339844 1396.789062 1981.238281 1400.5 C 1979.640625 1403.3125 1975.71875 1405.6875 1973.03125 1407.421875 C 1973 1407.441406 1972.980469 1407.457031 1972.949219 1407.472656 C 1970.878906 1408.8125 1968.140625 1410.492188 1966.449219 1412.269531 C 1965.539062 1413.234375 1964.929688 1414.296875 1964.910156 1415.648438 C 1964.878906 1417.109375 1965.480469 1418.714844 1966.089844 1420.023438 C 1966.898438 1421.792969 1967.949219 1423.488281 1969.238281 1424.949219 C 1970.339844 1426.1875 1971.621094 1427.257812 1973.078125 1428.046875 C 1975.238281 1429.203125 1977.910156 1429.863281 1980.28125 1430.476562 C 1982.101562 1430.945312 1983.929688 1431.417969 1985.691406 1432.082031 C 1987.871094 1432.90625 1989.980469 1434.0625 1991.730469 1435.628906 C 1993.429688 1437.15625 1994.761719 1439.066406 1995.378906 1441.289062 C 1995.96875 1443.394531 1995.859375 1445.535156 1995.351562 1447.609375 L 1995.339844 1447.664062 C 1994.871094 1449.601562 1994.109375 1451.488281 1993.320312 1453.3125 L 1992.898438 1454.273438 C 1992.058594 1456.203125 1990.210938 1460.289062 1990.578125 1462.308594 C 1990.730469 1463.132812 1991.429688 1463.863281 1992.039062 1464.386719 C 1993.558594 1465.691406 1995.691406 1466.75 1997.5 1467.578125 C 2001.171875 1469.25 2005.101562 1470.679688 2009.039062 1472.003906 C 2008.859375 1471.472656 2008.691406 1470.941406 2008.519531 1470.40625 C 2007.621094 1467.53125 2006.789062 1464.539062 2006.328125 1461.558594 C 2006.320312 1461.523438 2006.320312 1461.488281 2006.308594 1461.453125 C 2005.929688 1458.886719 2005.78125 1456.058594 2006.511719 1453.542969 C 2007.210938 1451.152344 2008.660156 1449.140625 2010.78125 1447.816406 C 2011.101562 1447.613281 2011.429688 1447.433594 2011.769531 1447.269531 C 2010.148438 1442.128906 2008.488281 1436.996094 2006.671875 1431.917969 C 2004.078125 1424.695312 2001.191406 1417.625 1997.890625 1410.699219 C 1994.011719 1402.570312 1989.640625 1394.628906 1985.171875 1386.820312 C 1980.230469 1378.21875 1975.101562 1369.71875 1969.980469 1361.21875 C 1968.761719 1359.199219 1969.421875 1356.550781 1971.449219 1355.328125 C 1973.460938 1354.121094 1976.109375 1354.78125 1977.328125 1356.800781 C 1982.480469 1365.351562 1987.640625 1373.898438 1992.601562 1382.558594 C 1997.191406 1390.558594 2001.660156 1398.679688 2005.628906 1407.007812 C 2009.058594 1414.195312 2012.058594 1421.53125 2014.75 1429.027344 C 2016.601562 1434.199219 2018.289062 1439.417969 2019.941406 1444.652344 C 2019.691406 1443.347656 2019.371094 1442.046875 2019.011719 1440.820312 C 2018.410156 1438.726562 2017.671875 1436.660156 2016.941406 1434.605469 C 2015.648438 1430.964844 2014.320312 1427.25 2013.609375 1423.449219 C 2013.058594 1420.570312 2012.878906 1417.625 2013.128906 1414.707031 C 2013.371094 1411.875 2014.019531 1409.078125 2015.101562 1406.445312 C 2015.988281 1404.285156 2017.171875 1402.226562 2018.601562 1400.378906 C 2019.460938 1399.261719 2020.441406 1398.191406 2021.519531 1397.238281 Z M 2125.300781 1492.679688 L 1938.261719 1492.679688 L 1938.261719 1515.351562 L 2125.300781 1515.351562 Z M 313.433594 1573.484375 L 313.433594 1471.4375 L 282.046875 1471.4375 C 275.292969 1471.4375 269.644531 1475.664062 265.789062 1480.925781 C 260.59375 1488.003906 258.242188 1497.207031 258.242188 1505.902344 L 258.242188 1539.023438 C 258.242188 1547.71875 260.59375 1556.921875 265.789062 1564 C 269.644531 1569.257812 275.292969 1573.484375 282.046875 1573.484375 Z M 350.117188 1634.84375 L 494.078125 1634.84375 C 494.445312 1634.757812 494.828125 1634.710938 495.226562 1634.710938 C 501.730469 1634.710938 507.902344 1632.117188 512.496094 1627.519531 C 517.089844 1622.925781 519.683594 1616.753906 519.683594 1610.25 L 519.683594 1433.285156 L 324.511719 1433.285156 L 324.511719 1610.25 C 324.511719 1616.753906 327.105469 1622.925781 331.699219 1627.519531 C 336.296875 1632.117188 342.46875 1634.710938 348.972656 1634.710938 C 349.367188 1634.710938 349.75 1634.757812 350.117188 1634.84375 Z M 1655.140625 1634.84375 L 1855.96875 1634.84375 C 1854.699219 1622.996094 1849.398438 1611.957031 1840.898438 1603.453125 C 1831.070312 1593.628906 1817.878906 1588.089844 1803.96875 1588.089844 L 1707.128906 1588.089844 C 1693.230469 1588.089844 1680.03125 1593.628906 1670.210938 1603.453125 C 1661.699219 1611.957031 1656.398438 1622.996094 1655.140625 1634.84375 Z M 628.289062 1416.09375 L 1704.710938 1416.09375 L 1704.710938 906.019531 C 1704.710938 896.851562 1701.058594 888.160156 1694.589844 881.679688 C 1688.109375 875.210938 1679.421875 871.558594 1670.25 871.558594 L 662.75 871.558594 C 653.585938 871.558594 644.890625 875.210938 638.414062 881.679688 C 631.941406 888.160156 628.289062 896.851562 628.289062 906.019531 Z M 1704.710938 1427.171875 L 628.289062 1427.171875 L 628.289062 1466.015625 C 628.289062 1475.179688 631.941406 1483.875 638.414062 1490.347656 C 644.890625 1496.820312 653.585938 1500.476562 662.75 1500.476562 L 1670.25 1500.476562 C 1679.421875 1500.476562 1688.109375 1496.824219 1694.589844 1490.347656 C 1701.058594 1483.875 1704.710938 1475.179688 1704.710938 1466.015625 L 1704.710938 1427.171875 "/>
<path fill-rule="evenodd" fill="rgb(12.939453%, 24.705505%, 41.967773%)" fill-opacity="1" d="M 1010.769531 1298.03125 L 1158.511719 1298.03125 L 1158.511719 1190.28125 L 1108.761719 1245.960938 C 1104.980469 1250.171875 1098.730469 1250.300781 1094.800781 1246.25 C 1090.871094 1242.191406 1090.75 1235.488281 1094.53125 1231.28125 L 1160.441406 1157.5 C 1162.261719 1154.871094 1165.199219 1153.160156 1168.511719 1153.160156 C 1171.828125 1153.160156 1174.769531 1154.890625 1176.589844 1157.53125 L 1242.761719 1231.28125 C 1246.539062 1235.488281 1246.421875 1242.191406 1242.488281 1246.25 C 1238.558594 1250.300781 1232.308594 1250.171875 1228.53125 1245.960938 L 1178.511719 1190.199219 L 1178.511719 1298.03125 L 1310.640625 1298.03125 C 1341.019531 1298.03125 1367.070312 1299.941406 1385.550781 1292.710938 C 1423.878906 1277.738281 1421.070312 1217.738281 1400.140625 1187.820312 C 1379.308594 1158.050781 1340.101562 1139.738281 1304.320312 1163.839844 L 1304.171875 1163.828125 C 1304.308594 1161.261719 1304.390625 1158.671875 1304.390625 1156.058594 C 1304.390625 1084.96875 1250.101562 1027.351562 1183.140625 1027.351562 C 1125.429688 1027.351562 1077.128906 1070.160156 1064.890625 1127.488281 C 1060.621094 1127.078125 1056.28125 1126.871094 1051.890625 1126.871094 C 1007.890625 1126.871094 969.363281 1147.898438 948.113281 1179.371094 C 903.300781 1245.738281 928.140625 1298.03125 1010.769531 1298.03125 "/>
<path fill-rule="nonzero" fill="rgb(12.939453%, 24.705505%, 41.967773%)" fill-opacity="1" d="M 597.273438 898.980469 C 597.273438 901.738281 595.035156 903.980469 592.273438 903.980469 C 589.511719 903.980469 587.273438 901.738281 587.273438 898.980469 C 587.273438 878.550781 595.558594 860.050781 608.945312 846.660156 C 622.339844 833.269531 640.839844 824.980469 661.273438 824.980469 C 664.03125 824.980469 666.273438 827.21875 666.273438 829.980469 C 666.273438 832.75 664.03125 834.980469 661.273438 834.980469 C 643.601562 834.980469 627.597656 842.148438 616.015625 853.730469 C 604.4375 865.308594 597.273438 881.308594 597.273438 898.980469 Z M 542.25 937.589844 C 543.089844 940.210938 541.648438 943.019531 539.027344 943.859375 C 536.40625 944.699219 533.597656 943.25 532.757812 940.628906 C 523.519531 912.128906 524.160156 884.148438 532.054688 859.148438 C 538.667969 838.210938 550.386719 819.359375 565.660156 804.058594 C 580.921875 788.769531 599.753906 777.019531 620.589844 770.269531 C 645.71875 762.128906 673.757812 761.238281 701.980469 770.148438 C 704.609375 770.980469 706.070312 773.789062 705.242188 776.421875 C 704.414062 779.058594 701.605469 780.519531 698.972656 779.691406 C 672.816406 771.429688 646.867188 772.230469 623.636719 779.761719 C 604.335938 786.011719 586.886719 796.910156 572.730469 811.089844 C 558.578125 825.261719 547.71875 842.738281 541.585938 862.160156 C 534.285156 885.28125 533.695312 911.191406 542.25 937.589844 Z M 569.96875 918.101562 C 570.53125 920.789062 568.800781 923.441406 566.105469 924 C 563.40625 924.558594 560.765625 922.828125 560.203125 920.128906 C 557.210938 905.738281 557.347656 891.621094 560.0625 878.359375 C 564.164062 858.328125 574.160156 840.28125 588.144531 826.199219 C 602.128906 812.121094 620.121094 801.988281 640.21875 797.808594 C 653.453125 795.058594 667.597656 794.878906 682.105469 797.859375 C 684.800781 798.410156 686.539062 801.039062 685.992188 803.730469 C 685.441406 806.429688 682.808594 808.171875 680.113281 807.621094 C 666.992188 804.929688 654.207031 805.089844 642.253906 807.578125 C 624.109375 811.351562 607.855469 820.5 595.214844 833.238281 C 582.566406 845.96875 573.53125 862.28125 569.828125 880.351562 C 567.378906 892.308594 567.261719 905.070312 569.96875 918.101562 "/>
<path fill-rule="evenodd" fill="rgb(12.939453%, 24.705505%, 41.967773%)" fill-opacity="1" d="M 418.113281 1404.132812 C 416.097656 1401.046875 414.101562 1397.960938 412.5625 1394.601562 C 410.769531 1390.699219 409.710938 1386.671875 409.710938 1382.359375 C 409.710938 1377.78125 410.886719 1373.109375 412.433594 1368.828125 C 414 1364.46875 416.046875 1360.238281 418.269531 1356.191406 C 419.160156 1354.570312 420.085938 1352.980469 421.015625 1351.378906 C 423.464844 1347.179688 426.578125 1342.101562 427.265625 1337.21875 C 427.648438 1334.46875 427.335938 1331.589844 426.710938 1328.898438 C 425.882812 1325.378906 424.453125 1321.910156 422.742188 1318.730469 C 420.4375 1314.429688 417.515625 1310.519531 414.601562 1306.621094 C 413.160156 1304.691406 411.71875 1302.761719 410.335938 1300.78125 C 407.960938 1297.378906 405.722656 1293.828125 403.976562 1290.058594 C 402.121094 1286.070312 400.820312 1281.808594 400.59375 1277.390625 C 400.367188 1272.96875 401.21875 1268.601562 402.601562 1264.421875 C 403.90625 1260.460938 405.667969 1256.640625 407.578125 1252.941406 L 409.050781 1250.089844 C 411.789062 1244.789062 414.546875 1239.589844 415.390625 1233.589844 C 416.503906 1225.648438 414.742188 1215.628906 413.527344 1207.71875 C 413.113281 1205.03125 414.929688 1202.5 417.601562 1202.03125 L 418.664062 1201.851562 C 420.027344 1201.609375 421.285156 1201.890625 422.417969 1202.691406 C 423.550781 1203.488281 424.234375 1204.578125 424.460938 1205.949219 L 424.476562 1206.03125 C 425.894531 1215.261719 427.664062 1225.828125 426.359375 1235.128906 C 425.308594 1242.609375 422.296875 1248.601562 418.890625 1255.179688 L 417.421875 1258.03125 C 415.777344 1261.199219 414.238281 1264.5 413.117188 1267.890625 C 412.179688 1270.730469 411.5 1273.820312 411.65625 1276.820312 C 411.808594 1279.789062 412.78125 1282.71875 414.023438 1285.410156 C 415.492188 1288.570312 417.410156 1291.578125 419.410156 1294.441406 C 420.726562 1296.320312 422.101562 1298.160156 423.476562 1299.988281 C 426.738281 1304.359375 429.917969 1308.671875 432.503906 1313.488281 C 434.675781 1317.53125 436.445312 1321.898438 437.492188 1326.378906 C 438.4375 1330.421875 438.8125 1334.628906 438.234375 1338.75 C 437.296875 1345.441406 433.929688 1351.210938 430.589844 1356.949219 C 429.707031 1358.46875 428.824219 1359.988281 427.976562 1361.53125 C 426.03125 1365.058594 424.21875 1368.78125 422.847656 1372.578125 C 421.757812 1375.609375 420.789062 1379.121094 420.789062 1382.359375 C 420.789062 1385.058594 421.507812 1387.550781 422.628906 1389.988281 C 423.921875 1392.808594 425.6875 1395.480469 427.386719 1398.078125 C 428.140625 1399.238281 428.378906 1400.5 428.09375 1401.847656 C 427.808594 1403.195312 427.082031 1404.253906 425.925781 1405.003906 L 425.027344 1405.589844 C 422.71875 1407.09375 419.617188 1406.4375 418.113281 1404.132812 Z M 371.667969 1400.230469 C 367.777344 1393.898438 363.265625 1386.738281 361.628906 1379.441406 C 360.816406 1375.839844 360.71875 1372.179688 361.253906 1368.53125 C 361.742188 1365.191406 362.746094 1361.960938 364.046875 1358.851562 C 365.179688 1356.128906 366.546875 1353.53125 367.910156 1350.921875 C 369.28125 1348.300781 370.664062 1345.679688 371.761719 1342.929688 C 372.746094 1340.46875 373.480469 1337.941406 373.796875 1335.308594 C 374.152344 1332.339844 373.972656 1329.410156 373.359375 1326.488281 C 371.660156 1318.378906 366.816406 1309.011719 363.179688 1301.539062 C 361.984375 1299.078125 362.988281 1296.109375 365.429688 1294.878906 L 366.390625 1294.398438 C 368.796875 1293.191406 371.734375 1294.109375 373.023438 1296.46875 L 373.03125 1296.488281 C 373.074219 1296.558594 373.105469 1296.621094 373.140625 1296.699219 C 377.257812 1305.160156 382.265625 1315.011719 384.199219 1324.21875 C 385.0625 1328.320312 385.296875 1332.46875 384.796875 1336.628906 C 384.359375 1340.230469 383.390625 1343.679688 382.046875 1347.039062 C 380.804688 1350.148438 379.269531 1353.101562 377.71875 1356.058594 C 376.503906 1358.378906 375.273438 1360.710938 374.265625 1363.121094 C 373.324219 1365.371094 372.566406 1367.71875 372.214844 1370.128906 C 371.878906 1372.441406 371.921875 1374.738281 372.433594 1377.019531 C 373.726562 1382.769531 378.03125 1389.429688 381.113281 1394.441406 C 382.542969 1396.761719 381.84375 1399.808594 379.550781 1401.273438 L 378.640625 1401.855469 C 377.460938 1402.609375 376.171875 1402.828125 374.804688 1402.511719 C 373.445312 1402.191406 372.390625 1401.421875 371.667969 1400.230469 Z M 479.511719 1400.230469 C 475.621094 1393.898438 471.109375 1386.738281 469.472656 1379.441406 C 468.664062 1375.839844 468.5625 1372.179688 469.097656 1368.53125 C 469.585938 1365.191406 470.589844 1361.960938 471.890625 1358.851562 C 473.023438 1356.128906 474.390625 1353.53125 475.753906 1350.921875 C 477.125 1348.300781 478.507812 1345.679688 479.605469 1342.929688 C 480.59375 1340.46875 481.324219 1337.941406 481.640625 1335.308594 C 481.996094 1332.339844 481.816406 1329.410156 481.203125 1326.488281 C 479.503906 1318.378906 474.660156 1309.011719 471.023438 1301.539062 C 469.828125 1299.078125 470.835938 1296.109375 473.273438 1294.878906 L 474.234375 1294.398438 C 476.640625 1293.191406 479.578125 1294.109375 480.867188 1296.46875 L 480.878906 1296.488281 C 480.914062 1296.558594 480.949219 1296.621094 480.984375 1296.699219 C 485.105469 1305.160156 490.109375 1315.011719 492.042969 1324.21875 C 492.902344 1328.320312 493.140625 1332.46875 492.640625 1336.628906 C 492.203125 1340.230469 491.234375 1343.679688 489.890625 1347.039062 C 488.648438 1350.148438 487.113281 1353.101562 485.5625 1356.058594 C 484.347656 1358.378906 483.117188 1360.710938 482.109375 1363.121094 C 481.167969 1365.371094 480.410156 1367.71875 480.058594 1370.128906 C 479.722656 1372.441406 479.765625 1374.738281 480.277344 1377.019531 C 481.570312 1382.769531 485.875 1389.429688 488.960938 1394.441406 C 490.386719 1396.761719 489.6875 1399.808594 487.394531 1401.273438 L 486.484375 1401.855469 C 485.304688 1402.609375 484.015625 1402.828125 482.648438 1402.511719 C 481.289062 1402.191406 480.234375 1401.421875 479.511719 1400.230469 "/>
<path fill-rule="evenodd" fill="rgb(12.939453%, 24.705505%, 41.967773%)" fill-opacity="1" d="M 1170.679688 1441.785156 C 1179.800781 1441.785156 1187.179688 1449.171875 1187.179688 1458.28125 C 1187.179688 1467.394531 1179.800781 1474.78125 1170.679688 1474.78125 C 1161.570312 1474.78125 1154.179688 1467.394531 1154.179688 1458.28125 C 1154.179688 1449.171875 1161.570312 1441.785156 1170.679688 1441.785156 "/>
</svg>
