<svg width="123" height="46" viewBox="0 0 123 46" fill="none" xmlns="http://www.w3.org/2000/svg">
<g filter="url(#filter0_d_24_154)">
<path d="M27.4551 2.74707L15.8027 6.95898L15.6357 5.67871L27.3623 1.4668L27.4551 2.74707ZM15.9512 9.07422L28.29 4.63965L28.7539 7.97949L20.1074 11.2822L27.8262 19.8174C28.9271 21.0296 29.4775 22.2666 29.4775 23.5283C29.4775 25.0127 28.958 26.1507 27.9189 26.9424C26.9912 27.6475 25.7666 28 24.2451 28H5.09668C4.72559 28 4.47819 27.8268 4.35449 27.4805C4.32975 27.3939 4.31738 27.3135 4.31738 27.2393V25.4209C4.31738 25.2106 4.38542 25.0312 4.52148 24.8828C4.66992 24.7344 4.8431 24.6602 5.04102 24.6602H24.4492C24.8698 24.6602 25.2594 24.5117 25.6182 24.2148C25.9769 23.918 26.1562 23.5654 26.1562 23.1572C26.1562 22.848 26.0511 22.582 25.8408 22.3594L16.6006 12.8408C16.3285 12.8285 16.0811 12.7357 15.8584 12.5625C15.8089 12.5254 15.7471 12.4697 15.6729 12.3955C15.5739 12.2718 15.5059 12.179 15.4688 12.1172C15.3698 11.9193 15.3203 11.6966 15.3203 11.4492V9.96484C15.3203 9.70508 15.4007 9.48861 15.5615 9.31543C15.6357 9.24121 15.6914 9.19792 15.7285 9.18555C15.8027 9.13607 15.877 9.09896 15.9512 9.07422Z" fill="#FF4C60"/>
<path d="M37.1592 21.4316C37.1592 22.9284 37.3695 23.8809 37.79 24.2891C38.0374 24.5365 38.5384 24.6602 39.293 24.6602H42.1504C43.1152 24.6602 43.7646 24.3942 44.0986 23.8623C44.2965 23.5407 44.3955 22.7305 44.3955 21.4316V7.29297C44.4326 6.92188 44.6243 6.67448 44.9707 6.55078C45.0449 6.52604 45.1191 6.51367 45.1934 6.51367H46.9746C47.1849 6.51367 47.3581 6.57552 47.4941 6.69922C47.6549 6.84766 47.7354 7.02083 47.7354 7.21875V21.7656C47.7354 23.6953 48.7188 24.6602 50.6855 24.6602V28C48.9909 28 47.5931 27.2702 46.4922 25.8105C45.3789 27.2702 43.9997 28 42.3545 28H39.293C35.6934 28 33.8936 26.2992 33.8936 22.8975V7.25586C33.9183 7.04557 33.9987 6.8724 34.1348 6.73633C34.2832 6.58789 34.4564 6.51367 34.6543 6.51367H36.5283C36.7633 6.51367 36.9551 6.61882 37.1035 6.8291C37.1654 6.96517 37.1963 7.10124 37.1963 7.2373L37.1592 21.4316Z" fill="#FF4C60"/>
<path d="M56.0479 28H50.0176V24.6602H56.0479V28Z" fill="#FF4C60"/>
<path d="M55.6768 28C55.4788 28 55.3242 27.9629 55.2129 27.8887C54.9902 27.7279 54.8789 27.5299 54.8789 27.2949V25.3838C54.8789 25.2477 54.9222 25.1117 55.0088 24.9756C55.1572 24.7653 55.349 24.6602 55.584 24.6602H56.623C57.5508 24.6602 58.1878 24.4684 58.5342 24.085C58.8929 23.7015 59.0723 23.0397 59.0723 22.0996V17.5908C59.0723 17.4548 59.1156 17.3187 59.2021 17.1826C59.3506 16.9723 59.5423 16.8672 59.7773 16.8672H61.6699C61.8678 16.8672 62.041 16.9414 62.1895 17.0898C62.3255 17.2259 62.3936 17.3991 62.3936 17.6094V18.0732H62.4121V22.5635C62.4121 24.0355 61.9854 25.291 61.1318 26.3301C60.2165 27.4434 59.0475 28 57.625 28H55.6768ZM56.7158 34.5312V32.6387C56.7158 32.416 56.79 32.2367 56.9385 32.1006C57.0869 31.9398 57.2663 31.8594 57.4766 31.8594H59.4434C59.6908 31.8594 59.8949 31.9707 60.0557 32.1934C60.1423 32.3294 60.1855 32.4717 60.1855 32.6201V34.5869C60.1855 34.8343 60.068 35.0446 59.833 35.2178C59.7217 35.292 59.5609 35.3291 59.3506 35.3291H57.5322C57.1488 35.3291 56.889 35.1497 56.7529 34.791C56.7282 34.6921 56.7158 34.6055 56.7158 34.5312Z" fill="#FF4C60"/>
<path d="M69.9331 4.41699H69.9551V20.8306C69.9551 22.6323 70.248 23.7383 70.834 24.1484C71.3027 24.4854 72.2036 24.6538 73.5366 24.6538V28.6089C71.4565 28.6089 69.8013 28.272 68.5708 27.5981C66.8569 26.6606 66 24.9834 66 22.5664V4.41699H66.022V4.10938C66.022 3.86035 66.1025 3.65527 66.2637 3.49414C66.4395 3.31836 66.6445 3.23047 66.8789 3.23047H69.0981C69.3765 3.23047 69.6035 3.35498 69.7793 3.604C69.8818 3.76514 69.9331 3.92627 69.9331 4.0874V4.41699Z" fill="#454360"/>
<path d="M79.7988 28.6089H72.6577V24.6538H79.7988V28.6089Z" fill="#454360"/>
<path d="M108.275 22.2588C108.275 23.8555 107.982 25.2471 107.396 26.4336C106.181 28.1475 104.679 29.0044 102.892 29.0044C101.017 29.0044 99.1934 28.1108 97.4209 26.3237C95.8389 28.1108 93.9639 29.0044 91.7959 29.0044C89.6279 29.0044 87.8408 28.0742 86.4346 26.2139C85.4238 27.3564 83.9443 28.0815 81.9961 28.3892C81.0732 28.5356 80.0991 28.6089 79.0737 28.6089V24.6538H80.502C81.8643 24.6538 82.7725 24.4854 83.2266 24.1484C83.9736 23.6064 84.3472 22.6323 84.3472 21.2261L84.3252 16.2822C84.3252 16.0332 84.4058 15.8281 84.5669 15.667C84.7427 15.4912 84.9478 15.4033 85.1821 15.4033H87.3354C87.6138 15.4033 87.8408 15.5132 88.0166 15.7329C88.1484 15.9233 88.2144 16.0625 88.2144 16.1504V22.061C88.2144 22.9985 88.5586 23.7676 89.2471 24.3682C89.8916 24.9395 90.6826 25.2251 91.6201 25.2251C93.4219 25.2251 94.3228 24.4048 94.3228 22.7642V16.2822C94.3228 16.0332 94.4033 15.8281 94.5645 15.667C94.7402 15.4912 94.9453 15.4033 95.1797 15.4033H97.377C97.6553 15.4033 97.8823 15.5278 98.0581 15.7769C98.1313 15.894 98.1753 16.0112 98.1899 16.1284H98.2119V22.0171C98.2119 22.9546 98.5415 23.7236 99.2007 24.3242C99.8745 24.9248 100.68 25.2251 101.618 25.2251C103.449 25.2251 104.364 24.4048 104.364 22.7642V16.1504C104.394 15.96 104.474 15.7988 104.606 15.667C104.782 15.4912 104.987 15.4033 105.221 15.4033H107.44C107.719 15.4033 107.946 15.5278 108.122 15.7769C108.195 15.9087 108.246 16.0332 108.275 16.1504V22.2588Z" fill="#454360"/>
<path d="M114.406 28.7627H114.362V16.3042C114.362 16.0552 114.442 15.8501 114.604 15.689C114.779 15.5132 114.984 15.4253 115.219 15.4253H117.504C117.782 15.4253 118.009 15.5498 118.185 15.7988C118.288 15.96 118.339 16.1211 118.339 16.2822V28.9385H118.317C118.317 30.4766 117.423 32.3369 115.636 34.5195C113.644 36.3652 111.322 37.2881 108.671 37.2881H107.946C107.506 37.2881 107.213 37.083 107.067 36.6729C107.038 36.5703 107.023 36.4751 107.023 36.3872V34.2559C107.023 34.0068 107.104 33.8018 107.265 33.6406C107.426 33.4795 107.609 33.377 107.814 33.333H108.034C109.909 33.333 111.461 32.791 112.692 31.707C113.834 30.4912 114.406 29.5098 114.406 28.7627Z" fill="#454360"/>
<path d="M115.272 1.2085L108.351 4.8999L107.736 3.86719L114.657 0L115.272 1.2085Z" fill="#454360"/>
</g>
<defs>
<filter id="filter0_d_24_154" x="0.317383" y="0" width="122.021" height="45.2881" filterUnits="userSpaceOnUse" color-interpolation-filters="sRGB">
<feFlood flood-opacity="0" result="BackgroundImageFix"/>
<feColorMatrix in="SourceAlpha" type="matrix" values="0 0 0 0 0 0 0 0 0 0 0 0 0 0 0 0 0 0 127 0" result="hardAlpha"/>
<feOffset dy="4"/>
<feGaussianBlur stdDeviation="2"/>
<feComposite in2="hardAlpha" operator="out"/>
<feColorMatrix type="matrix" values="0 0 0 0 0 0 0 0 0 0 0 0 0 0 0 0 0 0 0.25 0"/>
<feBlend mode="normal" in2="BackgroundImageFix" result="effect1_dropShadow_24_154"/>
<feBlend mode="normal" in="SourceGraphic" in2="effect1_dropShadow_24_154" result="shape"/>
</filter>
</defs>
</svg>
