<svg width="74" height="89" viewBox="0 0 74 89" fill="none" xmlns="http://www.w3.org/2000/svg">
<path d="M63.904 10.546C62.108 8.48 59.932 6.852 57.568 5.578C56.352 4.406 54.946 3.42 53.416 2.686C48.97 0.554 43.902 0.438 39.104 1.134C34.148 1.852 29.576 3.5 25.978 7.092C22.856 10.206 20.498 14.106 18.826 18.166C15.504 26.236 15.018 35.372 17.002 43.838C18 48.098 19.644 52.228 21.892 55.982C22.704 57.336 23.634 58.552 24.624 59.7C23.916 60.72 23.568 61.976 23.836 63.504C24.556 67.61 28.27 69.364 31.686 70.99C30.272 72.316 29.492 74.3 29.616 76.254C29.804 79.218 31.968 81.184 34.654 82.108C34.968 82.216 35.306 82.27 35.628 82.36C36.232 83.542 37.024 84.636 37.912 85.584C39.242 86.998 41.048 88.19 43.038 88.104C44.702 88.344 46.42 87.654 47.676 86.566C48.976 85.44 49.842 83.84 50.47 82.23C51.646 81.822 52.754 81.25 53.692 80.412C56.418 77.974 55.986 74.552 54.836 71.486C57 70 59.052 66.416 59.19 66.086C60.2 63.644 59.438 60.982 57.844 58.994C63.38 52.996 67.512 45.596 69.386 37.652C71.584 28.326 70.36 17.976 63.904 10.546Z" fill="#FF9600"/>
<path d="M54.334 69.44C55.66 67.902 56.786 65.948 56.632 63.84C56.532 62.486 56.038 61.18 54.992 60.27C54.128 59.52 53.11 59.084 52.016 58.776C51.842 58.726 51.66 58.694 51.482 58.65C48.578 57.586 45.014 57.624 42.248 57.524C39.03 57.408 35.8 57.382 32.6 57.792C31.286 57.96 29.366 58.15 28.166 59.042C28.158 59.046 28.148 59.048 28.14 59.054C28.13 59.06 28.126 59.068 28.116 59.074C28.08 59.102 28.05 59.132 28.016 59.16C27.256 59.668 26.682 60.328 26.324 61.176C25.922 62.128 25.866 63.092 26.076 64.106C26.388 65.614 27.43 66.746 28.632 67.62C29.512 68.258 30.62 68.618 31.668 68.868C32.122 68.976 32.578 69.082 33.038 69.154C33.07 69.16 33.094 69.158 33.126 69.162C32.96 69.942 32.836 70.724 32.758 71.508C32.372 72.064 32.044 72.656 31.852 73.316C31.48 74.596 31.602 76.098 32.338 77.234C33.058 78.344 34.132 79.17 35.422 79.504C35.628 79.558 35.832 79.566 36.038 79.594C36.116 79.71 36.184 79.828 36.27 79.944C37.152 81.152 38.154 82.33 39.512 83.024C40.25 83.402 41.06 83.676 41.888 83.792C42.446 83.976 43.024 84.098 43.61 84.104C45.656 84.122 47.342 83.036 48.48 81.488C49.364 81.18 50.182 80.688 50.904 80.072C51.272 79.758 51.596 79.392 51.906 79.022C52.326 78.518 52.76 78.002 53.088 77.432C53.848 76.112 54.158 74.456 53.652 72.986C53.404 72.266 53.044 71.632 52.622 71.036C53.24 70.546 53.826 70.026 54.334 69.44Z" fill="white"/>
<path d="M35.646 67.668C40.23 68.118 44.838 68.202 49.434 67.922C50.712 67.844 50.722 65.844 49.434 65.922C44.838 66.204 40.228 66.118 35.646 65.668C34.366 65.544 34.376 67.544 35.646 67.668Z" fill="#231F20"/>
<path d="M37.374 77.798C41.19 77.742 44.996 77.334 48.742 76.596C50.004 76.348 49.47 74.42 48.21 74.668C44.638 75.372 41.016 75.746 37.374 75.8C36.088 75.816 36.084 77.816 37.374 77.798Z" fill="#231F20"/>
<path d="M51.782 38.896C51.628 38.818 51.466 38.762 51.312 38.69C51.658 38.278 51.968 37.846 52.194 37.364C53.744 34.054 50.07 31.97 47.386 31.318C43.57 30.392 39.512 30.246 35.648 30.914C34.382 31.132 34.918 33.06 36.18 32.842C38.6 32.424 41.068 32.412 43.506 32.684C45.558 32.912 48.722 33.154 50.136 34.89C50.962 35.904 50.514 36.94 49.45 37.892C47.274 37.086 44.984 36.602 42.658 36.484C39.968 36.348 37.05 36.71 34.854 38.396C33.882 39.142 32.97 40.192 33.246 41.508C33.54 42.912 34.866 43.646 36.168 43.884C39.234 44.44 42.472 43.728 45.3 42.534C46.726 41.932 48.38 41.16 49.768 40.13C51.392 40.762 53.712 41.856 53.566 43.458C53.35 45.808 49.32 46.94 47.482 47.408C44.998 48.042 42.274 48.346 39.912 47.136C39.25 46.8 38.396 47.208 38.404 48C38.446 52.126 39.232 56.18 40.768 60.012C41.24 61.192 43.176 60.676 42.696 59.48C41.41 56.27 40.686 52.92 40.49 49.486C42.856 50.198 45.378 49.988 47.808 49.39C50.476 48.734 53.978 47.514 55.238 44.826C56.534 42.054 53.994 40.006 51.782 38.896ZM40.384 41.904C39.346 42.066 38.276 42.1 37.23 42.01C36.79 41.972 35.746 41.902 35.45 41.49C35.284 41.26 35.436 40.612 35.554 40.422C35.722 40.148 36.104 39.93 36.37 39.754C38.006 38.66 40.08 38.422 42 38.458C43.818 38.492 45.618 38.788 47.36 39.296C44.778 40.71 41.416 41.744 40.384 41.904Z" fill="#231F20"/>
<path d="M5.00633 52.9219C8.47633 51.1819 11.9483 49.4439 15.4183 47.7039C16.3563 47.2339 16.6943 45.8359 16.1363 44.9679C15.5183 44.0099 14.4023 43.7479 13.4003 44.2499C9.93034 45.9899 6.45833 47.7279 2.98833 49.4679C2.05033 49.9379 1.71234 51.3359 2.27034 52.2039C2.88834 53.1639 4.00233 53.4239 5.00633 52.9219Z" fill="#DF4BB1"/>
<path d="M1.45287 32.9246C4.78887 33.8746 8.27887 34.3446 11.7469 34.3146C12.7929 34.3046 13.7949 33.4006 13.7469 32.3146C13.6989 31.2386 12.8689 30.3046 11.7469 30.3146C10.9389 30.3226 10.1309 30.3046 9.32287 30.2546C8.91887 30.2306 8.51687 30.1986 8.11487 30.1606C7.89887 30.1406 7.68087 30.1166 7.46487 30.0926C7.37687 30.0826 6.83487 30.0126 7.25687 30.0706C5.65487 29.8526 4.07087 29.5106 2.51487 29.0686C1.50887 28.7826 0.292871 29.4186 0.0548712 30.4646C-0.185129 31.5286 0.376871 32.6186 1.45287 32.9246Z" fill="#DF4BB1"/>
<path d="M3.5416 42.9726C5.1816 42.5526 6.8216 42.1326 8.4616 41.7146C9.2436 41.5146 10.0256 41.3067 10.8176 41.1547C10.9976 41.1207 11.1816 41.0927 11.3616 41.0587C10.9316 41.1387 11.5076 41.0427 11.5596 41.0387C11.9876 40.9987 12.4136 40.9906 12.8436 41.0086C13.8896 41.0526 14.8896 40.0566 14.8436 39.0086C14.7936 37.8866 13.9656 37.0566 12.8436 37.0086C11.0596 36.9326 9.3016 37.3707 7.5876 37.8087C5.8836 38.2447 4.1816 38.6806 2.4776 39.1166C1.4636 39.3766 0.751601 40.5626 1.0816 41.5766C1.4196 42.6226 2.4556 43.2506 3.5416 42.9726Z" fill="#FF9600"/>
<path d="M62.9313 5C65.5053 5 65.5093 1 62.9313 1C60.3593 1 60.3533 5 62.9313 5Z" fill="#FF9600"/>
<path d="M66.0011 8.0011C66.0011 8.0871 66.0011 8.1711 66.0011 8.2571C65.9911 8.5331 66.0471 8.7891 66.1731 9.0271C66.2531 9.2751 66.3911 9.4891 66.5871 9.6711C66.7671 9.8671 66.9831 10.0051 67.2311 10.0851C67.4691 10.2091 67.7251 10.2671 68.0011 10.2571C68.1771 10.2331 68.3551 10.2091 68.5331 10.1851C68.8711 10.0891 69.1651 9.9191 69.4151 9.6711C69.5191 9.5371 69.6231 9.4011 69.7271 9.2671C69.9071 8.9551 69.9991 8.6191 70.0011 8.2571C70.0011 8.1711 70.0011 8.0871 70.0011 8.0011C70.0111 7.7251 69.9531 7.4691 69.8291 7.2311C69.7491 6.9831 69.6111 6.7691 69.4151 6.5871C69.2331 6.3931 69.0191 6.2551 68.7711 6.1731C68.5331 6.0491 68.2751 5.9911 68.0011 6.0011C67.8231 6.0251 67.6471 6.0491 67.4691 6.0731C67.1311 6.1691 66.8351 6.3391 66.5871 6.5871C66.4831 6.7231 66.3771 6.8571 66.2731 6.9931C66.0931 7.3051 66.0011 7.6411 66.0011 8.0011Z" fill="#FF9600"/>
<path d="M70.0011 15.0011C70.0011 15.0871 70.0011 15.1711 70.0011 15.2571C69.9911 15.5331 70.0471 15.7891 70.1731 16.0271C70.2531 16.2751 70.3911 16.4891 70.5871 16.6711C70.7671 16.8671 70.9831 17.0051 71.2311 17.0851C71.4691 17.2091 71.7251 17.2671 72.0011 17.2571C72.1771 17.2331 72.3551 17.2091 72.5331 17.1851C72.8711 17.0891 73.1651 16.9191 73.4151 16.6711C73.5191 16.5371 73.6231 16.4011 73.7271 16.2671C73.9071 15.9551 73.9991 15.6191 74.0011 15.2571C74.0011 15.1711 74.0011 15.0871 74.0011 15.0011C74.0111 14.7251 73.9531 14.4691 73.8291 14.2311C73.7491 13.9831 73.6111 13.7691 73.4151 13.5871C73.2331 13.3931 73.0191 13.2551 72.7711 13.1731C72.5331 13.0491 72.2751 12.9911 72.0011 13.0011C71.8231 13.0251 71.6471 13.0491 71.4691 13.0731C71.1311 13.1691 70.8351 13.3391 70.5871 13.5871C70.4831 13.7231 70.3771 13.8571 70.2731 13.9931C70.0931 14.3051 70.0011 14.6411 70.0011 15.0011Z" fill="#FF9600"/>
</svg>
