<svg width="4781" height="3078" viewBox="0 0 4781 3078" fill="none" xmlns="http://www.w3.org/2000/svg">
<path d="M1062.83 2477.18L1033.24 2502.62C1032.16 2503.55 1030.82 2504.01 1029.48 2504.01C1028.14 2504.01 1026.78 2503.54 1025.7 2502.59L992.86 2474L877.26 2559.12H1124.86C1127.43 2548.43 1132.11 2538.56 1138.46 2529.99L1062.82 2477.17L1062.83 2477.18Z" fill="#FEE5B1"/>
<path d="M387.67 1398.21C379.34 1381.25 362.35 1370.72 343.33 1370.72C325.53 1370.72 309.24 1380.16 300.46 1395.44L300.41 1488.07H485.21V1414.61C473.99 1425.69 458.68 1432.14 442.34 1432.14C418.9 1432.14 397.94 1419.14 387.66 1398.21H387.67Z" fill="#484663"/>
<path d="M1134.15 2577.95C1134.15 2616.08 1165.17 2647.1 1203.3 2647.1C1241.43 2647.1 1272.45 2616.08 1272.45 2577.95C1272.45 2539.82 1241.43 2508.8 1203.3 2508.8C1165.17 2508.8 1134.15 2539.82 1134.15 2577.95ZM1210.82 2534.97C1212.04 2536.53 1212.65 2538.69 1212.65 2541.43V2606.93C1212.65 2614.6 1210.04 2618.43 1204.81 2618.43C1202.48 2618.43 1200.62 2617.65 1199.2 2616.08C1197.79 2614.52 1197.08 2612.21 1197.08 2609.16V2557.1C1187.39 2564.54 1180.87 2568.26 1177.51 2568.26C1175.91 2568.26 1174.49 2567.62 1173.25 2566.34C1172.01 2565.06 1171.39 2563.58 1171.39 2561.91C1171.39 2559.97 1172 2558.53 1173.22 2557.62C1174.44 2556.7 1176.6 2555.52 1179.69 2554.07C1184.3 2551.9 1187.99 2549.61 1190.76 2547.21C1193.53 2544.81 1195.97 2542.12 1198.11 2539.14C1200.25 2536.17 1201.64 2534.33 1202.29 2533.65C1202.94 2532.96 1204.16 2532.62 1205.95 2532.62C1207.97 2532.62 1209.59 2533.4 1210.81 2534.97H1210.82Z" fill="#FD9095"/>
<path d="M273.4 1688.43H152.15C148.7 1688.43 145.79 1692.11 145.79 1696.46V1823.07C145.79 1824.91 144.91 1826.63 143.43 1827.72C141.95 1828.81 140.04 1829.12 138.29 1828.56C133.69 1827.1 128.81 1826.36 123.77 1826.36C106.18 1826.36 91.32 1835.48 91.32 1846.28C91.32 1857.08 106.18 1866.2 123.77 1866.2C137.23 1866.2 149.49 1860.86 154.26 1852.91C154.6 1852.34 155.04 1851.83 155.56 1851.41C157.41 1849.9 158.51 1847.38 158.51 1844.67V1728.77C158.51 1725.59 161.09 1723.01 164.27 1723.01H261.28C264.46 1723.01 267.04 1725.59 267.04 1728.77V1823.06C267.04 1824.9 266.16 1826.62 264.68 1827.71C263.2 1828.8 261.29 1829.11 259.54 1828.55C254.94 1827.09 250.06 1826.35 245.02 1826.35C227.43 1826.35 212.57 1835.47 212.57 1846.27C212.57 1857.07 227.43 1866.19 245.02 1866.19C258.48 1866.19 270.74 1860.85 275.51 1852.9C275.85 1852.33 276.29 1851.82 276.81 1851.4C278.66 1849.89 279.76 1847.37 279.76 1844.66V1696.44C279.76 1692.09 276.85 1688.41 273.4 1688.41V1688.43Z" fill="#454360"/>
<path d="M865.11 2362.81C865.05 2363.23 865 2363.65 865 2364.09V2550.61C865 2551.61 865.18 2552.57 865.5 2553.46L983.94 2466.25L865.1 2362.81H865.11Z" fill="#FEE5B1"/>
<path d="M2952.09 2482.3L3004.36 2263.59H2810.25V2306.75C2810.25 2367.02 2761.22 2416.04 2700.96 2416.04H2080.55L2163.66 2528.74C2164.38 2529.72 2164.77 2530.9 2164.78 2532.11L2168.26 2934.21H2972L2951.94 2483.9C2951.92 2483.36 2951.97 2482.83 2952.09 2482.3Z" fill="#FDDCCD"/>
<path d="M997.02 2462.35L1029.51 2490.63L1186.57 2355.58H874.36L997.01 2462.34L997.02 2462.35Z" fill="#FEE5B1"/>
<path d="M1146.01 2521.2C1159.37 2507.71 1177.45 2498.92 1197.53 2497.49V2364.08C1197.53 2363.23 1197.4 2362.42 1197.17 2361.64L1071.84 2469.4L1146 2521.19L1146.01 2521.2Z" fill="#FEE5B1"/>
<path d="M457.29 1672.4C457.29 1664.11 450.55 1657.37 442.26 1657.37C433.97 1657.37 427.23 1664.11 427.23 1672.4C427.23 1680.69 433.97 1687.43 442.26 1687.43C450.55 1687.43 457.29 1680.69 457.29 1672.4Z" fill="#FEE5B1"/>
<path d="M1015.87 2248.29C1015.87 2256.58 1022.61 2263.32 1030.9 2263.32C1039.19 2263.32 1045.93 2256.58 1045.93 2248.29C1045.93 2240 1039.19 2233.26 1030.9 2233.26C1022.61 2233.26 1015.87 2240 1015.87 2248.29Z" fill="#FEE5B1"/>
<path d="M2798.73 2306.75V2261.6C2797.85 2260.59 2797.29 2259.28 2797.29 2257.83C2797.29 2256.38 2797.84 2255.07 2798.73 2254.06V551.77C2798.73 497.86 2754.87 454.01 2700.96 454.01H1832.93C1779.02 454.01 1735.16 497.87 1735.16 551.77V1373.45L1777.43 1395.53V595.33C1777.43 592.15 1780.01 589.57 1783.19 589.57H2748.46C2751.64 589.57 2754.22 592.15 2754.22 595.33V2258.02C2754.22 2261.2 2751.64 2263.78 2748.46 2263.78H1783.19C1780.01 2263.78 1777.43 2261.2 1777.43 2258.02V2067.37L1735.16 2045.05V2306.74C1735.16 2360.65 1779.02 2404.51 1832.93 2404.51H2700.96C2754.87 2404.51 2798.73 2360.65 2798.73 2306.74V2306.75ZM2373.36 516.47C2373.36 519.65 2370.78 522.23 2367.6 522.23H2166.3C2163.12 522.23 2160.54 519.65 2160.54 516.47V492.1C2160.54 488.92 2163.12 486.34 2166.3 486.34H2367.6C2370.78 486.34 2373.36 488.92 2373.36 492.1V516.47Z" fill="#454360"/>
<path d="M1082.28 753.94C1068.33 731.93 1046.58 715.32 1020.95 708.03C1027.96 718.7 1037.17 734.62 1044.56 753.94H1082.29H1082.28Z" fill="#F9F9FE"/>
<path d="M1056.82 807.91H1098.82C1098.37 792.77 1094.76 778.42 1088.63 765.47H1048.58C1052.73 778.55 1055.83 792.86 1056.82 807.91Z" fill="#F9F9FE"/>
<path d="M1020.28 914.46C1044.74 907.68 1065.71 892.43 1079.83 872.08C1069.28 872.01 1058.1 871.94 1046.67 871.88C1040.84 886.11 1032.27 900.41 1020.28 914.46Z" fill="#F9F9FE"/>
<path d="M935.96 807.91H985.93V765.47H944.68C940.3 778.46 936.98 792.79 935.96 807.91Z" fill="#F9F9FE"/>
<path d="M928.09 851.56C925.59 841.15 924.3 830.41 924.19 819.43H884.83C885.96 834.22 890.12 848.18 896.67 860.69C896.7 860.69 896.73 860.67 896.76 860.67C899.11 860.33 912.16 860.16 930.45 860.09C929.58 857.27 928.78 854.43 928.09 851.56Z" fill="#F9F9FE"/>
<path d="M928.34 781.44C929.57 775.95 931.04 770.62 932.68 765.47H894.76C888.64 778.41 885.03 792.77 884.57 807.91H924.5C925.06 799.22 926.34 790.39 928.35 781.45L928.34 781.44Z" fill="#F9F9FE"/>
<path d="M959.78 708.83C935.3 716.48 914.57 732.69 901.1 753.95H936.71C943.91 735.1 952.88 719.45 959.78 708.83Z" fill="#F9F9FE"/>
<path d="M960.26 913.63C949.15 900.42 940.54 886.37 934.53 871.59C920.47 871.62 909.5 871.7 903.4 871.85C916.97 891.52 936.92 906.45 960.25 913.63H960.26Z" fill="#F9F9FE"/>
<path d="M1004.62 704.76C1002.25 704.47 999.86 704.26 997.45 704.13V753.94H1032.14C1022.57 730.3 1010.38 712.5 1004.62 704.76Z" fill="#F9F9FE"/>
<path d="M985.93 753.94V704.13C982.71 704.3 979.52 704.62 976.38 705.07C970.22 713.37 958.33 730.92 948.97 753.94H985.93Z" fill="#F9F9FE"/>
<path d="M1001.79 917.52C1016.72 902.59 1027.1 887.19 1033.99 871.82C1021.77 871.76 1009.45 871.71 997.45 871.67V918.18C998.8 918.11 1000.14 918.01 1001.48 917.88C1001.58 917.76 1001.67 917.63 1001.78 917.51L1001.79 917.52Z" fill="#F9F9FE"/>
<path d="M1036.41 765.47H997.46V807.91H1045.11C1044.08 792.79 1040.77 778.46 1036.41 765.47Z" fill="#F9F9FE"/>
<path d="M1045.43 819.43H997.45V860.14C1011.67 860.19 1025.76 860.25 1038.5 860.32C1043.21 846.45 1045.27 832.71 1045.42 819.44L1045.43 819.43Z" fill="#F9F9FE"/>
<path d="M947.07 871.58C953.99 887.02 964.42 902.49 979.45 917.52C979.49 917.56 979.52 917.61 979.56 917.65C981.67 917.89 983.79 918.07 985.93 918.18V871.63C972.03 871.59 958.83 871.57 947.07 871.58Z" fill="#F9F9FE"/>
<path d="M942.55 860.06C955.76 860.04 970.72 860.06 985.93 860.1V819.43H935.64C935.81 832.62 937.87 846.28 942.55 860.06Z" fill="#F9F9FE"/>
<path d="M1050.8 860.38C1067.69 860.47 1080.9 860.56 1086.76 860.6C1093.28 848.11 1097.42 834.19 1098.55 819.43H1057.13C1057.01 832.72 1055.12 846.47 1050.79 860.38H1050.8Z" fill="#F9F9FE"/>
<path d="M418.27 1068.58C418.27 1076.87 425.01 1083.61 433.3 1083.61C441.59 1083.61 448.33 1076.87 448.33 1068.58C448.33 1060.29 441.59 1053.55 433.3 1053.55C425.01 1053.55 418.27 1060.29 418.27 1068.58Z" fill="#FEE5B1"/>
<path d="M2830.06 836.52H2810.26V936.51H2830.06V836.52Z" fill="white"/>
<path d="M4016.35 589.13C4024.64 589.13 4031.38 582.39 4031.38 574.1C4031.38 565.81 4024.64 559.07 4016.35 559.07C4008.06 559.07 4001.32 565.81 4001.32 574.1C4001.32 582.39 4008.06 589.13 4016.35 589.13Z" fill="#FEE5B1"/>
<path d="M736.86 428.1C656.35 428.1 590.86 493.6 590.86 574.1C590.86 654.6 656.36 720.1 736.86 720.1C817.36 720.1 882.86 654.6 882.86 574.1C882.86 493.6 817.36 428.1 736.86 428.1ZM674.97 556.66C674.97 548.67 681.45 542.19 689.44 542.19C697.43 542.19 703.91 548.67 703.91 556.66C703.91 564.65 697.43 571.13 689.44 571.13C681.45 571.13 674.97 564.65 674.97 556.66ZM736.86 643.09C715.51 643.09 698.14 625.72 698.14 604.37C698.14 601.19 700.72 598.61 703.9 598.61H769.81C772.99 598.61 775.57 601.19 775.57 604.37C775.57 625.72 758.2 643.09 736.85 643.09H736.86ZM784.29 571.13C776.3 571.13 769.82 564.65 769.82 556.66C769.82 548.67 776.3 542.19 784.29 542.19C792.28 542.19 798.76 548.67 798.76 556.66C798.76 564.65 792.28 571.13 784.29 571.13Z" fill="#FEE5B1"/>
<path d="M2361.83 497.86H2172.06V510.7H2361.83V497.86Z" fill="white"/>
<path d="M2830.06 672.66H2812.33V772.65H2830.06V672.66Z" fill="white"/>
<path d="M736.86 631.56C749.88 631.56 760.79 622.37 763.44 610.13H710.29C712.94 622.37 723.85 631.56 736.87 631.56H736.86Z" fill="#FD9095"/>
<path d="M3435.79 2461.26H3792.56C3801.51 2461.26 3808.8 2453.98 3808.8 2445.02V2088.25C3808.8 2079.3 3801.52 2072.01 3792.56 2072.01H3435.79C3426.84 2072.01 3419.55 2079.29 3419.55 2088.25V2445.02C3419.55 2453.97 3426.83 2461.26 3435.79 2461.26ZM3517.3 2156.23C3517.3 2153.05 3519.88 2150.47 3523.06 2150.47H3705.28C3708.46 2150.47 3711.04 2153.05 3711.04 2156.23V2327.4C3711.04 2327.4 3711.04 2327.47 3711.03 2327.5C3711.03 2327.85 3710.99 2328.19 3710.93 2328.53C3710.92 2328.59 3710.9 2328.64 3710.89 2328.69C3710.83 2328.96 3710.74 2329.23 3710.64 2329.5C3710.6 2329.6 3710.55 2329.7 3710.51 2329.81C3710.41 2330.03 3710.29 2330.24 3710.16 2330.45C3710.11 2330.53 3710.06 2330.62 3710 2330.7C3709.81 2330.97 3709.61 2331.23 3709.37 2331.46L3660.19 2381.12C3660.19 2381.12 3660.19 2381.12 3660.18 2381.12C3659.91 2381.39 3659.62 2381.63 3659.3 2381.84C3659.22 2381.89 3659.14 2381.92 3659.06 2381.97C3658.81 2382.12 3658.57 2382.26 3658.3 2382.38C3658.17 2382.43 3658.04 2382.46 3657.91 2382.5C3657.68 2382.58 3657.46 2382.66 3657.22 2382.71C3656.86 2382.78 3656.5 2382.82 3656.13 2382.82C3656.12 2382.82 3656.1 2382.82 3656.09 2382.82H3523.05C3519.87 2382.82 3517.29 2380.24 3517.29 2377.06V2156.24L3517.3 2156.23Z" fill="#B6B5C3"/>
<path d="M4386.89 1763.35C4386.89 1755.06 4380.15 1748.32 4371.86 1748.32C4363.57 1748.32 4356.83 1755.06 4356.83 1763.35C4356.83 1771.64 4363.57 1778.38 4371.86 1778.38C4380.15 1778.38 4386.89 1771.64 4386.89 1763.35Z" fill="#FEE5B1"/>
<path d="M2074.9 2945.73V3071.57H3065.98V2945.73H2074.9Z" fill="#454360"/>
<path d="M3055.31 2050.41C3070.64 1986.28 3069.39 1918.82 3051.69 1855.3L2934.83 1435.74C2934.67 1435.15 2934.6 1434.54 2934.62 1433.93L2953.55 1018.53C2953.9 1010.81 2951.15 1003.48 2945.82 997.89C2940.48 992.3 2933.28 989.22 2925.55 989.22H2900.44C2876.46 989.22 2853.99 998.62 2837.15 1015.68C2820.31 1032.74 2811.21 1055.34 2811.53 1079.32L2812.33 1140.04C2812.35 1141.84 2811.54 1143.43 2810.26 1144.5V2252.05H3007.12L3055.31 2050.4V2050.41Z" fill="#FDDCCD"/>
<path d="M4086.62 2255.21C4086.73 2255.43 4086.83 2255.65 4086.92 2255.89C4098.46 2282.3 4115.53 2308.23 4134.35 2327.05C4160.78 2353.48 4201.39 2376.68 4237.81 2386.16C4258.86 2391.63 4281.49 2385.47 4296.9 2370.07L4313.55 2353.42C4318.59 2348.38 4318.59 2340.19 4313.55 2335.15L4274.81 2296.41C4272.37 2293.97 4269.13 2292.63 4265.68 2292.63C4262.23 2292.63 4258.99 2293.97 4256.55 2296.41L4222.78 2330.17C4215.21 2337.74 4203.66 2339.63 4194.06 2334.86C4185.31 2330.52 4171.52 2321.98 4155.48 2305.93C4139.64 2290.09 4131.43 2276.75 4127.32 2268.34C4125.69 2265 4124.89 2261.43 4124.84 2257.87C4124.84 2257.86 4124.84 2257.84 4124.84 2257.83C4124.84 2257.83 4124.84 2257.81 4124.84 2257.8C4124.76 2251.24 4127.27 2244.73 4132.13 2239.87L4166.07 2205.93C4171.1 2200.89 4171.1 2192.7 4166.07 2187.66L4127.33 2148.92C4124.81 2146.4 4121.5 2145.14 4118.2 2145.14C4114.9 2145.14 4111.59 2146.4 4109.07 2148.92L4092.19 2165.8C4076.89 2181.1 4070.69 2203.59 4076 2224.5C4078.55 2234.54 4082.17 2244.91 4086.64 2255.21H4086.62Z" fill="#454360"/>
<path d="M3650.34 2327.39C3650.34 2324.21 3652.92 2321.63 3656.1 2321.63H3699.52V2161.99H3528.82V2371.29H3650.34V2327.39ZM3560.32 2194.21H3668.03C3671.21 2194.21 3673.79 2196.79 3673.79 2199.97C3673.79 2203.15 3671.21 2205.73 3668.03 2205.73H3560.32C3557.14 2205.73 3554.56 2203.15 3554.56 2199.97C3554.56 2196.79 3557.14 2194.21 3560.32 2194.21ZM3560.32 2232.6H3668.03C3671.21 2232.6 3673.79 2235.18 3673.79 2238.36C3673.79 2241.54 3671.21 2244.12 3668.03 2244.12H3560.32C3557.14 2244.12 3554.56 2241.54 3554.56 2238.36C3554.56 2235.18 3557.14 2232.6 3560.32 2232.6ZM3621.1 2282.51H3560.32C3557.14 2282.51 3554.56 2279.93 3554.56 2276.75C3554.56 2273.57 3557.14 2270.99 3560.32 2270.99H3621.1C3624.28 2270.99 3626.86 2273.57 3626.86 2276.75C3626.86 2279.93 3624.28 2282.51 3621.1 2282.51Z" fill="#FEE5B1"/>
<path d="M3661.87 2363.04L3691.47 2333.15H3661.87V2363.04Z" fill="#FEE5B1"/>
<path d="M1721.57 761.79H1703.84V861.78H1721.57V761.79Z" fill="white"/>
<path d="M1877.54 2125.7C1860.71 2125.7 1847.01 2139.39 1847.01 2156.23C1847.01 2173.07 1860.7 2186.76 1877.54 2186.76C1894.38 2186.76 1908.07 2173.07 1908.07 2156.23C1908.07 2139.39 1894.38 2125.7 1877.54 2125.7Z" fill="#FEE5B1"/>
<path d="M1994.48 2186.75C2011.31 2186.75 2025.01 2173.06 2025.01 2156.22C2025.01 2139.38 2011.32 2125.69 1994.48 2125.69C1977.64 2125.69 1963.95 2139.38 1963.95 2156.22C1963.95 2173.06 1977.64 2186.75 1994.48 2186.75Z" fill="#FD9095"/>
<path d="M1879.38 2086.08C1868.95 2089.44 1858.27 2091.11 1847.65 2091.11C1831.13 2091.11 1814.75 2087.08 1799.69 2079.13L1788.97 2073.47V2252.27H2742.72V2065.23H1916.07C1905.57 2074.53 1893.17 2081.65 1879.38 2086.09V2086.08ZM2664.26 2147.6C2669.02 2147.6 2672.89 2151.46 2672.89 2156.23C2672.89 2161 2669.03 2164.86 2664.26 2164.86C2659.49 2164.86 2655.63 2161 2655.63 2156.23C2655.63 2151.46 2659.49 2147.6 2664.26 2147.6ZM2636.59 2147.6C2641.35 2147.6 2645.22 2151.46 2645.22 2156.23C2645.22 2161 2641.36 2164.86 2636.59 2164.86C2631.82 2164.86 2627.96 2161 2627.96 2156.23C2627.96 2151.46 2631.82 2147.6 2636.59 2147.6ZM2608.91 2147.6C2613.67 2147.6 2617.54 2151.46 2617.54 2156.23C2617.54 2161 2613.68 2164.86 2608.91 2164.86C2604.14 2164.86 2600.28 2161 2600.28 2156.23C2600.28 2151.46 2604.14 2147.6 2608.91 2147.6ZM1994.48 2114.17C2017.67 2114.17 2036.53 2133.04 2036.53 2156.22C2036.53 2179.4 2017.67 2198.27 1994.48 2198.27C1971.29 2198.27 1952.43 2179.4 1952.43 2156.22C1952.43 2133.04 1971.29 2114.17 1994.48 2114.17ZM1877.54 2198.28C1854.35 2198.28 1835.49 2179.41 1835.49 2156.23C1835.49 2133.05 1854.35 2114.18 1877.54 2114.18C1900.73 2114.18 1919.59 2133.05 1919.59 2156.23C1919.59 2179.41 1900.73 2198.28 1877.54 2198.28Z" fill="#F9F9FE"/>
<path d="M1903.59 1870.53C1927.25 1862.91 1946.37 1846.45 1957.44 1824.19L1958.22 1822.61C1968.95 1801.04 1970.76 1776.54 1963.32 1753.63C1955.89 1730.74 1940.05 1711.99 1918.73 1700.83L1854.21 1669.17C1850.13 1667.63 1846.13 1665.84 1842.21 1663.77L1622.74 1547.87C1619.06 1546.72 1615.28 1545.79 1611.5 1545.12C1569.72 1537.72 1528.7 1559.76 1511.73 1598.7L1511.59 1599.01C1502.34 1620.24 1501.47 1643.95 1509.12 1665.8C1516.77 1687.64 1532.26 1705.63 1552.73 1716.44L1832.81 1864.34C1854.79 1875.95 1879.92 1878.14 1903.58 1870.52L1903.59 1870.53Z" fill="#FDDCCD"/>
<path d="M2742.71 601.09H1788.96V716.89H2742.71V601.09ZM1899.69 665.16C1899.69 668.34 1897.11 670.92 1893.93 670.92H1828.67C1825.49 670.92 1822.91 668.34 1822.91 665.16V636.16C1822.91 632.98 1825.49 630.4 1828.67 630.4H1893.93C1897.11 630.4 1899.69 632.98 1899.69 636.16V665.16ZM2002.41 665.16C2002.41 668.34 1999.83 670.92 1996.65 670.92H1931.39C1928.21 670.92 1925.63 668.34 1925.63 665.16V636.16C1925.63 632.98 1928.21 630.4 1931.39 630.4H1996.65C1999.83 630.4 2002.41 632.98 2002.41 636.16V665.16Z" fill="#F9F9FE"/>
<path d="M1723.64 947.35L1522.96 793.52C1502.3 777.68 1475.77 771.39 1450.2 776.26C1424.62 781.13 1402.27 796.73 1388.87 819.06C1365.32 858.31 1374.61 909.36 1410.47 937.8L1723.64 1186.13V947.35Z" fill="#FDDCCD"/>
<path d="M1875.84 2075.11C1899.5 2067.49 1918.62 2051.03 1929.69 2028.77L1930.47 2027.19C1941.2 2005.62 1943.01 1981.12 1935.57 1958.21C1928.14 1935.32 1912.31 1916.58 1890.99 1905.42L1836.17 1878.66C1833.21 1877.43 1830.3 1876.06 1827.43 1874.55L1598.39 1753.6C1553.34 1737.56 1503.13 1759.33 1483.98 1803.3L1483.84 1803.61C1474.59 1824.84 1473.72 1848.55 1481.37 1870.4C1489.02 1892.25 1504.51 1910.23 1524.98 1921.04L1805.06 2068.94C1827.04 2080.55 1852.18 2082.74 1875.83 2075.12L1875.84 2075.11Z" fill="#FDDCCD"/>
<path d="M2396.53 1474.06L2399.53 1439.72H2352.15C2348.97 1439.72 2346.39 1437.14 2346.39 1433.96C2346.39 1430.78 2348.97 1428.2 2352.15 1428.2H2400.54L2403.37 1395.73H2352.15C2348.97 1395.73 2346.39 1393.15 2346.39 1389.97C2346.39 1386.79 2348.97 1384.21 2352.15 1384.21H2404.38L2407.21 1351.74H2352.15C2348.97 1351.74 2346.39 1349.16 2346.39 1345.98C2346.39 1342.8 2348.97 1340.22 2352.15 1340.22H2408.21L2411.21 1305.89H2319.28C2317.74 1305.89 2316.27 1305.28 2315.19 1304.18C2314.11 1303.09 2313.51 1301.61 2313.52 1300.07L2314.43 1201.14H2288.54L2239.56 1304.57C2238.75 1306.28 2237.15 1307.49 2235.28 1307.79L2207.39 1312.34V1448.43L2267.81 1474.06H2396.55H2396.53Z" fill="white"/>
<path d="M1990.88 641.92H1937.15V659.4H1990.88V641.92Z" fill="#B6B5C3"/>
<path d="M2195.84 1295.7H2122.2V1462.21H2195.84V1295.7Z" fill="#484663"/>
<path d="M1918.37 1659.75C1942.03 1652.13 1961.15 1635.67 1972.22 1613.41L1973.01 1611.83C1983.74 1590.26 1985.54 1565.76 1978.1 1542.85C1970.66 1519.94 1954.8 1501.18 1933.45 1490.02L1652.73 1343.38C1639.4 1336.42 1625.01 1332.9 1610.51 1332.9C1600.26 1332.9 1589.95 1334.66 1579.93 1338.19C1555.73 1346.73 1536.76 1364.39 1526.51 1387.92L1526.37 1388.24C1517.13 1409.46 1516.25 1433.18 1523.91 1455.02C1531.56 1476.87 1547.05 1494.85 1567.52 1505.66L1847.6 1653.57C1869.58 1665.18 1894.71 1667.37 1918.37 1659.75Z" fill="#FDDCCD"/>
<path d="M1888.16 641.92H1834.43V659.4H1888.16V641.92Z" fill="#B6B5C3"/>
<path d="M2266.96 1621.76C2337.62 1621.76 2404.06 1594.24 2454.03 1544.27C2504 1494.3 2531.52 1427.87 2531.52 1357.2C2531.52 1286.53 2504 1220.1 2454.03 1170.13C2404.06 1120.16 2337.63 1092.64 2266.96 1092.64C2196.29 1092.64 2129.86 1120.16 2079.89 1170.13C2029.92 1220.1 2002.4 1286.53 2002.4 1357.2C2002.4 1427.87 2029.92 1494.3 2079.89 1544.27C2129.86 1594.24 2196.29 1621.76 2266.96 1621.76ZM2110.67 1289.93C2110.67 1286.75 2113.25 1284.17 2116.43 1284.17H2201.6C2204.78 1284.17 2207.36 1286.75 2207.36 1289.93V1300.65L2230.41 1296.89L2279.66 1192.9C2280.61 1190.89 2282.64 1189.6 2284.87 1189.6H2320.23C2321.77 1189.6 2323.24 1190.21 2324.32 1191.31C2325.4 1192.4 2326 1193.88 2325.99 1195.42L2325.08 1294.35H2417.48C2419.1 1294.35 2420.64 1295.03 2421.73 1296.22C2422.82 1297.41 2423.36 1299 2423.22 1300.61L2407.54 1480.31C2407.28 1483.29 2404.79 1485.57 2401.8 1485.57H2266.61C2265.84 1485.57 2265.07 1485.41 2264.36 1485.11L2207.36 1460.93V1467.95C2207.36 1471.13 2204.78 1473.71 2201.6 1473.71H2116.43C2113.25 1473.71 2110.67 1471.13 2110.67 1467.95V1289.91V1289.93Z" fill="#FEE5B1"/>
<path d="M1788.96 1401.55L1938.79 1479.82C1962.83 1492.38 1980.69 1513.5 1989.07 1539.3C1997.45 1565.1 1995.41 1592.68 1983.33 1616.97L1982.54 1618.55C1970.08 1643.61 1948.54 1662.14 1921.9 1670.72C1912.61 1673.71 1903.11 1675.36 1893.64 1675.68L1923.87 1690.52C1923.87 1690.52 1923.96 1690.56 1924 1690.59C1948.04 1703.15 1965.9 1724.27 1974.28 1750.07C1982.66 1775.87 1980.62 1803.45 1968.54 1827.74L1967.76 1829.32C1955.3 1854.38 1933.76 1872.91 1907.12 1881.5C1897.69 1884.54 1888.05 1886.18 1878.43 1886.47L1896.11 1895.1C1896.11 1895.1 1896.2 1895.15 1896.25 1895.17C1920.29 1907.73 1938.15 1928.85 1946.52 1954.65C1954.9 1980.45 1952.86 2008.03 1940.78 2032.32L1940 2033.9C1936.44 2041.06 1932.11 2047.67 1927.16 2053.69H2742.7V728.42H1788.95V1401.55H1788.96ZM2071.75 1161.99C2123.89 1109.85 2193.22 1081.13 2266.97 1081.13C2340.72 1081.13 2410.04 1109.85 2462.19 1161.99C2514.33 1214.13 2543.05 1283.46 2543.05 1357.21C2543.05 1430.96 2514.33 1500.28 2462.19 1552.43C2410.05 1604.57 2340.72 1633.29 2266.97 1633.29C2193.22 1633.29 2123.9 1604.57 2071.75 1552.43C2019.61 1500.29 1990.89 1430.96 1990.89 1357.21C1990.89 1283.46 2019.61 1214.14 2071.75 1161.99Z" fill="white"/>
<path d="M3652.01 1490.83C3674.93 1490.45 3693.26 1471.49 3692.87 1448.57C3692.49 1425.89 3673.92 1407.7 3651.32 1407.7C3651.08 1407.7 3650.85 1407.7 3650.61 1407.7C3627.69 1408.08 3609.36 1427.04 3609.75 1449.96C3610.13 1472.64 3628.7 1490.83 3651.3 1490.83C3651.54 1490.83 3651.77 1490.83 3652.01 1490.83Z" fill="white"/>
<path d="M3653.18 1327.4C3562.08 1327.4 3487.97 1401.51 3487.97 1492.61C3487.97 1583.71 3562.08 1657.82 3653.18 1657.82C3744.28 1657.82 3818.39 1583.71 3818.39 1492.61C3818.39 1401.51 3744.28 1327.4 3653.18 1327.4ZM3729.91 1585.08C3728.85 1586.18 3727.39 1586.81 3725.86 1586.84L3581.4 1589.26C3581.4 1589.26 3581.34 1589.26 3581.3 1589.26C3579.81 1589.26 3578.37 1588.68 3577.29 1587.64C3576.19 1586.58 3575.56 1585.12 3575.53 1583.59L3575.33 1571.56C3574.98 1550.81 3582.79 1531.11 3597.31 1516.09C3605.89 1507.22 3616.19 1500.66 3627.45 1496.68C3610.4 1488.07 3598.55 1470.54 3598.2 1450.16C3597.71 1420.89 3621.12 1396.67 3650.39 1396.18C3650.69 1396.18 3650.99 1396.18 3651.29 1396.18C3680.15 1396.18 3703.87 1419.41 3704.36 1448.38C3704.7 1468.76 3693.45 1486.67 3676.71 1495.85C3688.09 1499.45 3698.6 1505.67 3707.47 1514.25C3722.49 1528.77 3730.95 1548.2 3731.3 1568.95L3731.5 1580.98C3731.53 1582.51 3730.94 1583.98 3729.88 1585.08H3729.91Z" fill="#FD9095"/>
<path d="M3699.49 1522.53C3686.96 1510.41 3670.61 1503.78 3653.35 1503.78C3652.97 1503.78 3652.6 1503.78 3652.22 1503.78C3634.55 1504.08 3617.99 1511.29 3605.61 1524.1C3593.23 1536.91 3586.57 1553.69 3586.87 1571.37L3586.98 1577.64L3719.92 1575.41L3719.81 1569.14C3719.51 1551.47 3712.3 1534.91 3699.49 1522.53Z" fill="white"/>
<path d="M4362.08 705.24C4377.65 705.24 4390.59 693.8 4392.94 678.89H4331.21C4333.57 693.8 4346.51 705.24 4362.07 705.24H4362.08Z" fill="#FEE5B1"/>
<path d="M4277.03 634.96L4267.18 667.37H4456.99L4447.16 634.96H4277.03Z" fill="#FEE5B1"/>
<path d="M2561.06 269.84C2559.75 271.15 2559.04 272.88 2559.04 274.73C2559.04 276.58 2559.76 278.31 2561.06 279.62C2563.76 282.32 2568.14 282.32 2570.84 279.62C2593.45 257.01 2623.57 244.55 2655.63 244.55C2687.69 244.55 2717.81 257 2740.42 279.62C2741.73 280.93 2743.46 281.65 2745.31 281.65C2747.16 281.65 2748.89 280.93 2750.2 279.62C2751.51 278.31 2752.22 276.58 2752.22 274.73C2752.22 272.88 2751.5 271.15 2750.2 269.84C2698.05 217.69 2613.2 217.69 2561.05 269.84H2561.06Z" fill="#FD9095"/>
<path d="M2526.8 220.27C2524.1 222.97 2524.1 227.35 2526.8 230.05C2529.5 232.75 2533.89 232.74 2536.58 230.05C2568.33 198.3 2610.61 180.81 2655.64 180.81C2700.67 180.81 2742.95 198.3 2774.7 230.05C2776.01 231.36 2777.74 232.08 2779.59 232.08C2781.44 232.08 2783.17 231.36 2784.48 230.05C2787.18 227.35 2787.18 222.97 2784.48 220.27C2713.44 149.23 2597.85 149.23 2526.81 220.27H2526.8Z" fill="#FD9095"/>
<path d="M4362.29 1503.78C4361.91 1503.78 4361.54 1503.78 4361.16 1503.78C4343.49 1504.08 4326.93 1511.29 4314.55 1524.1C4302.17 1536.91 4295.51 1553.69 4295.81 1571.37L4295.92 1577.64L4428.86 1575.41L4428.76 1569.14C4428.15 1532.87 4398.45 1503.78 4362.31 1503.78H4362.29Z" fill="white"/>
<path d="M4401.8 1448.57C4401.42 1425.89 4382.85 1407.7 4360.25 1407.7C4360.01 1407.7 4359.78 1407.7 4359.54 1407.7C4348.44 1407.89 4338.07 1412.38 4330.36 1420.37C4322.65 1428.36 4318.49 1438.86 4318.68 1449.96C4318.87 1461.06 4323.36 1471.43 4331.35 1479.14C4339.33 1486.86 4349.86 1490.98 4360.94 1490.82C4383.86 1490.44 4402.19 1471.48 4401.8 1448.56V1448.57Z" fill="white"/>
<path d="M4556.73 773.28V416.51C4556.73 407.56 4549.45 400.27 4540.5 400.27H4183.73C4174.78 400.27 4167.49 407.55 4167.49 416.51V773.28C4167.49 782.23 4174.77 789.52 4183.73 789.52H4540.5C4549.45 789.52 4556.73 782.24 4556.73 773.28ZM4229.77 574.14C4229.21 574.14 4228.65 574.06 4228.09 573.89C4225.05 572.96 4223.33 569.74 4224.26 566.7C4229.99 547.95 4239.78 530.19 4252.57 515.34C4254.65 512.93 4258.29 512.66 4260.7 514.74C4263.11 516.82 4263.38 520.46 4261.3 522.87C4249.54 536.52 4240.54 552.84 4235.28 570.08C4234.52 572.56 4232.24 574.16 4229.77 574.16V574.14ZM4249.5 581.33C4246.46 580.4 4244.74 577.18 4245.67 574.14C4251.4 555.39 4261.19 537.63 4273.98 522.78C4276.06 520.37 4279.7 520.1 4282.11 522.18C4284.52 524.26 4284.79 527.9 4282.71 530.31C4270.95 543.96 4261.95 560.29 4256.69 577.52C4255.93 580 4253.65 581.6 4251.18 581.6C4250.62 581.6 4250.06 581.52 4249.5 581.35V581.33ZM4469.39 676.56C4468.3 678.03 4466.59 678.89 4464.76 678.89H4404.57C4402.13 700.18 4384.01 716.77 4362.08 716.77C4340.15 716.77 4322.03 700.18 4319.59 678.89H4259.4C4257.57 678.89 4255.86 678.03 4254.77 676.56C4253.68 675.09 4253.36 673.2 4253.89 671.45L4285.1 568.72C4292.89 543.08 4312.27 523.76 4336.56 515.73C4334.32 511.55 4333.09 506.84 4333.09 502.01C4333.09 486.02 4346.1 473.02 4362.08 473.02C4378.06 473.02 4391.07 486.03 4391.07 502.01C4391.07 506.83 4389.85 511.53 4387.61 515.71C4411.93 523.74 4431.34 543.08 4439.13 568.76L4470.27 671.46C4470.8 673.21 4470.47 675.1 4469.38 676.56H4469.39ZM4474.72 581.33C4474.16 581.5 4473.59 581.58 4473.04 581.58C4470.57 581.58 4468.29 579.98 4467.53 577.5C4462.27 560.27 4453.27 543.94 4441.51 530.29C4439.43 527.88 4439.7 524.24 4442.11 522.16C4444.52 520.08 4448.16 520.35 4450.24 522.76C4463.04 537.61 4472.83 555.37 4478.55 574.12C4479.48 577.16 4477.77 580.39 4474.72 581.31V581.33ZM4496.14 573.88C4495.58 574.05 4495.01 574.13 4494.46 574.13C4491.99 574.13 4489.71 572.53 4488.95 570.05C4483.69 552.82 4474.69 536.49 4462.93 522.84C4460.85 520.43 4461.12 516.79 4463.53 514.71C4465.94 512.63 4469.58 512.9 4471.66 515.31C4484.46 530.16 4494.25 547.92 4499.97 566.67C4500.9 569.71 4499.19 572.94 4496.14 573.86V573.88Z" fill="#F9F9FE"/>
<path d="M4362.11 1327.4C4271.01 1327.4 4196.9 1401.51 4196.9 1492.61C4196.9 1583.71 4271.01 1657.82 4362.11 1657.82C4453.21 1657.82 4527.32 1583.71 4527.32 1492.61C4527.32 1401.51 4453.21 1327.4 4362.11 1327.4ZM4434.8 1586.84L4290.34 1589.26C4290.34 1589.26 4290.27 1589.26 4290.24 1589.26C4287.1 1589.26 4284.53 1586.74 4284.48 1583.59L4284.28 1571.56C4283.93 1550.81 4291.74 1531.11 4306.26 1516.09C4314.83 1507.23 4325.11 1500.67 4336.35 1496.7C4331.63 1494.32 4327.24 1491.22 4323.33 1487.44C4313.13 1477.58 4307.39 1464.34 4307.15 1450.17C4306.91 1435.99 4312.21 1422.57 4322.07 1412.37C4331.93 1402.17 4345.17 1396.43 4359.34 1396.19C4359.64 1396.19 4359.94 1396.19 4360.25 1396.19C4389.11 1396.19 4412.83 1419.42 4413.32 1448.39C4413.66 1468.77 4402.41 1486.69 4385.67 1495.86C4416.81 1505.68 4439.68 1534.56 4440.26 1568.96L4440.46 1580.99C4440.51 1584.17 4437.98 1586.8 4434.8 1586.85V1586.84Z" fill="#FEE5B1"/>
<path d="M4428.1 572.1C4420.69 547.66 4400.98 529.92 4376.87 524.73C4376.65 524.69 4376.44 524.65 4376.23 524.59C4371.66 523.65 4366.93 523.16 4362.1 523.16C4357.27 523.16 4352.45 523.67 4347.83 524.63C4347.63 524.68 4347.43 524.73 4347.22 524.77C4323.18 529.99 4303.52 547.7 4296.11 572.08L4280.5 623.45H4443.64L4428.08 572.12L4428.1 572.1Z" fill="#FEE5B1"/>
<path d="M4099.17 1434.49L4096.74 1431.98C4097.09 1432.73 4097.3 1433.55 4097.3 1434.43C4097.3 1435.52 4096.98 1436.52 4096.46 1437.39L4099.16 1434.5L4099.17 1434.49Z" fill="#FEE5B1"/>
<path d="M4362.11 511.63C4366.77 511.63 4371.34 512.03 4375.8 512.78C4378.22 509.72 4379.54 505.99 4379.54 502C4379.54 492.37 4371.71 484.53 4362.07 484.53C4352.43 484.53 4344.6 492.37 4344.6 502C4344.6 505.99 4345.93 509.73 4348.35 512.79C4352.83 512.03 4357.42 511.63 4362.1 511.63H4362.11Z" fill="#FEE5B1"/>
<path d="M3929 1548.35L3926.57 1550.86L3929.27 1553.75C3928.75 1552.88 3928.43 1551.88 3928.43 1550.79C3928.43 1549.91 3928.64 1549.09 3928.99 1548.34L3929 1548.35Z" fill="#FEE5B1"/>
<path d="M226.84 1192.1V1548.87C226.84 1557.82 234.12 1565.11 243.08 1565.11H599.85C608.8 1565.11 616.09 1557.83 616.09 1548.87V1192.1C616.09 1183.15 608.81 1175.87 599.85 1175.87H243.08C234.13 1175.87 226.84 1183.15 226.84 1192.1ZM288.88 1297.5C288.88 1294.32 291.46 1291.74 294.64 1291.74H321.06V1273.91C321.06 1270.73 323.64 1268.15 326.82 1268.15H346.17V1247.14C346.17 1243.96 348.75 1241.38 351.93 1241.38H548.26C551.44 1241.38 554.02 1243.96 554.02 1247.14V1443.47C554.02 1446.65 551.44 1449.23 548.26 1449.23H528.91V1470.24C528.91 1473.42 526.33 1476 523.15 1476H496.73V1493.83C496.73 1497.01 494.15 1499.59 490.97 1499.59H294.64C294.25 1499.59 293.87 1499.55 293.5 1499.48C293.25 1499.43 293.02 1499.34 292.79 1499.26C292.67 1499.22 292.54 1499.2 292.43 1499.15C292.17 1499.04 291.93 1498.9 291.69 1498.75C291.61 1498.7 291.52 1498.67 291.44 1498.62C290.81 1498.2 290.28 1497.66 289.86 1497.04C289.8 1496.95 289.76 1496.85 289.7 1496.75C289.57 1496.52 289.43 1496.3 289.33 1496.05C289.28 1495.93 289.25 1495.8 289.21 1495.67C289.13 1495.44 289.05 1495.21 289 1494.97C288.93 1494.65 288.91 1494.31 288.9 1493.98C288.9 1493.93 288.89 1493.88 288.89 1493.83V1297.5H288.88Z" fill="white"/>
<path d="M2655.64 352.22C2647.31 352.22 2640.54 358.99 2640.54 367.32C2640.54 375.65 2647.31 382.42 2655.64 382.42C2663.97 382.42 2670.74 375.65 2670.74 367.32C2670.74 358.99 2663.97 352.22 2655.64 352.22Z" fill="#FD9095"/>
<path d="M4759.11 744.44H4568.26V773.28C4568.26 788.59 4555.81 801.04 4540.5 801.04H4494.23V1009.32C4494.23 1014.81 4498.7 1019.28 4504.19 1019.28H4759.11C4764.6 1019.28 4769.07 1014.81 4769.07 1009.32V754.4C4769.07 748.91 4764.6 744.44 4759.11 744.44ZM4713.49 891.47L4584.86 965.73C4583.97 966.24 4582.97 966.5 4581.98 966.5C4580.99 966.5 4579.99 966.24 4579.1 965.73C4577.32 964.7 4576.22 962.8 4576.22 960.74V812.22C4576.22 810.16 4577.32 808.26 4579.1 807.23C4580.88 806.2 4583.08 806.2 4584.86 807.23L4713.49 881.49C4715.27 882.52 4716.37 884.42 4716.37 886.48C4716.37 888.54 4715.27 890.44 4713.49 891.47Z" fill="white"/>
<path d="M528.93 1437.7H542.52V1252.89H357.71V1268.14H523.17C526.35 1268.14 528.93 1270.72 528.93 1273.9V1437.7Z" fill="#F9F9FE"/>
<path d="M929.93 11.53C844.31 11.53 774.66 81.18 774.66 166.8C774.66 252.42 844.31 322.07 929.93 322.07C1015.55 322.07 1085.2 252.42 1085.2 166.8C1085.2 81.18 1015.54 11.53 929.93 11.53ZM1028.59 172.56H929.93C926.75 172.56 924.17 169.98 924.17 166.8V68.97C924.17 65.79 926.75 63.21 929.93 63.21C933.11 63.21 935.69 65.79 935.69 68.97V161.04H1028.59C1031.77 161.04 1034.35 163.62 1034.35 166.8C1034.35 169.98 1031.77 172.56 1028.59 172.56Z" fill="#B6B5C3"/>
<path d="M2655.64 289.53C2632.83 289.53 2611.41 298.39 2595.33 314.47C2592.63 317.17 2592.63 321.55 2595.33 324.25C2598.03 326.95 2602.41 326.95 2605.11 324.25C2619.04 310.32 2637.34 303.36 2655.64 303.36C2673.94 303.36 2692.24 310.32 2706.17 324.26C2707.48 325.57 2709.21 326.29 2711.06 326.29C2712.91 326.29 2714.64 325.57 2715.95 324.26C2718.65 321.56 2718.65 317.18 2715.95 314.48C2699.87 298.4 2678.45 289.54 2655.64 289.54V289.53Z" fill="#FD9095"/>
<path d="M496.74 1297.5V1464.48H517.4V1279.67H332.59V1291.73H490.98C494.16 1291.73 496.74 1294.31 496.74 1297.49V1297.5Z" fill="#F9F9FE"/>
<path d="M4587.74 950.76L4699.08 886.48L4587.74 822.2V950.76Z" fill="#FD9095"/>
<path d="M398.01 1393.13C406.34 1410.09 423.33 1420.62 442.35 1420.62C460.16 1420.62 476.45 1411.15 485.22 1395.85V1303.27H300.41V1376.79C311.64 1365.68 326.97 1359.2 343.33 1359.2C366.77 1359.2 387.73 1372.2 398.01 1393.13ZM437.02 1327.19C452.45 1327.19 465 1339.74 465 1355.17C465 1370.6 452.45 1383.15 437.02 1383.15C421.59 1383.15 409.04 1370.6 409.04 1355.17C409.04 1339.74 421.59 1327.19 437.02 1327.19Z" fill="#F9F9FE"/>
<path d="M437.02 1371.62C446.09 1371.62 453.48 1364.24 453.48 1355.16C453.48 1346.08 446.1 1338.7 437.02 1338.7C427.94 1338.7 420.56 1346.08 420.56 1355.16C420.56 1364.24 427.94 1371.62 437.02 1371.62Z" fill="#FD9095"/>
<path d="M4362.11 1315.88C4264.66 1315.88 4185.37 1395.16 4185.37 1492.62C4185.37 1590.08 4264.65 1669.36 4362.11 1669.36C4459.57 1669.36 4538.85 1590.08 4538.85 1492.62C4538.85 1395.16 4459.57 1315.88 4362.11 1315.88ZM4362.11 1657.82C4271.01 1657.82 4196.9 1583.71 4196.9 1492.61C4196.9 1401.51 4271.01 1327.4 4362.11 1327.4C4453.21 1327.4 4527.32 1401.51 4527.32 1492.61C4527.32 1583.71 4453.21 1657.82 4362.11 1657.82Z" fill="#454360"/>
<path d="M4385.68 1495.85C4402.42 1486.67 4413.67 1468.76 4413.33 1448.38C4412.84 1419.41 4389.12 1396.18 4360.26 1396.18C4359.96 1396.18 4359.66 1396.18 4359.35 1396.18C4345.17 1396.42 4331.93 1402.16 4322.08 1412.36C4312.22 1422.56 4306.92 1435.98 4307.16 1450.16C4307.4 1464.34 4313.14 1477.58 4323.34 1487.43C4327.25 1491.21 4331.64 1494.31 4336.36 1496.69C4325.11 1500.67 4314.83 1507.22 4306.27 1516.08C4291.75 1531.1 4283.94 1550.8 4284.29 1571.55L4284.49 1583.58C4284.54 1586.73 4287.11 1589.25 4290.25 1589.25C4290.28 1589.25 4290.32 1589.25 4290.35 1589.25L4434.81 1586.83C4437.99 1586.78 4440.53 1584.15 4440.47 1580.97L4440.27 1568.94C4439.69 1534.54 4416.82 1505.66 4385.68 1495.84V1495.85ZM4331.35 1479.15C4323.37 1471.43 4318.87 1461.07 4318.68 1449.97C4318.49 1438.87 4322.64 1428.36 4330.36 1420.38C4338.08 1412.4 4348.44 1407.9 4359.54 1407.71C4359.78 1407.71 4360.01 1407.71 4360.25 1407.71C4382.85 1407.71 4401.42 1425.9 4401.8 1448.58C4402.19 1471.5 4383.85 1490.45 4360.94 1490.84C4349.85 1491 4339.33 1486.88 4331.35 1479.16V1479.15ZM4295.91 1577.64L4295.8 1571.37C4295.5 1553.7 4302.16 1536.91 4314.54 1524.1C4326.92 1511.29 4343.48 1504.08 4361.15 1503.78C4361.53 1503.78 4361.9 1503.78 4362.28 1503.78C4398.42 1503.78 4428.12 1532.87 4428.73 1569.14L4428.83 1575.41L4295.89 1577.64H4295.91Z" fill="#454360"/>
<path d="M3653.18 1315.88C3555.73 1315.88 3476.44 1395.16 3476.44 1492.62C3476.44 1590.08 3555.72 1669.36 3653.18 1669.36C3750.64 1669.36 3829.92 1590.08 3829.92 1492.62C3829.92 1395.16 3750.64 1315.88 3653.18 1315.88ZM3653.18 1657.82C3562.08 1657.82 3487.97 1583.71 3487.97 1492.61C3487.97 1401.51 3562.08 1327.4 3653.18 1327.4C3744.28 1327.4 3818.39 1401.51 3818.39 1492.61C3818.39 1583.71 3744.28 1657.82 3653.18 1657.82Z" fill="#454360"/>
<path d="M3707.5 1514.25C3698.63 1505.68 3688.13 1499.45 3676.74 1495.85C3693.48 1486.67 3704.73 1468.76 3704.39 1448.38C3703.9 1419.41 3680.18 1396.18 3651.32 1396.18C3651.02 1396.18 3650.72 1396.18 3650.42 1396.18C3621.15 1396.67 3597.74 1420.88 3598.23 1450.16C3598.57 1470.55 3610.43 1488.08 3627.48 1496.68C3616.22 1500.66 3605.92 1507.22 3597.34 1516.09C3582.82 1531.11 3575.01 1550.81 3575.36 1571.56L3575.56 1583.59C3575.58 1585.12 3576.22 1586.57 3577.32 1587.64C3578.39 1588.68 3579.83 1589.26 3581.33 1589.26C3581.36 1589.26 3581.39 1589.26 3581.43 1589.26L3725.89 1586.84C3727.42 1586.81 3728.87 1586.18 3729.94 1585.08C3731 1583.98 3731.58 1582.51 3731.56 1580.98L3731.36 1568.95C3731.01 1548.2 3722.55 1528.77 3707.53 1514.25H3707.5ZM3609.75 1449.97C3609.37 1427.05 3627.7 1408.09 3650.61 1407.71C3650.85 1407.71 3651.08 1407.71 3651.32 1407.71C3673.92 1407.71 3692.49 1425.9 3692.87 1448.58C3693.25 1471.5 3674.92 1490.45 3652.01 1490.84C3651.77 1490.84 3651.54 1490.84 3651.3 1490.84C3628.7 1490.84 3610.13 1472.65 3609.75 1449.97ZM3586.98 1577.64L3586.87 1571.37C3586.57 1553.7 3593.23 1536.91 3605.61 1524.1C3617.99 1511.29 3634.55 1504.08 3652.22 1503.78C3652.6 1503.78 3652.97 1503.78 3653.35 1503.78C3670.61 1503.78 3686.95 1510.41 3699.49 1522.53C3712.3 1534.91 3719.51 1551.47 3719.81 1569.14L3719.92 1575.41L3586.98 1577.64Z" fill="#454360"/>
<path d="M4631.65 2674.76C4629.1 2674.76 4627.04 2676.82 4627.04 2679.37V2718.98C4627.04 2743.61 4607 2763.65 4582.37 2763.65C4557.74 2763.65 4537.7 2743.61 4537.7 2718.98V2679.37C4537.7 2676.82 4535.64 2674.76 4533.09 2674.76C4530.54 2674.76 4528.48 2676.82 4528.48 2679.37V2718.98C4528.48 2748.69 4552.65 2772.87 4582.37 2772.87C4612.09 2772.87 4636.26 2748.7 4636.26 2718.98V2679.37C4636.26 2676.82 4634.2 2674.76 4631.65 2674.76Z" fill="#B6B5C3"/>
<path d="M1239.78 1277.48C1241.43 1277.48 1242.95 1276.6 1243.77 1275.17C1244.59 1273.74 1244.59 1271.99 1243.77 1270.56L1189.11 1175.89C1188.29 1174.46 1186.76 1173.58 1185.12 1173.58C1183.48 1173.58 1181.95 1174.46 1181.13 1175.89L1126.47 1270.56C1125.65 1271.99 1125.65 1273.74 1126.47 1275.17C1127.29 1276.6 1128.82 1277.48 1130.46 1277.48H1239.78ZM1185.13 1187.42L1231.8 1268.26H1138.46L1185.13 1187.42Z" fill="#454360"/>
<path d="M4264.6 2523.78C4262.4 2522.51 4259.57 2523.26 4258.3 2525.47L4230.52 2573.58L4202.74 2525.47C4202.7 2525.39 4202.64 2525.33 4202.59 2525.26C4202.5 2525.12 4202.4 2524.98 4202.3 2524.85C4202.2 2524.73 4202.1 2524.63 4202 2524.52C4201.9 2524.42 4201.79 2524.31 4201.67 2524.22C4201.54 2524.11 4201.4 2524.02 4201.26 2523.93C4201.19 2523.88 4201.13 2523.82 4201.05 2523.78C4201.01 2523.75 4200.96 2523.74 4200.91 2523.72C4200.76 2523.64 4200.61 2523.58 4200.46 2523.52C4200.33 2523.47 4200.19 2523.41 4200.06 2523.37C4199.92 2523.33 4199.77 2523.3 4199.63 2523.27C4199.48 2523.24 4199.33 2523.21 4199.18 2523.2C4199.03 2523.19 4198.89 2523.19 4198.74 2523.19C4198.59 2523.19 4198.45 2523.19 4198.3 2523.2C4198.15 2523.21 4198 2523.25 4197.85 2523.28C4197.71 2523.31 4197.56 2523.33 4197.42 2523.38C4197.28 2523.42 4197.15 2523.48 4197.02 2523.53C4196.87 2523.59 4196.72 2523.65 4196.57 2523.73C4196.52 2523.75 4196.48 2523.77 4196.43 2523.79C4196.35 2523.83 4196.29 2523.89 4196.22 2523.94C4196.08 2524.03 4195.95 2524.12 4195.82 2524.23C4195.7 2524.33 4195.6 2524.43 4195.49 2524.54C4195.38 2524.65 4195.29 2524.75 4195.19 2524.86C4195.08 2524.99 4194.99 2525.13 4194.9 2525.27C4194.85 2525.34 4194.79 2525.4 4194.75 2525.48L4166.97 2573.59L4139.19 2525.48C4139.15 2525.4 4139.09 2525.34 4139.04 2525.27C4138.95 2525.13 4138.85 2524.99 4138.75 2524.86C4138.65 2524.74 4138.55 2524.64 4138.45 2524.53C4138.35 2524.43 4138.24 2524.32 4138.13 2524.23C4138 2524.12 4137.86 2524.03 4137.72 2523.94C4137.65 2523.89 4137.59 2523.83 4137.51 2523.79C4137.47 2523.76 4137.42 2523.75 4137.37 2523.73C4137.22 2523.65 4137.07 2523.59 4136.92 2523.53C4136.79 2523.48 4136.66 2523.42 4136.52 2523.38C4136.38 2523.34 4136.23 2523.31 4136.09 2523.28C4135.94 2523.25 4135.8 2523.22 4135.65 2523.21C4135.5 2523.2 4135.36 2523.2 4135.21 2523.2C4135.06 2523.2 4134.92 2523.2 4134.77 2523.21C4134.62 2523.22 4134.47 2523.26 4134.33 2523.28C4134.18 2523.31 4134.04 2523.34 4133.9 2523.38C4133.76 2523.42 4133.63 2523.48 4133.5 2523.53C4133.35 2523.59 4133.19 2523.66 4133.05 2523.73C4133 2523.75 4132.96 2523.77 4132.91 2523.79C4132.83 2523.83 4132.77 2523.89 4132.7 2523.94C4132.56 2524.03 4132.42 2524.13 4132.29 2524.23C4132.17 2524.33 4132.07 2524.43 4131.96 2524.53C4131.86 2524.63 4131.75 2524.74 4131.66 2524.86C4131.55 2524.99 4131.46 2525.13 4131.37 2525.27C4131.32 2525.34 4131.26 2525.4 4131.22 2525.48L4103.44 2573.59L4075.66 2525.48C4074.39 2523.28 4071.57 2522.52 4069.36 2523.79C4067.16 2525.06 4066.4 2527.88 4067.67 2530.09L4099.44 2585.12C4100.26 2586.55 4101.79 2587.43 4103.43 2587.43C4105.07 2587.43 4106.6 2586.55 4107.42 2585.12L4135.2 2537.01L4162.98 2585.12C4163.8 2586.55 4165.33 2587.43 4166.97 2587.43C4168.61 2587.43 4170.14 2586.55 4170.96 2585.12L4198.74 2537.01L4226.52 2585.12C4227.34 2586.55 4228.87 2587.43 4230.51 2587.43C4232.15 2587.43 4233.68 2586.55 4234.5 2585.12L4266.27 2530.09C4267.54 2527.89 4266.79 2525.07 4264.58 2523.79L4264.6 2523.78Z" fill="#FD9095"/>
<path d="M227.11 311.35C227.93 312.78 229.46 313.66 231.1 313.66C232.74 313.66 234.27 312.78 235.09 311.35L262.87 263.24L290.65 311.35C291.47 312.78 293 313.66 294.64 313.66C296.28 313.66 297.81 312.78 298.63 311.35L326.41 263.24L354.19 311.35C355.01 312.78 356.54 313.66 358.18 313.66C359.82 313.66 361.35 312.78 362.17 311.35L393.94 256.32C395.21 254.12 394.46 251.3 392.25 250.02C390.04 248.75 387.22 249.5 385.95 251.71L358.17 299.82L330.39 251.71C330.35 251.63 330.29 251.57 330.24 251.5C330.15 251.36 330.05 251.22 329.95 251.09C329.85 250.97 329.75 250.87 329.65 250.76C329.55 250.66 329.44 250.55 329.32 250.46C329.19 250.35 329.05 250.26 328.91 250.17C328.84 250.12 328.78 250.06 328.7 250.02C328.66 249.99 328.61 249.98 328.56 249.96C328.41 249.88 328.26 249.82 328.11 249.76C327.98 249.71 327.84 249.65 327.71 249.61C327.57 249.57 327.43 249.54 327.28 249.51C327.13 249.48 326.98 249.45 326.83 249.43C326.69 249.42 326.55 249.42 326.41 249.42C326.26 249.42 326.1 249.42 325.95 249.43C325.81 249.44 325.67 249.47 325.53 249.5C325.38 249.53 325.23 249.56 325.08 249.6C324.95 249.64 324.83 249.69 324.7 249.74C324.54 249.8 324.38 249.87 324.23 249.95C324.19 249.97 324.14 249.98 324.1 250.01C324.03 250.05 323.97 250.11 323.9 250.16C323.76 250.25 323.62 250.35 323.48 250.46C323.37 250.55 323.26 250.65 323.16 250.76C323.05 250.87 322.95 250.97 322.85 251.09C322.74 251.22 322.65 251.36 322.56 251.5C322.51 251.57 322.45 251.63 322.41 251.71L294.63 299.82L266.85 251.71C266.81 251.63 266.75 251.57 266.7 251.5C266.61 251.36 266.51 251.22 266.41 251.09C266.32 250.97 266.21 250.87 266.11 250.77C266.01 250.67 265.9 250.56 265.78 250.47C265.65 250.36 265.51 250.27 265.37 250.18C265.3 250.13 265.24 250.07 265.16 250.03C265.12 250 265.07 249.99 265.02 249.97C264.87 249.89 264.72 249.83 264.57 249.77C264.44 249.72 264.3 249.66 264.17 249.62C264.03 249.58 263.89 249.55 263.75 249.52C263.6 249.49 263.45 249.46 263.3 249.44C263.16 249.43 263.02 249.43 262.88 249.43C262.73 249.43 262.57 249.43 262.42 249.44C262.28 249.45 262.14 249.48 261.99 249.51C261.84 249.54 261.69 249.57 261.54 249.61C261.41 249.65 261.28 249.7 261.16 249.75C261 249.81 260.85 249.88 260.69 249.96C260.65 249.98 260.6 250 260.56 250.02C260.49 250.06 260.43 250.12 260.36 250.17C260.22 250.26 260.08 250.36 259.95 250.47C259.84 250.56 259.73 250.66 259.63 250.77C259.52 250.88 259.42 250.98 259.33 251.1C259.22 251.23 259.13 251.37 259.04 251.51C258.99 251.58 258.93 251.64 258.89 251.72L231.11 299.83L203.33 251.72C202.06 249.52 199.24 248.76 197.03 250.03C194.83 251.3 194.07 254.12 195.34 256.33L227.11 311.36V311.35Z" fill="#FD9095"/>
<path d="M3690.33 994.21H3721.16V1025.04C3721.16 1027.59 3723.22 1029.65 3725.77 1029.65C3728.32 1029.65 3730.38 1027.59 3730.38 1025.04V994.21H3761.21C3763.76 994.21 3765.82 992.15 3765.82 989.6C3765.82 987.05 3763.76 984.99 3761.21 984.99H3730.38V954.16C3730.38 951.61 3728.32 949.55 3725.77 949.55C3723.22 949.55 3721.16 951.61 3721.16 954.16V984.99H3690.33C3687.78 984.99 3685.72 987.05 3685.72 989.6C3685.72 992.15 3687.78 994.21 3690.33 994.21Z" fill="#FD9095"/>
<path d="M395.52 2262.03H308.36C305.81 2262.03 303.75 2264.09 303.75 2266.64C303.75 2269.19 305.81 2271.25 308.36 2271.25H395.52C398.07 2271.25 400.13 2269.19 400.13 2266.64C400.13 2264.09 398.07 2262.03 395.52 2262.03Z" fill="#454360"/>
<path d="M4226.11 118.69H4313.26C4315.81 118.69 4317.87 116.63 4317.87 114.08C4317.87 111.53 4315.81 109.47 4313.26 109.47H4226.11C4223.56 109.47 4221.5 111.53 4221.5 114.08C4221.5 116.63 4223.56 118.69 4226.11 118.69Z" fill="#B6B5C3"/>
<path d="M47.84 2538.42C21.46 2538.42 0 2559.88 0 2586.26C0 2612.64 21.46 2634.1 47.84 2634.1C74.22 2634.1 95.68 2612.64 95.68 2586.26C95.68 2559.88 74.22 2538.42 47.84 2538.42ZM47.84 2624.88C26.55 2624.88 9.22 2607.56 9.22 2586.26C9.22 2564.96 26.54 2547.64 47.84 2547.64C69.14 2547.64 86.46 2564.96 86.46 2586.26C86.46 2607.56 69.14 2624.88 47.84 2624.88Z" fill="#FD9095"/>
<path d="M2116.44 1473.73H2201.61C2204.79 1473.73 2207.37 1471.15 2207.37 1467.97V1460.95L2264.37 1485.13C2265.08 1485.43 2265.85 1485.59 2266.62 1485.59H2401.81C2404.8 1485.59 2407.29 1483.31 2407.55 1480.33L2423.23 1300.63C2423.37 1299.02 2422.83 1297.43 2421.74 1296.24C2420.65 1295.05 2419.11 1294.37 2417.49 1294.37H2325.09L2326 1195.44C2326.01 1193.9 2325.41 1192.42 2324.33 1191.33C2323.25 1190.24 2321.77 1189.62 2320.24 1189.62H2284.88C2282.65 1189.62 2280.62 1190.9 2279.67 1192.92L2230.42 1296.91L2207.37 1300.67V1289.95C2207.37 1286.77 2204.79 1284.19 2201.61 1284.19H2116.44C2113.26 1284.19 2110.68 1286.77 2110.68 1289.95V1467.99C2110.68 1471.17 2113.26 1473.75 2116.44 1473.75V1473.73ZM2207.37 1312.34L2235.26 1307.79C2237.13 1307.48 2238.73 1306.28 2239.54 1304.57L2288.52 1201.14H2314.41L2313.5 1300.07C2313.49 1301.61 2314.09 1303.09 2315.17 1304.18C2316.25 1305.27 2317.73 1305.89 2319.26 1305.89H2411.19L2408.19 1340.22H2352.13C2348.95 1340.22 2346.37 1342.8 2346.37 1345.98C2346.37 1349.16 2348.95 1351.74 2352.13 1351.74H2407.19L2404.36 1384.21H2352.13C2348.95 1384.21 2346.37 1386.79 2346.37 1389.97C2346.37 1393.15 2348.95 1395.73 2352.13 1395.73H2403.35L2400.52 1428.2H2352.13C2348.95 1428.2 2346.37 1430.78 2346.37 1433.96C2346.37 1437.14 2348.95 1439.72 2352.13 1439.72H2399.51L2396.51 1474.06H2267.77L2207.35 1448.43V1312.34H2207.37ZM2122.2 1295.7H2195.84V1462.21H2122.2V1295.7Z" fill="#454360"/>
<path d="M2367.6 486.34H2166.3C2163.12 486.34 2160.54 488.92 2160.54 492.1V516.47C2160.54 519.65 2163.12 522.23 2166.3 522.23H2367.6C2370.78 522.23 2373.36 519.65 2373.36 516.47V492.1C2373.36 488.92 2370.78 486.34 2367.6 486.34ZM2361.83 510.7H2172.06V497.86H2361.83V510.7Z" fill="#454360"/>
<path d="M2266.96 1633.28C2340.7 1633.28 2410.03 1604.56 2462.18 1552.42C2514.32 1500.28 2543.04 1430.95 2543.04 1357.2C2543.04 1283.45 2514.32 1214.13 2462.18 1161.98C2410.04 1109.84 2340.71 1081.12 2266.96 1081.12C2193.21 1081.12 2123.89 1109.84 2071.74 1161.98C2019.6 1214.12 1990.88 1283.45 1990.88 1357.2C1990.88 1430.95 2019.6 1500.27 2071.74 1552.42C2123.88 1604.56 2193.21 1633.28 2266.96 1633.28ZM2079.9 1170.14C2129.87 1120.17 2196.3 1092.65 2266.97 1092.65C2337.64 1092.65 2404.07 1120.17 2454.04 1170.14C2504.01 1220.11 2531.53 1286.54 2531.53 1357.21C2531.53 1427.88 2504.01 1494.31 2454.04 1544.28C2404.07 1594.25 2337.64 1621.77 2266.97 1621.77C2196.3 1621.77 2129.87 1594.25 2079.9 1544.28C2029.93 1494.31 2002.41 1427.88 2002.41 1357.21C2002.41 1286.54 2029.93 1220.11 2079.9 1170.14Z" fill="#454360"/>
<path d="M1877.54 2114.17C1854.35 2114.17 1835.49 2133.04 1835.49 2156.22C1835.49 2179.4 1854.35 2198.27 1877.54 2198.27C1900.73 2198.27 1919.59 2179.4 1919.59 2156.22C1919.59 2133.04 1900.73 2114.17 1877.54 2114.17ZM1877.54 2186.75C1860.71 2186.75 1847.01 2173.06 1847.01 2156.22C1847.01 2139.38 1860.7 2125.69 1877.54 2125.69C1894.38 2125.69 1908.07 2139.38 1908.07 2156.22C1908.07 2173.06 1894.38 2186.75 1877.54 2186.75Z" fill="#454360"/>
<path d="M1994.48 2198.28C2017.67 2198.28 2036.53 2179.41 2036.53 2156.23C2036.53 2133.05 2017.67 2114.18 1994.48 2114.18C1971.29 2114.18 1952.43 2133.05 1952.43 2156.23C1952.43 2179.41 1971.29 2198.28 1994.48 2198.28ZM1994.48 2125.7C2011.31 2125.7 2025.01 2139.39 2025.01 2156.23C2025.01 2173.07 2011.32 2186.76 1994.48 2186.76C1977.64 2186.76 1963.95 2173.07 1963.95 2156.23C1963.95 2139.39 1977.64 2125.7 1994.48 2125.7Z" fill="#454360"/>
<path d="M2608.91 2164.86C2613.68 2164.86 2617.54 2161 2617.54 2156.23C2617.54 2151.46 2613.68 2147.6 2608.91 2147.6C2604.14 2147.6 2600.28 2151.46 2600.28 2156.23C2600.28 2161 2604.14 2164.86 2608.91 2164.86Z" fill="#454360"/>
<path d="M2636.59 2164.86C2641.36 2164.86 2645.22 2161 2645.22 2156.23C2645.22 2151.46 2641.36 2147.6 2636.59 2147.6C2631.82 2147.6 2627.96 2151.46 2627.96 2156.23C2627.96 2161 2631.82 2164.86 2636.59 2164.86Z" fill="#454360"/>
<path d="M2664.26 2164.86C2669.03 2164.86 2672.89 2161 2672.89 2156.23C2672.89 2151.46 2669.03 2147.6 2664.26 2147.6C2659.49 2147.6 2655.63 2151.46 2655.63 2156.23C2655.63 2161 2659.49 2164.86 2664.26 2164.86Z" fill="#454360"/>
<path d="M1893.93 630.4H1828.67C1825.49 630.4 1822.91 632.98 1822.91 636.16V665.16C1822.91 668.34 1825.49 670.92 1828.67 670.92H1893.93C1897.11 670.92 1899.69 668.34 1899.69 665.16V636.16C1899.69 632.98 1897.11 630.4 1893.93 630.4ZM1888.16 659.4H1834.43V641.92H1888.16V659.4Z" fill="#454360"/>
<path d="M1996.65 630.4H1931.39C1928.21 630.4 1925.63 632.98 1925.63 636.16V665.16C1925.63 668.34 1928.21 670.92 1931.39 670.92H1996.65C1999.83 670.92 2002.41 668.34 2002.41 665.16V636.16C2002.41 632.98 1999.83 630.4 1996.65 630.4ZM1990.89 659.4H1937.16V641.92H1990.89V659.4Z" fill="#454360"/>
<path d="M4439.13 568.76C4431.34 543.08 4411.93 523.74 4387.61 515.71C4389.85 511.53 4391.07 506.83 4391.07 502.01C4391.07 486.02 4378.06 473.02 4362.08 473.02C4346.1 473.02 4333.09 486.03 4333.09 502.01C4333.09 506.83 4334.31 511.55 4336.56 515.73C4312.28 523.77 4292.89 543.09 4285.1 568.72L4253.89 671.45C4253.36 673.2 4253.69 675.09 4254.77 676.56C4255.86 678.03 4257.57 678.89 4259.4 678.89H4319.59C4322.03 700.18 4340.15 716.77 4362.08 716.77C4384.01 716.77 4402.13 700.18 4404.57 678.89H4464.76C4466.58 678.89 4468.3 678.03 4469.39 676.56C4470.48 675.09 4470.81 673.2 4470.28 671.46L4439.14 568.76H4439.13ZM4362.08 484.54C4371.71 484.54 4379.55 492.38 4379.55 502.01C4379.55 506 4378.22 509.73 4375.81 512.79C4371.35 512.03 4366.78 511.64 4362.12 511.64C4357.46 511.64 4352.85 512.04 4348.37 512.8C4345.95 509.74 4344.62 506 4344.62 502.01C4344.62 492.38 4352.46 484.54 4362.09 484.54H4362.08ZM4296.13 572.07C4303.54 547.69 4323.2 529.98 4347.24 524.76C4347.44 524.73 4347.64 524.68 4347.85 524.62C4352.47 523.66 4357.24 523.15 4362.12 523.15C4367 523.15 4371.67 523.64 4376.25 524.58C4376.46 524.64 4376.67 524.69 4376.89 524.72C4401 529.92 4420.71 547.65 4428.12 572.09L4443.68 623.42H4280.54L4296.15 572.05L4296.13 572.07ZM4362.08 705.24C4346.51 705.24 4333.57 693.8 4331.22 678.89H4392.95C4390.59 693.8 4377.65 705.24 4362.09 705.24H4362.08ZM4267.18 667.37L4277.02 634.97H4447.16L4456.99 667.37H4267.18Z" fill="#454360"/>
<path d="M4260.7 514.72C4258.29 512.64 4254.65 512.91 4252.57 515.32C4239.77 530.17 4229.98 547.93 4224.26 566.68C4223.33 569.72 4225.04 572.95 4228.09 573.87C4228.65 574.04 4229.22 574.12 4229.77 574.12C4232.24 574.12 4234.52 572.52 4235.28 570.04C4240.54 552.81 4249.54 536.48 4261.3 522.83C4263.38 520.42 4263.11 516.78 4260.7 514.7V514.72Z" fill="#454360"/>
<path d="M4256.7 577.5C4261.96 560.27 4270.96 543.94 4282.72 530.29C4284.8 527.88 4284.53 524.24 4282.12 522.16C4279.71 520.08 4276.07 520.35 4273.99 522.76C4261.19 537.61 4251.4 555.37 4245.68 574.12C4244.75 577.16 4246.46 580.39 4249.51 581.31C4250.07 581.48 4250.64 581.56 4251.19 581.56C4253.66 581.56 4255.94 579.96 4256.7 577.48V577.5Z" fill="#454360"/>
<path d="M4471.66 515.32C4469.58 512.91 4465.94 512.64 4463.53 514.72C4461.12 516.8 4460.85 520.44 4462.93 522.85C4474.69 536.5 4483.69 552.82 4488.95 570.06C4489.71 572.54 4491.99 574.14 4494.46 574.14C4495.02 574.14 4495.58 574.06 4496.14 573.89C4499.18 572.96 4500.9 569.74 4499.97 566.7C4494.24 547.95 4484.45 530.19 4471.66 515.34V515.32Z" fill="#454360"/>
<path d="M4450.24 522.77C4448.16 520.36 4444.52 520.09 4442.11 522.17C4439.7 524.25 4439.43 527.89 4441.51 530.3C4453.27 543.95 4462.27 560.28 4467.53 577.51C4468.29 579.99 4470.57 581.59 4473.04 581.59C4473.6 581.59 4474.16 581.51 4474.72 581.34C4477.76 580.41 4479.48 577.19 4478.55 574.15C4472.82 555.4 4463.03 537.64 4450.24 522.79V522.77Z" fill="#454360"/>
<path d="M215.32 1192.1V1548.87C215.32 1564.18 227.77 1576.63 243.08 1576.63H599.85C615.16 1576.63 627.61 1564.18 627.61 1548.87V1192.1C627.61 1176.79 615.16 1164.34 599.85 1164.34H243.08C227.77 1164.34 215.32 1176.79 215.32 1192.1ZM616.08 1192.1V1548.87C616.08 1557.82 608.8 1565.11 599.84 1565.11H243.08C234.13 1565.11 226.84 1557.83 226.84 1548.87V1192.1C226.84 1183.15 234.12 1175.87 243.08 1175.87H599.85C608.8 1175.87 616.09 1183.15 616.09 1192.1H616.08Z" fill="#454360"/>
<path d="M437.02 1383.15C452.45 1383.15 465 1370.6 465 1355.17C465 1339.74 452.45 1327.19 437.02 1327.19C421.59 1327.19 409.04 1339.74 409.04 1355.17C409.04 1370.6 421.59 1383.15 437.02 1383.15ZM437.02 1338.71C446.09 1338.71 453.48 1346.09 453.48 1355.17C453.48 1364.25 446.1 1371.63 437.02 1371.63C427.94 1371.63 420.56 1364.25 420.56 1355.17C420.56 1346.09 427.94 1338.71 437.02 1338.71Z" fill="#454360"/>
<path d="M289 1494.97C289.05 1495.21 289.13 1495.44 289.21 1495.67C289.25 1495.8 289.28 1495.93 289.33 1496.05C289.43 1496.3 289.57 1496.52 289.7 1496.75C289.76 1496.84 289.8 1496.95 289.86 1497.04C290.28 1497.67 290.82 1498.2 291.44 1498.62C291.52 1498.67 291.61 1498.71 291.69 1498.75C291.93 1498.89 292.17 1499.04 292.43 1499.15C292.55 1499.2 292.67 1499.22 292.79 1499.26C293.02 1499.34 293.26 1499.43 293.5 1499.48C293.87 1499.56 294.25 1499.59 294.64 1499.59H490.97C494.15 1499.59 496.73 1497.01 496.73 1493.83V1476H523.15C526.33 1476 528.91 1473.42 528.91 1470.24V1449.23H548.26C551.44 1449.23 554.02 1446.65 554.02 1443.47V1247.14C554.02 1243.96 551.44 1241.38 548.26 1241.38H351.93C348.75 1241.38 346.17 1243.96 346.17 1247.14V1268.15H326.82C323.64 1268.15 321.06 1270.73 321.06 1273.91V1291.74H294.64C291.46 1291.74 288.88 1294.32 288.88 1297.5V1493.83C288.88 1493.88 288.89 1493.93 288.89 1493.98C288.89 1494.31 288.92 1494.65 288.99 1494.97H289ZM300.42 1488.07L300.47 1395.44C309.24 1380.16 325.54 1370.72 343.34 1370.72C362.36 1370.72 379.35 1381.25 387.68 1398.21C397.97 1419.14 418.92 1432.14 442.36 1432.14C458.69 1432.14 474 1425.69 485.23 1414.61V1488.07H300.42ZM357.71 1252.9H542.52V1437.71H528.93V1273.92C528.93 1270.74 526.35 1268.16 523.17 1268.16H357.71V1252.9ZM332.59 1279.67H517.4V1464.48H496.74V1297.5C496.74 1294.32 494.16 1291.74 490.98 1291.74H332.59V1279.67ZM300.41 1303.26H485.22V1395.84C476.45 1411.15 460.17 1420.61 442.35 1420.61C423.33 1420.61 406.34 1410.08 398.01 1393.12C387.72 1372.19 366.77 1359.19 343.33 1359.19C326.97 1359.19 311.64 1365.67 300.41 1376.78V1303.26Z" fill="#454360"/>
<path d="M2069.14 3077.33C2072.32 3077.33 2074.9 3074.75 2074.9 3071.57H2063.37C2063.37 3074.75 2065.95 3077.33 2069.13 3077.33H2069.14Z" fill="#454360"/>
<path d="M3071.75 3077.33C3074.93 3077.33 3077.51 3074.75 3077.51 3071.57H3065.98C3065.98 3074.75 3068.56 3077.33 3071.74 3077.33H3071.75Z" fill="#454360"/>
<path d="M2983.55 2934.21L2963.5 2484.19L3016.22 2263.58H3408.03V2445.02C3408.03 2460.33 3420.48 2472.78 3435.79 2472.78H3792.56C3807.87 2472.78 3820.32 2460.33 3820.32 2445.02V2263.58H4077.75C4089.85 2290.23 4107.18 2316.17 4126.2 2335.19C4153.98 2362.97 4196.65 2387.35 4234.91 2397.3C4240.94 2398.87 4247.07 2399.63 4253.17 2399.63C4272.36 2399.63 4291.18 2392.07 4305.05 2378.2L4321.7 2361.55C4331.23 2352.02 4331.23 2336.51 4321.7 2326.99L4282.96 2288.25C4278.34 2283.63 4272.21 2281.09 4265.68 2281.09C4259.15 2281.09 4253.01 2283.63 4248.4 2288.25L4214.64 2322.01C4210.57 2326.08 4204.36 2327.09 4199.19 2324.52C4191.22 2320.56 4178.57 2312.71 4163.63 2297.77C4149.11 2283.25 4141.6 2271.21 4137.84 2263.58H4250.68C4320.69 2263.58 4377.65 2206.62 4377.65 2136.61V1789.26C4389.53 1786.62 4398.44 1776 4398.44 1763.34C4398.44 1748.7 4386.53 1736.78 4371.88 1736.78C4357.23 1736.78 4345.32 1748.69 4345.32 1763.34C4345.32 1776 4354.23 1786.62 4366.11 1789.26V2136.61C4366.11 2200.27 4314.32 2252.06 4250.66 2252.06H4137.5C4138.16 2250.58 4139.08 2249.21 4140.27 2248.01L4174.21 2214.07C4183.74 2204.54 4183.74 2189.03 4174.21 2179.51L4135.47 2140.77C4125.94 2131.24 4110.43 2131.24 4100.9 2140.77L4084.02 2157.65C4065.86 2175.81 4058.5 2202.51 4064.81 2227.34C4066.87 2235.44 4069.59 2243.74 4072.87 2252.07H3820.33V2088.26C3820.33 2072.95 3807.88 2060.5 3792.57 2060.5H3435.8C3420.49 2060.5 3408.04 2072.95 3408.04 2088.26V2252.07H3018.98L3066.53 2053.1C3082.31 1987.08 3081.02 1917.61 3062.81 1852.22L2946.2 1433.54L2965.09 1019.06C2965.59 1008.16 2961.71 997.82 2954.17 989.93C2946.63 982.04 2936.48 977.7 2925.57 977.7H2900.46C2873.38 977.7 2847.99 988.32 2828.96 1007.59C2821.24 1015.41 2814.99 1024.28 2810.27 1033.85V948.03H2835.83C2839.01 948.03 2841.59 945.45 2841.59 942.27V830.76C2841.59 827.58 2839.01 825 2835.83 825H2810.27V784.18H2835.83C2839.01 784.18 2841.59 781.6 2841.59 778.42V666.91C2841.59 663.73 2839.01 661.15 2835.83 661.15H2810.27V579.88H3990.44C3993.08 591.76 4003.7 600.67 4016.36 600.67C4031 600.67 4042.92 588.76 4042.92 574.11C4042.92 559.46 4031.01 547.55 4016.36 547.55C4003.7 547.55 3993.08 556.46 3990.44 568.34H2810.27V551.77C2810.27 491.51 2761.24 442.48 2700.98 442.48H1832.95C1772.69 442.48 1723.66 491.51 1723.66 551.77V568.34H894.29C891.25 484.14 821.81 416.57 736.88 416.57C651.95 416.57 582.51 484.13 579.47 568.34H554.52C484.51 568.34 427.55 625.3 427.55 695.31V1042.66C415.67 1045.3 406.76 1055.92 406.76 1068.58C406.76 1083.22 418.67 1095.14 433.32 1095.14C447.97 1095.14 459.88 1083.23 459.88 1068.58C459.88 1055.92 450.97 1045.3 439.09 1042.66V695.31C439.09 631.65 490.88 579.86 554.54 579.86H579.49C582.53 664.06 651.97 731.63 736.9 731.63C821.83 731.63 891.27 664.07 894.31 579.86H1723.68V750.26H1698.12C1694.94 750.26 1692.36 752.84 1692.36 756.02V867.53C1692.36 870.71 1694.94 873.29 1698.12 873.29H1723.68V932.81L1530.01 784.35C1506.74 766.51 1476.88 759.43 1448.08 764.92C1419.28 770.41 1394.11 787.97 1379.03 813.11C1352.51 857.31 1362.97 914.79 1403.36 946.81L1723.69 1200.82V1367.41L1658.12 1333.16C1632.51 1319.78 1603.4 1317.71 1576.15 1327.33C1548.9 1336.95 1527.54 1356.83 1516 1383.32L1515.86 1383.64C1505.45 1407.54 1504.46 1434.24 1513.08 1458.84C1521.7 1483.44 1539.14 1503.69 1562.19 1515.86L1593.17 1532.22C1553.65 1533.09 1517.54 1556.63 1501.22 1594.11L1501.08 1594.42C1490.67 1618.32 1489.68 1645.02 1498.3 1669.62C1506.92 1694.22 1524.36 1714.47 1547.41 1726.64L1566.71 1736.83C1527.31 1737.35 1490.05 1760.62 1473.47 1798.69L1473.33 1799C1462.92 1822.9 1461.93 1849.6 1470.55 1874.2C1479.17 1898.8 1496.61 1919.05 1519.66 1931.22L1723.69 2038.97V2306.75C1723.69 2367.02 1772.72 2416.04 1832.98 2416.04H2066.27L2153.31 2534.07L2156.77 2934.21H2069.17C2065.99 2934.21 2063.41 2936.79 2063.41 2939.97V3071.57H2074.94V2945.74H3066.02V3071.57H3077.55V2939.97C3077.55 2936.79 3074.97 2934.21 3071.79 2934.21H2983.55ZM4356.83 1763.35C4356.83 1755.06 4363.57 1748.32 4371.86 1748.32C4380.15 1748.32 4386.89 1755.06 4386.89 1763.35C4386.89 1771.64 4380.15 1778.38 4371.86 1778.38C4363.57 1778.38 4356.83 1771.64 4356.83 1763.35ZM4092.17 2165.79L4109.05 2148.91C4111.57 2146.39 4114.88 2145.13 4118.18 2145.13C4121.48 2145.13 4124.79 2146.39 4127.31 2148.91L4166.05 2187.65C4171.09 2192.69 4171.09 2200.88 4166.05 2205.92L4132.11 2239.86C4127.25 2244.72 4124.74 2251.23 4124.82 2257.79C4124.82 2257.79 4124.82 2257.81 4124.82 2257.82C4124.82 2257.83 4124.82 2257.85 4124.82 2257.86C4124.87 2261.42 4125.68 2264.99 4127.3 2268.33C4131.4 2276.74 4139.62 2290.08 4155.46 2305.92C4171.5 2321.96 4185.3 2330.51 4194.04 2334.85C4203.65 2339.62 4215.19 2337.74 4222.76 2330.16L4256.53 2296.4C4258.97 2293.96 4262.21 2292.62 4265.66 2292.62C4269.11 2292.62 4272.35 2293.96 4274.79 2296.4L4313.53 2335.14C4318.57 2340.18 4318.57 2348.37 4313.53 2353.41L4296.88 2370.06C4281.48 2385.46 4258.84 2391.63 4237.79 2386.15C4201.37 2376.67 4160.76 2353.47 4134.33 2327.04C4115.52 2308.22 4098.45 2282.29 4086.9 2255.88C4086.82 2255.65 4086.72 2255.42 4086.6 2255.2C4082.13 2244.89 4078.51 2234.52 4075.96 2224.49C4070.65 2203.58 4076.85 2181.08 4092.15 2165.79H4092.17ZM3419.55 2088.25C3419.55 2079.3 3426.83 2072.01 3435.79 2072.01H3792.56C3801.51 2072.01 3808.8 2079.29 3808.8 2088.25V2445.02C3808.8 2453.97 3801.52 2461.26 3792.56 2461.26H3435.79C3426.84 2461.26 3419.55 2453.98 3419.55 2445.02V2088.25ZM2812.33 672.66H2830.06V772.65H2812.33V672.66ZM4016.35 559.07C4024.64 559.07 4031.38 565.81 4031.38 574.1C4031.38 582.39 4024.64 589.13 4016.35 589.13C4008.06 589.13 4001.32 582.39 4001.32 574.1C4001.32 565.81 4008.06 559.07 4016.35 559.07ZM2810.26 836.52H2830.06V936.51H2810.26V836.52ZM448.33 1068.58C448.33 1076.87 441.59 1083.61 433.3 1083.61C425.01 1083.61 418.27 1076.87 418.27 1068.58C418.27 1060.29 425.01 1053.55 433.3 1053.55C441.59 1053.55 448.33 1060.29 448.33 1068.58ZM736.86 720.1C656.35 720.1 590.86 654.6 590.86 574.1C590.86 493.6 656.36 428.1 736.86 428.1C817.36 428.1 882.86 493.6 882.86 574.1C882.86 654.6 817.36 720.1 736.86 720.1ZM1721.57 861.78H1703.84V761.79H1721.57V861.78ZM2810.26 1144.51C2811.53 1143.44 2812.35 1141.84 2812.33 1140.05L2811.53 1079.33C2811.21 1055.36 2820.31 1032.76 2837.15 1015.69C2853.99 998.63 2876.47 989.23 2900.44 989.23H2925.55C2933.28 989.23 2940.48 992.31 2945.82 997.9C2951.16 1003.49 2953.91 1010.82 2953.55 1018.54L2934.62 1433.94C2934.59 1434.55 2934.66 1435.16 2934.83 1435.75L3051.69 1855.31C3069.38 1918.82 3070.63 1986.29 3055.31 2050.42L3007.12 2252.07H2810.26V1144.51ZM1410.47 937.79C1374.6 909.35 1365.32 858.3 1388.87 819.05C1402.27 796.72 1424.62 781.12 1450.2 776.25C1475.78 771.38 1502.3 777.67 1522.96 793.51L1723.64 947.34V1186.12L1410.47 937.79ZM1567.52 1505.67C1547.05 1494.86 1531.56 1476.88 1523.91 1455.03C1516.26 1433.19 1517.13 1409.47 1526.37 1388.25L1526.51 1387.93C1536.76 1364.4 1555.73 1346.74 1579.93 1338.2C1589.95 1334.66 1600.26 1332.91 1610.51 1332.91C1625.01 1332.91 1639.4 1336.43 1652.73 1343.39L1933.45 1490.03C1954.8 1501.18 1970.66 1519.95 1978.1 1542.86C1985.54 1565.77 1983.73 1590.27 1973.01 1611.84L1972.22 1613.42C1961.15 1635.68 1942.03 1652.13 1918.37 1659.76C1894.71 1667.38 1869.58 1665.19 1847.6 1653.58L1567.52 1505.67ZM2742.71 728.42V2053.69H1927.17C1932.12 2047.67 1936.45 2041.07 1940.01 2033.9L1940.79 2032.32C1952.87 2008.03 1954.9 1980.45 1946.53 1954.65C1938.15 1928.85 1920.3 1907.72 1896.26 1895.17C1896.21 1895.15 1896.17 1895.12 1896.12 1895.1L1878.44 1886.47C1888.06 1886.18 1897.7 1884.54 1907.13 1881.5C1933.77 1872.92 1955.3 1854.39 1967.77 1829.32L1968.55 1827.74C1980.63 1803.45 1982.66 1775.87 1974.29 1750.07C1965.91 1724.27 1948.06 1703.15 1924.01 1690.59C1923.97 1690.57 1923.92 1690.55 1923.88 1690.52L1893.65 1675.68C1903.12 1675.36 1912.62 1673.71 1921.91 1670.72C1948.55 1662.14 1970.08 1643.61 1982.55 1618.55L1983.34 1616.97C1995.42 1592.68 1997.45 1565.1 1989.08 1539.3C1980.7 1513.5 1962.85 1492.38 1938.8 1479.82L1788.97 1401.55V728.42H2742.72H2742.71ZM1788.96 716.89V601.09H2742.71V716.89H1788.96ZM2742.71 2252.26H1788.96V2073.46L1799.68 2079.12C1814.74 2087.08 1831.12 2091.1 1847.64 2091.1C1858.26 2091.1 1868.95 2089.43 1879.37 2086.07C1893.16 2081.63 1905.56 2074.5 1916.06 2065.21H2742.71V2252.26ZM1552.74 1716.45C1532.27 1705.64 1516.78 1687.66 1509.13 1665.81C1501.48 1643.96 1502.35 1620.25 1511.6 1599.02L1511.74 1598.71C1528.7 1559.77 1569.73 1537.73 1611.51 1545.13C1615.29 1545.8 1619.07 1546.73 1622.75 1547.88L1842.22 1663.78C1846.14 1665.85 1850.15 1667.65 1854.22 1669.18L1918.74 1700.84C1940.06 1712 1955.89 1730.75 1963.33 1753.64C1970.77 1776.55 1968.96 1801.05 1958.23 1822.62L1957.45 1824.2C1946.38 1846.46 1927.26 1862.91 1903.6 1870.54C1879.94 1878.17 1854.81 1875.97 1832.83 1864.36L1552.75 1716.46L1552.74 1716.45ZM1524.99 1921.03C1504.52 1910.22 1489.03 1892.24 1481.38 1870.39C1473.73 1848.55 1474.6 1824.83 1483.85 1803.6L1483.99 1803.29C1503.15 1759.32 1553.35 1737.55 1598.4 1753.59L1827.44 1874.54C1830.31 1876.05 1833.23 1877.43 1836.18 1878.65L1891 1905.41C1912.32 1916.57 1928.15 1935.31 1935.58 1958.2C1943.02 1981.11 1941.21 2005.61 1930.48 2027.18L1929.7 2028.76C1918.63 2051.02 1899.51 2067.47 1875.85 2075.1C1852.19 2082.72 1827.06 2080.53 1805.08 2068.92L1525 1921.02L1524.99 1921.03ZM1832.94 2404.51C1779.03 2404.51 1735.17 2360.65 1735.17 2306.74V2045.05L1777.44 2067.37V2258.02C1777.44 2261.2 1780.02 2263.78 1783.2 2263.78H2748.47C2751.65 2263.78 2754.23 2261.2 2754.23 2258.02V595.33C2754.23 592.15 2751.65 589.57 2748.47 589.57H1783.2C1780.02 589.57 1777.44 592.15 1777.44 595.33V1395.53L1735.17 1373.45V551.77C1735.17 497.86 1779.03 454.01 1832.94 454.01H2700.97C2754.88 454.01 2798.74 497.87 2798.74 551.77V2254.05C2797.86 2255.06 2797.3 2256.37 2797.3 2257.82C2797.3 2259.27 2797.85 2260.58 2798.74 2261.59V2306.74C2798.74 2360.65 2754.88 2404.51 2700.97 2404.51H1832.94ZM2168.27 2934.21L2164.79 2532.11C2164.78 2530.9 2164.39 2529.72 2163.67 2528.74L2080.56 2416.04H2700.97C2761.24 2416.04 2810.26 2367.01 2810.26 2306.75V2263.59H3004.37L2952.1 2482.3C2951.98 2482.82 2951.92 2483.36 2951.95 2483.9L2972.01 2934.21H2168.27Z" fill="#454360"/>
<path d="M1209.06 2364.09C1209.06 2357.88 1206.22 2352.32 1201.77 2348.64C1201.74 2348.61 1201.71 2348.59 1201.67 2348.57C1198.22 2345.75 1193.81 2344.05 1189.02 2344.05H873.51C868.34 2344.05 863.64 2346.03 860.09 2349.25C860.07 2349.27 860.05 2349.29 860.03 2349.31C856.02 2352.98 853.48 2358.23 853.48 2364.09V2550.61C853.48 2561.66 862.47 2570.65 873.52 2570.65H1122.97C1122.75 2573.06 1122.62 2575.49 1122.62 2577.95C1122.62 2622.44 1158.81 2658.63 1203.3 2658.63C1247.79 2658.63 1283.98 2622.44 1283.98 2577.95C1283.98 2533.46 1250.87 2500.47 1209.07 2497.5V2364.09H1209.06ZM1197.18 2361.65C1197.41 2362.42 1197.54 2363.24 1197.54 2364.09V2497.5C1177.46 2498.93 1159.38 2507.72 1146.02 2521.21L1071.86 2469.42L1197.19 2361.66L1197.18 2361.65ZM1186.57 2355.58L1029.51 2490.63L997.02 2462.35L874.36 2355.59H1186.57V2355.58ZM865.51 2553.46C865.19 2552.57 865.01 2551.61 865.01 2550.61V2364.09C865.01 2363.65 865.05 2363.23 865.12 2362.81L983.96 2466.25L865.52 2553.46H865.51ZM877.26 2559.12L992.86 2474L1025.7 2502.59C1026.78 2503.53 1028.13 2504.01 1029.48 2504.01C1030.83 2504.01 1032.16 2503.55 1033.24 2502.62L1062.83 2477.18L1138.47 2530C1132.11 2538.57 1127.43 2548.44 1124.87 2559.13H877.27L877.26 2559.12ZM1272.45 2577.95C1272.45 2616.08 1241.43 2647.1 1203.3 2647.1C1165.17 2647.1 1134.15 2616.08 1134.15 2577.95C1134.15 2539.82 1165.17 2508.8 1203.3 2508.8C1241.43 2508.8 1272.45 2539.82 1272.45 2577.95Z" fill="#454360"/>
<path d="M1198.12 2539.14C1195.98 2542.11 1193.53 2544.8 1190.77 2547.21C1188 2549.61 1184.32 2551.9 1179.7 2554.07C1176.61 2555.52 1174.45 2556.7 1173.23 2557.62C1172.01 2558.54 1171.4 2559.97 1171.4 2561.91C1171.4 2563.59 1172.02 2565.07 1173.26 2566.34C1174.5 2567.62 1175.92 2568.26 1177.52 2568.26C1180.88 2568.26 1187.4 2564.54 1197.09 2557.1V2609.16C1197.09 2612.21 1197.79 2614.52 1199.21 2616.08C1200.62 2617.64 1202.49 2618.43 1204.82 2618.43C1210.05 2618.43 1212.66 2614.6 1212.66 2606.93V2541.43C1212.66 2538.68 1212.05 2536.53 1210.83 2534.97C1209.61 2533.41 1207.99 2532.62 1205.97 2532.62C1204.18 2532.62 1202.96 2532.96 1202.31 2533.65C1201.66 2534.34 1200.27 2536.17 1198.13 2539.14H1198.12Z" fill="#454360"/>
<path d="M448.02 1882.86V1700.83C448.02 1699.97 447.82 1699.17 447.49 1698.44C459.64 1696 468.82 1685.26 468.82 1672.4C468.82 1657.76 456.91 1645.84 442.26 1645.84C427.61 1645.84 415.7 1657.75 415.7 1672.4C415.7 1685.25 424.88 1696 437.03 1698.44C436.69 1699.17 436.5 1699.98 436.5 1700.83V1882.86C436.5 1952.87 493.46 2009.83 563.47 2009.83H910.26C973.92 2009.83 1025.71 2061.62 1025.71 2125.28V2222.25C1013.54 2224.67 1004.35 2235.43 1004.35 2248.29C1004.35 2262.93 1016.26 2274.85 1030.91 2274.85C1045.56 2274.85 1057.47 2262.94 1057.47 2248.29C1057.47 2235.83 1048.84 2225.35 1037.25 2222.5V2125.28C1037.25 2055.27 980.29 1998.31 910.28 1998.31H563.49C499.83 1998.31 448.04 1946.52 448.04 1882.86H448.02ZM427.23 1672.4C427.23 1664.11 433.97 1657.37 442.26 1657.37C450.55 1657.37 457.29 1664.11 457.29 1672.4C457.29 1680.69 450.55 1687.43 442.26 1687.43C433.97 1687.43 427.23 1680.69 427.23 1672.4ZM1045.93 2248.29C1045.93 2256.58 1039.19 2263.32 1030.9 2263.32C1022.61 2263.32 1015.87 2256.58 1015.87 2248.29C1015.87 2240 1022.61 2233.26 1030.9 2233.26C1039.19 2233.26 1045.93 2240 1045.93 2248.29Z" fill="#454360"/>
<path d="M2655.64 340.69C2640.96 340.69 2629.02 352.63 2629.02 367.31C2629.02 381.99 2640.96 393.94 2655.64 393.94C2670.32 393.94 2682.26 382 2682.26 367.31C2682.26 352.62 2670.32 340.69 2655.64 340.69ZM2655.64 382.42C2647.31 382.42 2640.54 375.65 2640.54 367.32C2640.54 358.99 2647.31 352.22 2655.64 352.22C2663.97 352.22 2670.74 358.99 2670.74 367.32C2670.74 375.65 2663.97 382.42 2655.64 382.42Z" fill="#454360"/>
<path d="M2518.65 212.12C2511.46 219.31 2511.46 231.01 2518.65 238.2C2525.84 245.39 2537.54 245.39 2544.73 238.2C2574.31 208.62 2613.69 192.34 2655.64 192.34C2697.59 192.34 2736.97 208.63 2766.55 238.2C2770.03 241.68 2774.66 243.6 2779.59 243.6C2784.52 243.6 2789.15 241.68 2792.63 238.2C2799.82 231.01 2799.82 219.31 2792.63 212.12C2717.1 136.59 2594.19 136.59 2518.66 212.12H2518.65ZM2784.47 230.05C2783.16 231.36 2781.43 232.08 2779.58 232.08C2777.73 232.08 2776 231.36 2774.69 230.05C2742.94 198.3 2700.66 180.81 2655.63 180.81C2610.6 180.81 2568.32 198.3 2536.57 230.05C2533.87 232.75 2529.49 232.75 2526.79 230.05C2524.09 227.35 2524.09 222.97 2526.79 220.27C2597.83 149.23 2713.42 149.23 2784.46 220.27C2787.16 222.97 2787.16 227.35 2784.46 230.05H2784.47Z" fill="#454360"/>
<path d="M2552.91 261.69C2545.72 268.88 2545.72 280.58 2552.91 287.77C2560.1 294.96 2571.8 294.96 2578.99 287.77C2599.43 267.33 2626.65 256.08 2655.63 256.08C2684.61 256.08 2711.84 267.34 2732.28 287.77C2735.76 291.25 2740.39 293.17 2745.32 293.17C2750.25 293.17 2754.88 291.25 2758.36 287.77C2765.55 280.58 2765.55 268.88 2758.36 261.69C2701.72 205.05 2609.55 205.05 2552.92 261.69H2552.91ZM2750.21 279.62C2748.9 280.93 2747.17 281.65 2745.32 281.65C2743.47 281.65 2741.74 280.93 2740.43 279.62C2717.82 257.01 2687.7 244.55 2655.64 244.55C2623.58 244.55 2593.46 257.01 2570.85 279.62C2568.15 282.32 2563.77 282.32 2561.07 279.62C2559.76 278.31 2559.05 276.58 2559.05 274.73C2559.05 272.88 2559.77 271.15 2561.07 269.84C2613.22 217.69 2698.07 217.69 2750.22 269.84C2751.53 271.15 2752.24 272.88 2752.24 274.73C2752.24 276.58 2751.52 278.31 2750.22 279.62H2750.21Z" fill="#454360"/>
<path d="M2587.18 306.31C2579.99 313.5 2579.99 325.2 2587.18 332.39C2594.37 339.58 2606.07 339.58 2613.26 332.39C2636.63 309.02 2674.65 309.03 2698.02 332.39C2701.5 335.87 2706.13 337.79 2711.06 337.79C2715.99 337.79 2720.62 335.87 2724.1 332.39C2731.29 325.2 2731.29 313.5 2724.1 306.31C2686.35 268.56 2624.93 268.56 2587.18 306.31ZM2715.95 324.25C2714.64 325.56 2712.91 326.28 2711.06 326.28C2709.21 326.28 2707.48 325.56 2706.17 324.25C2692.24 310.32 2673.94 303.35 2655.64 303.35C2637.34 303.35 2619.04 310.32 2605.11 324.24C2602.41 326.94 2598.03 326.94 2595.33 324.24C2592.63 321.54 2592.63 317.16 2595.33 314.46C2611.41 298.38 2632.83 289.52 2655.64 289.52C2678.45 289.52 2699.87 298.38 2715.95 314.46C2718.65 317.16 2718.65 321.54 2715.95 324.24V324.25Z" fill="#454360"/>
<path d="M4356.35 1225.54C4356.35 1228.72 4358.93 1231.3 4362.11 1231.3C4365.29 1231.3 4367.87 1228.72 4367.87 1225.54V1196.73C4367.87 1193.55 4365.29 1190.97 4362.11 1190.97C4358.93 1190.97 4356.35 1193.55 4356.35 1196.73V1225.54Z" fill="#454360"/>
<path d="M4356.35 1137.15C4356.35 1140.33 4358.93 1142.91 4362.11 1142.91C4365.29 1142.91 4367.87 1140.33 4367.87 1137.15V1077.57C4367.87 1074.39 4365.29 1071.81 4362.11 1071.81C4358.93 1071.81 4356.35 1074.39 4356.35 1077.57V1137.15Z" fill="#454360"/>
<path d="M4356.35 1017.99C4356.35 1021.17 4358.93 1023.75 4362.11 1023.75C4365.29 1023.75 4367.87 1021.17 4367.87 1017.99V958.41C4367.87 955.23 4365.29 952.65 4362.11 952.65C4358.93 952.65 4356.35 955.23 4356.35 958.41V1017.99Z" fill="#454360"/>
<path d="M4362.11 904.6C4365.29 904.6 4367.87 902.02 4367.87 898.84V870.03C4367.87 866.85 4365.29 864.27 4362.11 864.27C4358.93 864.27 4356.35 866.85 4356.35 870.03V898.84C4356.35 902.02 4358.93 904.6 4362.11 904.6Z" fill="#454360"/>
<path d="M3918.63 1440.18H4091.54C4092.73 1440.18 4093.84 1439.82 4094.76 1439.2L4063.49 1472.67C4061.32 1475 4061.44 1478.64 4063.77 1480.82C4064.88 1481.86 4066.29 1482.37 4067.7 1482.37C4069.24 1482.37 4070.78 1481.76 4071.91 1480.54L4111.32 1438.36C4113.41 1436.12 4113.39 1432.63 4111.25 1430.42L4070.53 1388.24C4068.32 1385.95 4064.67 1385.89 4062.38 1388.1C4060.09 1390.31 4060.03 1393.96 4062.24 1396.25L4094.18 1429.34C4093.38 1428.92 4092.49 1428.67 4091.53 1428.67H3918.62C3915.44 1428.67 3912.86 1431.25 3912.86 1434.43C3912.86 1437.61 3915.44 1440.19 3918.62 1440.19L3918.63 1440.18ZM4096.74 1431.97L4099.17 1434.48L4096.47 1437.37C4096.99 1436.5 4097.31 1435.5 4097.31 1434.41C4097.31 1433.53 4097.1 1432.71 4096.75 1431.96L4096.74 1431.97Z" fill="#454360"/>
<path d="M4107.11 1545.04H3934.2C3933.24 1545.04 3932.35 1545.3 3931.55 1545.71L3963.5 1512.62C3965.71 1510.33 3965.65 1506.68 3963.36 1504.47C3961.07 1502.26 3957.42 1502.32 3955.21 1504.61L3914.49 1546.79C3912.36 1549 3912.33 1552.49 3914.42 1554.73L3953.83 1596.91C3954.96 1598.12 3956.5 1598.74 3958.04 1598.74C3959.45 1598.74 3960.86 1598.23 3961.97 1597.19C3964.3 1595.02 3964.42 1591.37 3962.25 1589.04L3930.98 1555.57C3931.9 1556.19 3933.01 1556.55 3934.2 1556.55H4107.11C4110.29 1556.55 4112.87 1553.97 4112.87 1550.79C4112.87 1547.61 4110.29 1545.03 4107.11 1545.03V1545.04ZM3926.58 1550.87L3929.01 1548.36C3928.66 1549.11 3928.45 1549.93 3928.45 1550.81C3928.45 1551.9 3928.77 1552.9 3929.29 1553.77L3926.59 1550.88L3926.58 1550.87Z" fill="#454360"/>
<path d="M691.776 570.884C699.665 569.609 705.027 562.18 703.752 554.291C702.477 546.402 695.048 541.04 687.159 542.315C679.27 543.59 673.908 551.019 675.183 558.908C676.458 566.797 683.887 572.159 691.776 570.884Z" fill="#454360"/>
<path d="M784.29 571.13C792.282 571.13 798.76 564.652 798.76 556.66C798.76 548.668 792.282 542.19 784.29 542.19C776.298 542.19 769.82 548.668 769.82 556.66C769.82 564.652 776.298 571.13 784.29 571.13Z" fill="#454360"/>
<path d="M703.91 598.61C700.73 598.61 698.15 601.19 698.15 604.37C698.15 625.72 715.52 643.09 736.87 643.09C758.22 643.09 775.59 625.72 775.59 604.37C775.59 601.19 773.01 598.61 769.83 598.61H703.91ZM736.86 631.56C723.84 631.56 712.93 622.37 710.28 610.13H763.43C760.78 622.37 749.87 631.56 736.85 631.56H736.86Z" fill="#454360"/>
<path d="M3523.06 2382.81H3656.1C3656.1 2382.81 3656.13 2382.81 3656.14 2382.81C3656.51 2382.81 3656.87 2382.77 3657.23 2382.7C3657.47 2382.65 3657.69 2382.57 3657.92 2382.49C3658.05 2382.45 3658.19 2382.42 3658.31 2382.37C3658.58 2382.26 3658.82 2382.11 3659.07 2381.96C3659.15 2381.91 3659.23 2381.88 3659.31 2381.83C3659.63 2381.62 3659.92 2381.38 3660.19 2381.11C3660.19 2381.11 3660.19 2381.11 3660.2 2381.11L3709.38 2331.45C3709.61 2331.21 3709.82 2330.96 3710.01 2330.69C3710.07 2330.61 3710.11 2330.52 3710.17 2330.44C3710.3 2330.23 3710.41 2330.02 3710.52 2329.8C3710.57 2329.7 3710.61 2329.6 3710.65 2329.49C3710.75 2329.23 3710.84 2328.96 3710.9 2328.68C3710.91 2328.62 3710.93 2328.57 3710.94 2328.52C3711.01 2328.18 3711.04 2327.84 3711.04 2327.49C3711.04 2327.45 3711.05 2327.42 3711.05 2327.39V2156.22C3711.05 2153.04 3708.47 2150.46 3705.29 2150.46H3523.07C3519.89 2150.46 3517.31 2153.04 3517.31 2156.22V2377.04C3517.31 2380.22 3519.89 2382.8 3523.07 2382.8L3523.06 2382.81ZM3661.87 2363.04V2333.15H3691.47L3661.87 2363.04ZM3528.82 2161.99H3699.52V2321.63H3656.1C3652.92 2321.63 3650.34 2324.21 3650.34 2327.39V2371.28H3528.82V2161.98V2161.99Z" fill="#454360"/>
<path d="M3560.32 2205.74H3668.03C3671.21 2205.74 3673.79 2203.16 3673.79 2199.98C3673.79 2196.8 3671.21 2194.22 3668.03 2194.22H3560.32C3557.14 2194.22 3554.56 2196.8 3554.56 2199.98C3554.56 2203.16 3557.14 2205.74 3560.32 2205.74Z" fill="#454360"/>
<path d="M3560.32 2244.12H3668.03C3671.21 2244.12 3673.79 2241.54 3673.79 2238.36C3673.79 2235.18 3671.21 2232.6 3668.03 2232.6H3560.32C3557.14 2232.6 3554.56 2235.18 3554.56 2238.36C3554.56 2241.54 3557.14 2244.12 3560.32 2244.12Z" fill="#454360"/>
<path d="M3621.1 2270.98H3560.32C3557.14 2270.98 3554.56 2273.56 3554.56 2276.74C3554.56 2279.92 3557.14 2282.5 3560.32 2282.5H3621.1C3624.28 2282.5 3626.86 2279.92 3626.86 2276.74C3626.86 2273.56 3624.28 2270.98 3621.1 2270.98Z" fill="#454360"/>
<path d="M991.69 929.86C1056.18 929.86 1108.83 878.16 1110.36 814.03C1110.36 813.91 1110.4 813.79 1110.4 813.67C1110.4 813.57 1110.38 813.48 1110.37 813.39C1110.38 812.65 1110.4 811.91 1110.4 811.16C1110.4 745.71 1057.15 692.45 991.69 692.45C985.16 692.45 978.75 692.99 972.5 694.01C972.43 694.01 972.37 694.03 972.3 694.04C916.04 703.32 872.98 752.3 872.98 811.15C872.98 876.6 926.23 929.86 991.69 929.86ZM1020.28 914.46C1032.27 900.42 1040.84 886.12 1046.67 871.88C1058.1 871.94 1069.28 872.01 1079.83 872.08C1065.72 892.43 1044.75 907.68 1020.28 914.46ZM1086.76 860.6C1080.9 860.56 1067.69 860.47 1050.8 860.38C1055.13 846.47 1057.02 832.72 1057.14 819.43H1098.56C1097.43 834.18 1093.29 848.11 1086.77 860.6H1086.76ZM1098.82 807.91H1056.82C1055.83 792.86 1052.74 778.56 1048.58 765.47H1088.63C1094.75 778.41 1098.36 792.77 1098.82 807.91ZM1082.28 753.94H1044.55C1037.17 734.63 1027.95 718.71 1020.94 708.03C1046.57 715.31 1068.32 731.92 1082.27 753.94H1082.28ZM997.46 704.13C999.87 704.26 1002.26 704.47 1004.63 704.76C1010.39 712.5 1022.58 730.3 1032.15 753.94H997.46V704.13ZM997.46 765.47H1036.41C1040.77 778.45 1044.08 792.78 1045.11 807.91H997.46V765.47ZM997.46 819.43H1045.44C1045.28 832.7 1043.22 846.45 1038.52 860.31C1025.77 860.25 1011.68 860.18 997.47 860.13V819.42L997.46 819.43ZM997.46 871.67C1009.45 871.71 1021.78 871.76 1034 871.82C1027.11 887.19 1016.73 902.58 1001.8 917.52C1001.68 917.64 1001.6 917.77 1001.5 917.89C1000.16 918.01 998.82 918.11 997.47 918.19V871.68L997.46 871.67ZM985.93 918.18C983.79 918.07 981.67 917.88 979.56 917.65C979.52 917.61 979.49 917.56 979.45 917.52C964.42 902.49 953.98 887.02 947.07 871.58C958.83 871.58 972.03 871.59 985.93 871.63V918.18ZM985.93 860.1C970.72 860.06 955.76 860.04 942.55 860.06C937.87 846.28 935.81 832.62 935.64 819.43H985.93V860.1ZM985.93 807.91H935.96C936.99 792.79 940.3 778.47 944.68 765.47H985.93V807.91ZM976.38 705.08C979.52 704.63 982.7 704.31 985.93 704.14V753.95H948.97C958.33 730.93 970.22 713.38 976.38 705.08ZM959.78 708.83C952.87 719.45 943.91 735.1 936.71 753.95H901.1C914.57 732.7 935.3 716.48 959.78 708.83ZM894.75 765.47H932.67C931.04 770.62 929.57 775.95 928.33 781.44C926.32 790.38 925.04 799.21 924.48 807.9H884.55C885 792.76 888.61 778.41 894.74 765.46L894.75 765.47ZM896.67 860.69C890.12 848.18 885.97 834.22 884.83 819.43H924.19C924.3 830.42 925.59 841.15 928.09 851.56C928.78 854.43 929.58 857.27 930.45 860.09C912.16 860.16 899.11 860.33 896.76 860.67C896.73 860.67 896.7 860.69 896.67 860.69ZM934.54 871.6C940.54 886.38 949.15 900.43 960.27 913.64C936.94 906.47 916.98 891.53 903.42 871.86C909.52 871.71 920.49 871.63 934.55 871.6H934.54Z" fill="#454360"/>
<path d="M929.93 0C837.96 0 763.13 74.82 763.13 166.8C763.13 258.78 837.95 333.6 929.93 333.6C1021.91 333.6 1096.73 258.78 1096.73 166.8C1096.73 74.82 1021.9 0 929.93 0ZM929.93 322.07C844.31 322.07 774.66 252.42 774.66 166.8C774.66 81.18 844.31 11.53 929.93 11.53C1015.55 11.53 1085.2 81.18 1085.2 166.8C1085.2 252.42 1015.55 322.07 929.93 322.07Z" fill="#454360"/>
<path d="M1028.59 161.03H935.69V68.96C935.69 65.78 933.11 63.2 929.93 63.2C926.75 63.2 924.17 65.78 924.17 68.96V166.79C924.17 169.97 926.75 172.55 929.93 172.55H1028.59C1031.77 172.55 1034.35 169.97 1034.35 166.79C1034.35 163.61 1031.77 161.03 1028.59 161.03Z" fill="#454360"/>
<path d="M4713.49 881.49L4584.86 807.23C4583.08 806.2 4580.88 806.2 4579.1 807.23C4577.32 808.26 4576.22 810.16 4576.22 812.22V960.74C4576.22 962.8 4577.32 964.7 4579.1 965.73C4579.99 966.24 4580.99 966.5 4581.98 966.5C4582.97 966.5 4583.97 966.24 4584.86 965.73L4713.49 891.47C4715.27 890.44 4716.37 888.54 4716.37 886.48C4716.37 884.42 4715.27 882.52 4713.49 881.49ZM4587.74 950.76V822.2L4699.08 886.48L4587.74 950.76Z" fill="#454360"/>
<path d="M4759.11 732.92H4568.26V416.51C4568.26 401.2 4555.81 388.75 4540.5 388.75H4183.73C4168.42 388.75 4155.97 401.2 4155.97 416.51V773.28C4155.97 788.59 4168.42 801.04 4183.73 801.04H4482.7V1009.32C4482.7 1021.16 4492.34 1030.8 4504.18 1030.8H4759.1C4770.94 1030.8 4780.58 1021.16 4780.58 1009.32V754.4C4780.58 742.55 4770.94 732.92 4759.1 732.92H4759.11ZM4183.73 789.51C4174.78 789.51 4167.49 782.23 4167.49 773.27V416.5C4167.49 407.55 4174.77 400.26 4183.73 400.26H4540.5C4549.45 400.26 4556.73 407.54 4556.73 416.5V773.27C4556.73 782.22 4549.45 789.51 4540.5 789.51H4183.73ZM4769.06 1009.32C4769.06 1014.81 4764.59 1019.28 4759.1 1019.28H4504.18C4498.69 1019.28 4494.22 1014.81 4494.22 1009.32V801.04H4540.49C4555.8 801.04 4568.25 788.59 4568.25 773.28V744.44H4759.1C4764.59 744.44 4769.06 748.91 4769.06 754.4V1009.32Z" fill="#454360"/>
<path d="M273.4 1676.91H152.15C142.29 1676.91 134.26 1685.68 134.26 1696.47V1815.75C130.84 1815.15 127.33 1814.85 123.77 1814.85C99.11 1814.85 79.79 1828.66 79.79 1846.3C79.79 1863.94 99.11 1877.75 123.77 1877.75C140.98 1877.75 156.49 1870.69 163.63 1859.68C167.66 1855.99 170.03 1850.46 170.03 1844.69V1734.55H255.51V1815.75C252.09 1815.15 248.58 1814.85 245.02 1814.85C220.36 1814.85 201.04 1828.66 201.04 1846.3C201.04 1863.94 220.36 1877.75 245.02 1877.75C262.24 1877.75 277.74 1870.69 284.88 1859.68C288.91 1855.99 291.28 1850.46 291.28 1844.69V1696.47C291.28 1685.69 283.26 1676.91 273.39 1676.91H273.4ZM279.76 1844.69C279.76 1847.4 278.66 1849.92 276.81 1851.43C276.29 1851.85 275.86 1852.36 275.51 1852.93C270.74 1860.88 258.48 1866.22 245.02 1866.22C227.43 1866.22 212.57 1857.1 212.57 1846.3C212.57 1835.5 227.43 1826.38 245.02 1826.38C250.05 1826.38 254.94 1827.12 259.54 1828.58C261.29 1829.13 263.2 1828.82 264.68 1827.74C266.16 1826.65 267.04 1824.93 267.04 1823.09V1728.8C267.04 1725.62 264.46 1723.04 261.28 1723.04H164.27C161.09 1723.04 158.51 1725.62 158.51 1728.8V1844.7C158.51 1847.41 157.41 1849.93 155.56 1851.44C155.04 1851.86 154.61 1852.37 154.26 1852.94C149.49 1860.89 137.23 1866.23 123.77 1866.23C106.18 1866.23 91.32 1857.11 91.32 1846.31C91.32 1835.51 106.18 1826.39 123.77 1826.39C128.8 1826.39 133.69 1827.13 138.29 1828.59C140.04 1829.14 141.95 1828.83 143.43 1827.75C144.91 1826.66 145.79 1824.94 145.79 1823.1V1696.49C145.79 1692.14 148.7 1688.46 152.15 1688.46H273.4C276.85 1688.46 279.76 1692.14 279.76 1696.49V1844.71V1844.69Z" fill="#454360"/>
</svg>
